HubotSans-ExtraLightWideItalic.ufo
<glyph name="exclam" format="2">
  <advance width="185"/>
  <unicode hex="0021"/>
  <outline>
    <contour>
      <point x="68" y="191" type="line"/>
      <point x="88" y="191" type="line"/>
      <point x="161" y="490" type="line"/>
      <point x="211" y="729" type="line"/>
      <point x="173" y="729" type="line"/>
      <point x="123" y="490" type="line"/>
    </contour>
    <contour>
      <point x="16" y="0" type="line"/>
      <point x="61" y="0" type="line"/>
      <point x="74" y="64" type="line"/>
      <point x="29" y="64" type="line"/>
    </contour>
  </outline>
</glyph>
<glyph name="numbersign" format="2">
  <advance width="714"/>
  <unicode hex="0023"/>
  <outline>
    <contour>
      <point x="134" y="0" type="line"/>
      <point x="168" y="0" type="line"/>
      <point x="215" y="224" type="line"/>
      <point x="490" y="224" type="line"/>
      <point x="443" y="0" type="line"/>
      <point x="477" y="0" type="line"/>
      <point x="524" y="224" type="line"/>
      <point x="677" y="224" type="line"/>
      <point x="684" y="254" type="line"/>
      <point x="531" y="254" type="line"/>
      <point x="582" y="498" type="line"/>
      <point x="735" y="498" type="line"/>
      <point x="742" y="528" type="line"/>
      <point x="589" y="528" type="line"/>
      <point x="631" y="729" type="line"/>
      <point x="597" y="729" type="line"/>
      <point x="555" y="528" type="line"/>
      <point x="280" y="528" type="line"/>
      <point x="322" y="729" type="line"/>
      <point x="288" y="729" type="line"/>
      <point x="246" y="528" type="line"/>
      <point x="87" y="528" type="line"/>
      <point x="80" y="498" type="line"/>
      <point x="239" y="498" type="line"/>
      <point x="188" y="254" type="line"/>
      <point x="29" y="254" type="line"/>
      <point x="22" y="224" type="line"/>
      <point x="181" y="224" type="line"/>
    </contour>
    <contour>
      <point x="222" y="254" type="line"/>
      <point x="273" y="498" type="line"/>
      <point x="548" y="498" type="line"/>
      <point x="497" y="254" type="line"/>
    </contour>
  </outline>
</glyph>
<glyph name="percent" format="2">
  <advance width="966"/>
  <unicode hex="0025"/>
  <outline>
    <contour>
      <point x="143" y="0" type="line"/>
      <point x="186" y="0" type="line"/>
      <point x="867" y="729" type="line"/>
      <point x="823" y="729" type="line"/>
    </contour>
    <contour>
      <point x="270" y="339" type="curve" smooth="yes"/>
      <point x="357" y="339"/>
      <point x="426" y="391"/>
      <point x="450" y="503" type="curve" smooth="yes"/>
      <point x="454" y="522" type="line" smooth="yes"/>
      <point x="481" y="652"/>
      <point x="428" y="739"/>
      <point x="293" y="739" type="curve" smooth="yes"/>
      <point x="206" y="739"/>
      <point x="137" y="687"/>
      <point x="113" y="575" type="curve" smooth="yes"/>
      <point x="109" y="556" type="line" smooth="yes"/>
      <point x="82" y="426"/>
      <point x="135" y="339"/>
    </contour>
    <contour>
      <point x="270" y="369" type="curve" smooth="yes"/>
      <point x="173" y="369"/>
      <point x="118" y="425"/>
      <point x="139" y="525" type="curve" smooth="yes"/>
      <point x="154" y="597" type="line" smooth="yes"/>
      <point x="168" y="664"/>
      <point x="219" y="709"/>
      <point x="293" y="709" type="curve" smooth="yes"/>
      <point x="390" y="709"/>
      <point x="445" y="653"/>
      <point x="424" y="553" type="curve" smooth="yes"/>
      <point x="409" y="481" type="line" smooth="yes"/>
      <point x="395" y="414"/>
      <point x="344" y="369"/>
    </contour>
    <contour>
      <point x="718" y="-9" type="curve" smooth="yes"/>
      <point x="805" y="-9"/>
      <point x="874" y="43"/>
      <point x="898" y="155" type="curve" smooth="yes"/>
      <point x="902" y="174" type="line" smooth="yes"/>
      <point x="929" y="304"/>
      <point x="876" y="391"/>
      <point x="741" y="391" type="curve" smooth="yes"/>
      <point x="654" y="391"/>
      <point x="585" y="339"/>
      <point x="561" y="227" type="curve" smooth="yes"/>
      <point x="557" y="208" type="line" smooth="yes"/>
      <point x="530" y="78"/>
      <point x="583" y="-9"/>
    </contour>
    <contour>
      <point x="718" y="21" type="curve" smooth="yes"/>
      <point x="621" y="21"/>
      <point x="567" y="77"/>
      <point x="587" y="177" type="curve" smooth="yes"/>
      <point x="602" y="249" type="line" smooth="yes"/>
      <point x="616" y="316"/>
      <point x="667" y="361"/>
      <point x="741" y="361" type="curve" smooth="yes"/>
      <point x="838" y="361"/>
      <point x="892" y="305"/>
      <point x="872" y="205" type="curve" smooth="yes"/>
      <point x="857" y="133" type="line" smooth="yes"/>
      <point x="843" y="66"/>
      <point x="792" y="21"/>
    </contour>
  </outline>
</glyph>
<glyph name="ampersand" format="2">
  <advance width="762"/>
  <unicode hex="0026"/>
  <outline>
    <contour>
      <point x="222" y="-10" type="curve" smooth="yes"/>
      <point x="328" y="-10"/>
      <point x="432" y="33"/>
      <point x="495" y="123" type="curve"/>
      <point x="607" y="0" type="line"/>
      <point x="655" y="0" type="line"/>
      <point x="514" y="155" type="line"/>
      <point x="537" y="193"/>
      <point x="555" y="237"/>
      <point x="567" y="288" type="curve"/>
      <point x="722" y="288" type="line"/>
      <point x="729" y="321" type="line"/>
      <point x="538" y="321" type="line"/>
      <point x="530" y="285" type="line" smooth="yes"/>
      <point x="521" y="245"/>
      <point x="509" y="214"/>
      <point x="492" y="180" type="curve"/>
      <point x="311" y="374" type="line"/>
      <point x="445" y="426"/>
      <point x="505" y="470"/>
      <point x="522" y="544" type="curve" smooth="yes"/>
      <point x="525" y="557" type="line" smooth="yes"/>
      <point x="549" y="661"/>
      <point x="479" y="739"/>
      <point x="360" y="739" type="curve" smooth="yes"/>
      <point x="276" y="739"/>
      <point x="195" y="698"/>
      <point x="176" y="608" type="curve" smooth="yes"/>
      <point x="172" y="589" type="line" smooth="yes"/>
      <point x="156" y="513"/>
      <point x="191" y="459"/>
      <point x="252" y="391" type="curve"/>
      <point x="251" y="386" type="line"/>
      <point x="140" y="340"/>
      <point x="53" y="284"/>
      <point x="36" y="193" type="curve" smooth="yes"/>
      <point x="33" y="177" type="line" smooth="yes"/>
      <point x="11" y="60"/>
      <point x="97" y="-10"/>
    </contour>
    <contour>
      <point x="229" y="22" type="curve" smooth="yes"/>
      <point x="120" y="22"/>
      <point x="51" y="74"/>
      <point x="70" y="175" type="curve" smooth="yes"/>
      <point x="73" y="191" type="line" smooth="yes"/>
      <point x="84" y="250"/>
      <point x="134" y="307"/>
      <point x="274" y="365" type="curve"/>
      <point x="472" y="149" type="line"/>
      <point x="424" y="72"/>
      <point x="333" y="22"/>
    </contour>
    <contour>
      <point x="290" y="398" type="curve"/>
      <point x="236" y="457"/>
      <point x="190" y="509"/>
      <point x="206" y="580" type="curve" smooth="yes"/>
      <point x="210" y="598" type="line" smooth="yes"/>
      <point x="224" y="661"/>
      <point x="272" y="706"/>
      <point x="360" y="706" type="curve" smooth="yes"/>
      <point x="453" y="706"/>
      <point x="508" y="646"/>
      <point x="490" y="562" type="curve" smooth="yes"/>
      <point x="487" y="548" type="line" smooth="yes"/>
      <point x="473" y="482"/>
      <point x="423" y="450"/>
    </contour>
  </outline>
</glyph>
<glyph name="quotesingle" format="2">
  <advance width="136"/>
  <unicode hex="0027"/>
  <anchor x="-19" y="0" name="#entry"/>
  <anchor x="129" y="0" name="#exit"/>
  <outline>
    <contour>
      <point x="100" y="450" type="line"/>
      <point x="120" y="450" type="line"/>
      <point x="159" y="604" type="line"/>
      <point x="185" y="729" type="line"/>
      <point x="151" y="729" type="line"/>
      <point x="125" y="604" type="line"/>
    </contour>
  </outline>
</glyph>
<glyph name="parenleft" format="2">
  <advance width="309"/>
  <unicode hex="0028"/>
  <outline>
    <contour>
      <point x="152" y="-167" type="curve"/>
      <point x="183" y="-167" type="line"/>
      <point x="124" y="-84"/>
      <point x="89" y="39"/>
      <point x="89" y="174" type="curve" smooth="yes"/>
      <point x="89" y="387"/>
      <point x="187" y="662"/>
      <point x="384" y="793" type="curve"/>
      <point x="341" y="793" type="line"/>
      <point x="148" y="658"/>
      <point x="52" y="391"/>
      <point x="52" y="179" type="curve" smooth="yes"/>
      <point x="52" y="45"/>
      <point x="87" y="-79"/>
    </contour>
  </outline>
</glyph>
<glyph name="asterisk" format="2">
  <advance width="313"/>
  <unicode hex="002A"/>
  <outline>
    <contour>
      <point x="210" y="441" type="line"/>
      <point x="240" y="441" type="line"/>
      <point x="240" y="502" type="line"/>
      <point x="231" y="573" type="line"/>
      <point x="291" y="530" type="line"/>
      <point x="343" y="500" type="line"/>
      <point x="358" y="526" type="line"/>
      <point x="305" y="558" type="line"/>
      <point x="243" y="586" type="line"/>
      <point x="305" y="615" type="line"/>
      <point x="357" y="643" type="line"/>
      <point x="343" y="669" type="line"/>
      <point x="291" y="641" type="line"/>
      <point x="231" y="600" type="line"/>
      <point x="240" y="669" type="line"/>
      <point x="240" y="729" type="line"/>
      <point x="210" y="729" type="line"/>
      <point x="210" y="669" type="line"/>
      <point x="219" y="600" type="line"/>
      <point x="162" y="641" type="line"/>
      <point x="108" y="669" type="line"/>
      <point x="94" y="643" type="line"/>
      <point x="147" y="615" type="line"/>
      <point x="209" y="586" type="line"/>
      <point x="147" y="558" type="line"/>
      <point x="93" y="526" type="line"/>
      <point x="108" y="500" type="line"/>
      <point x="162" y="530" type="line"/>
      <point x="219" y="573" type="line"/>
      <point x="210" y="502" type="line"/>
    </contour>
  </outline>
</glyph>
<glyph name="plus" format="2">
  <advance width="720"/>
  <unicode hex="002B"/>
  <outline>
    <contour>
      <point x="312" y="115" type="line"/>
      <point x="346" y="115" type="line"/>
      <point x="451" y="608" type="line"/>
      <point x="416" y="608" type="line"/>
    </contour>
    <contour>
      <point x="131" y="344" type="line"/>
      <point x="625" y="344" type="line"/>
      <point x="633" y="378" type="line"/>
      <point x="139" y="378" type="line"/>
    </contour>
  </outline>
</glyph>
<glyph name="comma" format="2">
  <advance width="142"/>
  <unicode hex="002C"/>
  <anchor x="-11" y="0" name="#entry"/>
  <anchor x="148" y="0" name="#exit"/>
  <anchor x="125" y="516" name="top"/>
  <outline>
    <contour>
      <point x="-59" y="-146" type="line"/>
      <point x="-32" y="-146" type="line"/>
      <point x="41" y="0" type="line"/>
      <point x="54" y="64" type="line"/>
      <point x="4" y="64" type="line"/>
      <point x="-9" y="0" type="line"/>
      <point x="18" y="0" type="line"/>
    </contour>
  </outline>
</glyph>
<glyph name="hyphen" format="2">
  <advance width="383"/>
  <unicode hex="002D"/>
  <outline>
    <contour>
      <point x="55" y="301" type="line"/>
      <point x="346" y="301" type="line"/>
      <point x="354" y="337" type="line"/>
      <point x="63" y="337" type="line"/>
    </contour>
  </outline>
</glyph>
<glyph name="period" format="2">
  <advance width="141"/>
  <unicode hex="002E"/>
  <anchor x="-59" y="0" name="#entry"/>
  <anchor x="86" y="0" name="#exit"/>
  <anchor x="29" y="64" name="_top"/>
  <anchor x="125" y="516" name="top"/>
  <outline>
    <contour>
      <point x="-9" y="0" type="line"/>
      <point x="41" y="0" type="line"/>
      <point x="54" y="64" type="line"/>
      <point x="4" y="64" type="line"/>
    </contour>
  </outline>
</glyph>
<glyph name="slash" format="2">
  <advance width="487"/>
  <unicode hex="002F"/>
  <outline>
    <contour>
      <point x="-69" y="-81" type="line"/>
      <point x="-27" y="-81" type="line"/>
      <point x="556" y="729" type="line"/>
      <point x="518" y="729" type="line"/>
    </contour>
  </outline>
</glyph>
<glyph name="zero" format="2">
  <advance width="782"/>
  <unicode hex="0030"/>
  <note>
zero
</note>
  <outline>
    <contour>
      <point x="371" y="-10" type="curve" smooth="yes"/>
      <point x="561" y="-10"/>
      <point x="703" y="85"/>
      <point x="743" y="328" type="curve" smooth="yes"/>
      <point x="746" y="346" type="line" smooth="yes"/>
      <point x="784" y="572"/>
      <point x="684" y="739"/>
      <point x="456" y="739" type="curve" smooth="yes"/>
      <point x="266" y="739"/>
      <point x="124" y="644"/>
      <point x="84" y="401" type="curve" smooth="yes"/>
      <point x="81" y="383" type="line" smooth="yes"/>
      <point x="43" y="157"/>
      <point x="143" y="-10"/>
    </contour>
    <contour>
      <point x="374" y="26" type="curve" smooth="yes"/>
      <point x="184" y="26"/>
      <point x="88" y="150"/>
      <point x="122" y="351" type="curve" smooth="yes"/>
      <point x="138" y="446" type="line" smooth="yes"/>
      <point x="164" y="600"/>
      <point x="270" y="703"/>
      <point x="453" y="703" type="curve" smooth="yes"/>
      <point x="643" y="703"/>
      <point x="739" y="579"/>
      <point x="705" y="378" type="curve" smooth="yes"/>
      <point x="689" y="283" type="line" smooth="yes"/>
      <point x="663" y="129"/>
      <point x="557" y="26"/>
    </contour>
    <contour>
      <point x="97" y="346" type="line"/>
      <point x="722" y="346" type="line"/>
      <point x="730" y="383" type="line"/>
      <point x="105" y="383" type="line"/>
    </contour>
  </outline>
</glyph>
<glyph name="one" format="2">
  <advance width="371"/>
  <unicode hex="0031"/>
  <note>
one
</note>
  <outline>
    <contour>
      <point x="199" y="0" type="line"/>
      <point x="238" y="0" type="line"/>
      <point x="390" y="729" type="line"/>
      <point x="357" y="729" type="line"/>
      <point x="325" y="606" type="line"/>
      <point x="112" y="606" type="line"/>
      <point x="104" y="569" type="line"/>
      <point x="318" y="569" type="line"/>
    </contour>
  </outline>
</glyph>
<glyph name="two" format="2">
  <advance width="679"/>
  <unicode hex="0032"/>
  <note>
two
</note>
  <outline>
    <contour>
      <point x="-5" y="0" type="line"/>
      <point x="578" y="0" type="line"/>
      <point x="586" y="39" type="line"/>
      <point x="120" y="39" type="line"/>
      <point x="76" y="39" type="line"/>
      <point x="76" y="44" type="line"/>
      <point x="110" y="63" type="line"/>
      <point x="435" y="243" type="line" smooth="yes"/>
      <point x="608" y="339"/>
      <point x="677" y="414"/>
      <point x="677" y="527" type="curve" smooth="yes"/>
      <point x="677" y="664"/>
      <point x="568" y="738"/>
      <point x="419" y="738" type="curve" smooth="yes"/>
      <point x="259" y="738"/>
      <point x="137" y="658"/>
      <point x="102" y="530" type="curve"/>
      <point x="143" y="530" type="line"/>
      <point x="172" y="636"/>
      <point x="278" y="702"/>
      <point x="417" y="702" type="curve" smooth="yes"/>
      <point x="556" y="702"/>
      <point x="643" y="632"/>
      <point x="634" y="520" type="curve" smooth="yes"/>
      <point x="633" y="507" type="line" smooth="yes"/>
      <point x="626" y="415"/>
      <point x="559" y="356"/>
      <point x="418" y="277" type="curve" smooth="yes"/>
      <point x="0" y="44" type="line"/>
    </contour>
  </outline>
</glyph>
<glyph name="three" format="2">
  <advance width="698"/>
  <unicode hex="0033"/>
  <note>
three
</note>
  <outline>
    <contour>
      <point x="302" y="-10" type="curve" smooth="yes"/>
      <point x="502" y="-10"/>
      <point x="636" y="80"/>
      <point x="636" y="214" type="curve" smooth="yes"/>
      <point x="636" y="302"/>
      <point x="582" y="363"/>
      <point x="490" y="380" type="curve"/>
      <point x="491" y="386" type="line"/>
      <point x="617" y="404"/>
      <point x="691" y="471"/>
      <point x="691" y="566" type="curve" smooth="yes"/>
      <point x="691" y="672"/>
      <point x="596" y="738"/>
      <point x="444" y="738" type="curve" smooth="yes"/>
      <point x="276" y="738"/>
      <point x="142" y="659"/>
      <point x="111" y="541" type="curve"/>
      <point x="153" y="541" type="line"/>
      <point x="182" y="638"/>
      <point x="296" y="702"/>
      <point x="441" y="702" type="curve" smooth="yes"/>
      <point x="557" y="702"/>
      <point x="664" y="659"/>
      <point x="650" y="543" type="curve" smooth="yes"/>
      <point x="647" y="530" type="line" smooth="yes"/>
      <point x="629" y="449"/>
      <point x="545" y="404"/>
      <point x="413" y="404" type="curve" smooth="yes"/>
      <point x="340" y="404" type="line"/>
      <point x="333" y="364" type="line"/>
      <point x="409" y="364" type="line" smooth="yes"/>
      <point x="524" y="364"/>
      <point x="607" y="316"/>
      <point x="594" y="200" type="curve" smooth="yes"/>
      <point x="592" y="182" type="line" smooth="yes"/>
      <point x="578" y="88"/>
      <point x="464" y="26"/>
      <point x="307" y="26" type="curve" smooth="yes"/>
      <point x="167" y="26"/>
      <point x="72" y="91"/>
      <point x="73" y="203" type="curve"/>
      <point x="31" y="203" type="line"/>
      <point x="29" y="76"/>
      <point x="142" y="-10"/>
    </contour>
  </outline>
</glyph>
<glyph name="four" format="2">
  <advance width="774"/>
  <unicode hex="0034"/>
  <note>
four
</note>
  <outline>
    <contour>
      <point x="26" y="195" type="line"/>
      <point x="723" y="195" type="line"/>
      <point x="730" y="230" type="line"/>
      <point x="82" y="230" type="line"/>
      <point x="84" y="238" type="line"/>
      <point x="572" y="729" type="line"/>
      <point x="521" y="729" type="line"/>
      <point x="35" y="239" type="line"/>
    </contour>
    <contour>
      <point x="461" y="0" type="line"/>
      <point x="501" y="0" type="line"/>
      <point x="585" y="404" type="line"/>
      <point x="551" y="404" type="line"/>
      <point x="504" y="216" type="line"/>
    </contour>
  </outline>
</glyph>
<glyph name="five" format="2">
  <advance width="720"/>
  <unicode hex="0035"/>
  <note>
five
</note>
  <outline>
    <contour>
      <point x="317" y="-10" type="curve" smooth="yes"/>
      <point x="505" y="-10"/>
      <point x="667" y="74"/>
      <point x="667" y="259" type="curve" smooth="yes"/>
      <point x="667" y="368"/>
      <point x="595" y="470"/>
      <point x="413" y="470" type="curve" smooth="yes"/>
      <point x="300" y="470"/>
      <point x="195" y="432"/>
      <point x="129" y="374" type="curve"/>
      <point x="120" y="374" type="line"/>
      <point x="207" y="691" type="line"/>
      <point x="739" y="691" type="line"/>
      <point x="746" y="729" type="line"/>
      <point x="177" y="729" type="line"/>
      <point x="79" y="341" type="line"/>
      <point x="130" y="333" type="line"/>
      <point x="191" y="394"/>
      <point x="293" y="434"/>
      <point x="411" y="434" type="curve" smooth="yes"/>
      <point x="555" y="434"/>
      <point x="643" y="365"/>
      <point x="623" y="222" type="curve" smooth="yes"/>
      <point x="620" y="205" type="line" smooth="yes"/>
      <point x="604" y="96"/>
      <point x="490" y="27"/>
      <point x="318" y="27" type="curve" smooth="yes"/>
      <point x="182" y="27"/>
      <point x="87" y="90"/>
      <point x="88" y="203" type="curve"/>
      <point x="46" y="203" type="line"/>
      <point x="44" y="76"/>
      <point x="157" y="-10"/>
    </contour>
  </outline>
</glyph>
<glyph name="six" format="2">
  <advance width="746"/>
  <unicode hex="0036"/>
  <note>
six
</note>
  <outline>
    <contour>
      <point x="371" y="-10" type="curve" smooth="yes"/>
      <point x="549" y="-10"/>
      <point x="693" y="88"/>
      <point x="693" y="256" type="curve" smooth="yes"/>
      <point x="693" y="390"/>
      <point x="591" y="474"/>
      <point x="437" y="474" type="curve" smooth="yes"/>
      <point x="310" y="474"/>
      <point x="205" y="436"/>
      <point x="119" y="366" type="curve"/>
      <point x="113" y="366" type="line"/>
      <point x="123" y="395"/>
      <point x="130" y="421"/>
      <point x="134" y="443" type="curve" smooth="yes"/>
      <point x="170" y="606"/>
      <point x="270" y="703"/>
      <point x="450" y="703" type="curve" smooth="yes"/>
      <point x="572" y="703"/>
      <point x="665" y="648"/>
      <point x="684" y="563" type="curve"/>
      <point x="728" y="563" type="line"/>
      <point x="702" y="668"/>
      <point x="598" y="739"/>
      <point x="447" y="739" type="curve" smooth="yes"/>
      <point x="288" y="739"/>
      <point x="140" y="660"/>
      <point x="94" y="439" type="curve" smooth="yes"/>
      <point x="75" y="348" type="line" smooth="yes"/>
      <point x="30" y="150"/>
      <point x="131" y="-10"/>
    </contour>
    <contour>
      <point x="373" y="27" type="curve" smooth="yes"/>
      <point x="184" y="27"/>
      <point x="76" y="139"/>
      <point x="106" y="306" type="curve" smooth="yes"/>
      <point x="108" y="316" type="line"/>
      <point x="184" y="391"/>
      <point x="301" y="439"/>
      <point x="432" y="439" type="curve" smooth="yes"/>
      <point x="582" y="439"/>
      <point x="667" y="362"/>
      <point x="647" y="222" type="curve" smooth="yes"/>
      <point x="644" y="199" type="line" smooth="yes"/>
      <point x="626" y="95"/>
      <point x="518" y="27"/>
    </contour>
  </outline>
</glyph>
<glyph name="seven" format="2">
  <advance width="683"/>
  <unicode hex="0037"/>
  <note>
seven
</note>
  <outline>
    <contour>
      <point x="123" y="0" type="line"/>
      <point x="176" y="0" type="line"/>
      <point x="736" y="686" type="line"/>
      <point x="744" y="729" type="line"/>
      <point x="145" y="729" type="line"/>
      <point x="109" y="553" type="line"/>
      <point x="146" y="553" type="line"/>
      <point x="175" y="690" type="line"/>
      <point x="684" y="690" type="line"/>
      <point x="681" y="678" type="line"/>
    </contour>
  </outline>
</glyph>
<glyph name="eight" format="2">
  <advance width="730"/>
  <unicode hex="0038"/>
  <note>
eight
</note>
  <outline>
    <contour>
      <point x="346" y="-7" type="curve" smooth="yes"/>
      <point x="551" y="-7"/>
      <point x="672" y="74"/>
      <point x="672" y="210" type="curve" smooth="yes"/>
      <point x="672" y="271"/>
      <point x="639" y="346"/>
      <point x="499" y="372" type="curve"/>
      <point x="501" y="378" type="line"/>
      <point x="625" y="395"/>
      <point x="708" y="456"/>
      <point x="708" y="571" type="curve" smooth="yes"/>
      <point x="708" y="674"/>
      <point x="599" y="738"/>
      <point x="425" y="738" type="curve" smooth="yes"/>
      <point x="275" y="738"/>
      <point x="117" y="687"/>
      <point x="117" y="537" type="curve" smooth="yes"/>
      <point x="117" y="465"/>
      <point x="167" y="409"/>
      <point x="270" y="386" type="curve"/>
      <point x="270" y="380" type="line"/>
      <point x="147" y="367"/>
      <point x="40" y="299"/>
      <point x="40" y="180" type="curve" smooth="yes"/>
      <point x="40" y="62"/>
      <point x="154" y="-7"/>
    </contour>
    <contour>
      <point x="351" y="29" type="curve" smooth="yes"/>
      <point x="225" y="29"/>
      <point x="66" y="63"/>
      <point x="84" y="188" type="curve" smooth="yes"/>
      <point x="89" y="220" type="line" smooth="yes"/>
      <point x="107" y="331"/>
      <point x="231" y="364"/>
      <point x="365" y="364" type="curve" smooth="yes"/>
      <point x="492" y="364"/>
      <point x="644" y="328"/>
      <point x="626" y="202" type="curve" smooth="yes"/>
      <point x="621" y="169" type="line" smooth="yes"/>
      <point x="607" y="81"/>
      <point x="507" y="29"/>
    </contour>
    <contour>
      <point x="405" y="393" type="curve" smooth="yes"/>
      <point x="220" y="393"/>
      <point x="150" y="469"/>
      <point x="161" y="539" type="curve" smooth="yes"/>
      <point x="166" y="572" type="line" smooth="yes"/>
      <point x="178" y="654"/>
      <point x="273" y="702"/>
      <point x="421" y="702" type="curve" smooth="yes"/>
      <point x="587" y="702"/>
      <point x="678" y="647"/>
      <point x="664" y="555" type="curve" smooth="yes"/>
      <point x="659" y="521" type="line" smooth="yes"/>
      <point x="645" y="427"/>
      <point x="520" y="393"/>
    </contour>
  </outline>
</glyph>
<glyph name="equal" format="2">
  <advance width="720"/>
  <unicode hex="003D"/>
  <anchor x="382" y="361" name="center"/>
  <outline>
    <contour>
      <point x="152" y="458" type="line"/>
      <point x="654" y="458" type="line"/>
      <point x="661" y="492" type="line"/>
      <point x="159" y="492" type="line"/>
    </contour>
    <contour>
      <point x="105" y="238" type="line"/>
      <point x="607" y="238" type="line"/>
      <point x="614" y="272" type="line"/>
      <point x="112" y="272" type="line"/>
    </contour>
  </outline>
</glyph>
<glyph name="greater" format="2">
  <advance width="720"/>
  <unicode hex="003E"/>
  <outline>
    <contour>
      <point x="57" y="121" type="line"/>
      <point x="637" y="342" type="line"/>
      <point x="646" y="387" type="line"/>
      <point x="160" y="609" type="line"/>
      <point x="152" y="570" type="line"/>
      <point x="601" y="369" type="line"/>
      <point x="601" y="365" type="line"/>
      <point x="66" y="165" type="line"/>
    </contour>
  </outline>
</glyph>
<glyph name="question" format="2">
  <advance width="556"/>
  <unicode hex="003F"/>
  <outline>
    <contour>
      <point x="233" y="168" type="line"/>
      <point x="268" y="168" type="line"/>
      <point x="271" y="180" type="line" smooth="yes"/>
      <point x="304" y="311"/>
      <point x="536" y="322"/>
      <point x="565" y="511" type="curve" smooth="yes"/>
      <point x="586" y="648"/>
      <point x="481" y="738"/>
      <point x="338" y="738" type="curve" smooth="yes"/>
      <point x="211" y="738"/>
      <point x="122" y="675"/>
      <point x="96" y="563" type="curve"/>
      <point x="133" y="563" type="line"/>
      <point x="154" y="651"/>
      <point x="226" y="703"/>
      <point x="335" y="703" type="curve" smooth="yes"/>
      <point x="471" y="703"/>
      <point x="547" y="624"/>
      <point x="525" y="506" type="curve" smooth="yes"/>
      <point x="494" y="339"/>
      <point x="276" y="339"/>
      <point x="237" y="184" type="curve" smooth="yes"/>
    </contour>
    <contour>
      <point x="196" y="0" type="line"/>
      <point x="241" y="0" type="line"/>
      <point x="254" y="62" type="line"/>
      <point x="209" y="62" type="line"/>
    </contour>
  </outline>
</glyph>
<glyph name="at" format="2">
  <advance width="996"/>
  <unicode hex="0040"/>
  <outline>
    <contour>
      <point x="519" y="-101" type="curve" smooth="yes"/>
      <point x="604" y="-101"/>
      <point x="720" y="-78"/>
      <point x="786" y="-30" type="curve"/>
      <point x="769" y="0" type="line"/>
      <point x="709" y="-42"/>
      <point x="620" y="-67"/>
      <point x="513" y="-67" type="curve" smooth="yes"/>
      <point x="264" y="-67"/>
      <point x="101" y="72"/>
      <point x="101" y="314" type="curve" smooth="yes"/>
      <point x="101" y="547"/>
      <point x="268" y="704"/>
      <point x="522" y="704" type="curve" smooth="yes"/>
      <point x="766" y="704"/>
      <point x="934" y="567"/>
      <point x="934" y="365" type="curve" smooth="yes"/>
      <point x="934" y="228"/>
      <point x="868" y="135"/>
      <point x="772" y="135" type="curve" smooth="yes"/>
      <point x="707" y="135"/>
      <point x="670" y="168"/>
      <point x="677" y="268" type="curve" smooth="yes"/>
      <point x="696" y="504" type="line"/>
      <point x="661" y="504" type="line"/>
      <point x="652" y="411" type="line"/>
      <point x="649" y="411" type="line"/>
      <point x="631" y="474"/>
      <point x="568" y="516"/>
      <point x="493" y="516" type="curve" smooth="yes"/>
      <point x="376" y="516"/>
      <point x="298" y="426"/>
      <point x="298" y="296" type="curve" smooth="yes"/>
      <point x="298" y="164"/>
      <point x="387" y="106"/>
      <point x="477" y="106" type="curve" smooth="yes"/>
      <point x="545" y="106"/>
      <point x="617" y="141"/>
      <point x="645" y="222" type="curve"/>
      <point x="648" y="222" type="line"/>
      <point x="648" y="151"/>
      <point x="692" y="105"/>
      <point x="772" y="105" type="curve" smooth="yes"/>
      <point x="890" y="105"/>
      <point x="969" y="210"/>
      <point x="969" y="367" type="curve" smooth="yes"/>
      <point x="969" y="589"/>
      <point x="779" y="738"/>
      <point x="524" y="738" type="curve" smooth="yes"/>
      <point x="249" y="738"/>
      <point x="64" y="567"/>
      <point x="64" y="312" type="curve" smooth="yes"/>
      <point x="64" y="64"/>
      <point x="232" y="-101"/>
    </contour>
    <contour>
      <point x="480" y="138" type="curve" smooth="yes"/>
      <point x="393" y="138"/>
      <point x="335" y="195"/>
      <point x="335" y="296" type="curve" smooth="yes"/>
      <point x="335" y="410"/>
      <point x="395" y="487"/>
      <point x="500" y="487" type="curve" smooth="yes"/>
      <point x="587" y="487"/>
      <point x="646" y="423"/>
      <point x="650" y="323" type="curve"/>
      <point x="644" y="212"/>
      <point x="587" y="138"/>
    </contour>
  </outline>
</glyph>
<glyph name="A" format="2">
  <advance width="906"/>
  <unicode hex="0041"/>
  <note>
A
</note>
  <anchor x="773" y="0" name="#exit"/>
  <anchor x="408" y="0" name="bottom"/>
  <anchor x="815" y="0" name="ogonek"/>
  <anchor x="551" y="729" name="top"/>
  <outline>
    <contour>
      <point x="-19" y="0" type="line"/>
      <point x="28" y="0" type="line"/>
      <point x="524" y="665" type="line"/>
      <point x="542" y="691" type="line"/>
      <point x="548" y="691" type="line"/>
      <point x="557" y="665" type="line"/>
      <point x="773" y="0" type="line"/>
      <point x="815" y="0" type="line"/>
      <point x="576" y="729" type="line"/>
      <point x="525" y="729" type="line"/>
    </contour>
    <contour>
      <point x="174" y="209" type="line"/>
      <point x="714" y="209" type="line"/>
      <point x="702" y="247" type="line"/>
      <point x="200" y="247" type="line"/>
    </contour>
  </outline>
</glyph>
<glyph name="B" format="2">
  <advance width="813"/>
  <unicode hex="0042"/>
  <note>
B
</note>
  <anchor x="364" y="0" name="bottom"/>
  <anchor x="519" y="729" name="top"/>
  <outline>
    <contour>
      <point x="25" y="0" type="line"/>
      <point x="498" y="0" type="line" smooth="yes"/>
      <point x="655" y="0"/>
      <point x="749" y="75"/>
      <point x="754" y="209" type="curve" smooth="yes"/>
      <point x="757" y="288"/>
      <point x="707" y="350"/>
      <point x="629" y="369" type="curve"/>
      <point x="629" y="373" type="line"/>
      <point x="720" y="397"/>
      <point x="783" y="461"/>
      <point x="786" y="564" type="curve" smooth="yes"/>
      <point x="790" y="675"/>
      <point x="711" y="729"/>
      <point x="604" y="729" type="curve" smooth="yes"/>
      <point x="178" y="729" type="line"/>
    </contour>
    <contour>
      <point x="74" y="38" type="line"/>
      <point x="212" y="691" type="line"/>
      <point x="594" y="691" type="line" smooth="yes"/>
      <point x="704" y="691"/>
      <point x="757" y="636"/>
      <point x="738" y="543" type="curve" smooth="yes"/>
      <point x="731" y="508" type="line" smooth="yes"/>
      <point x="715" y="432"/>
      <point x="633" y="388"/>
      <point x="552" y="388" type="curve" smooth="yes"/>
      <point x="138" y="388" type="line"/>
      <point x="131" y="351" type="line"/>
      <point x="548" y="351" type="line" smooth="yes"/>
      <point x="672" y="351"/>
      <point x="726" y="288"/>
      <point x="708" y="195" type="curve" smooth="yes"/>
      <point x="702" y="165" type="line" smooth="yes"/>
      <point x="686" y="84"/>
      <point x="616" y="38"/>
      <point x="497" y="38" type="curve" smooth="yes"/>
    </contour>
  </outline>
</glyph>
<glyph name="C" format="2">
  <advance width="873"/>
  <unicode hex="0043"/>
  <note>
C
</note>
  <anchor x="454" y="0" name="bottom"/>
  <anchor x="508" y="729" name="top"/>
  <outline>
    <contour>
      <point x="455" y="-10" type="curve" smooth="yes"/>
      <point x="618" y="-10"/>
      <point x="765" y="68"/>
      <point x="819" y="187" type="curve"/>
      <point x="778" y="187" type="line"/>
      <point x="726" y="92"/>
      <point x="605" y="27"/>
      <point x="459" y="27" type="curve" smooth="yes"/>
      <point x="224" y="27"/>
      <point x="80" y="176"/>
      <point x="125" y="399" type="curve" smooth="yes"/>
      <point x="136" y="453" type="line" smooth="yes"/>
      <point x="166" y="603"/>
      <point x="301" y="702"/>
      <point x="503" y="702" type="curve" smooth="yes"/>
      <point x="672" y="702"/>
      <point x="795" y="624"/>
      <point x="821" y="486" type="curve"/>
      <point x="862" y="486" type="line"/>
      <point x="833" y="639"/>
      <point x="698" y="739"/>
      <point x="504" y="739" type="curve" smooth="yes"/>
      <point x="290" y="739"/>
      <point x="133" y="632"/>
      <point x="90" y="446" type="curve" smooth="yes"/>
      <point x="87" y="433" type="line" smooth="yes"/>
      <point x="24" y="162"/>
      <point x="206" y="-10"/>
    </contour>
  </outline>
</glyph>
<glyph name="D" format="2">
  <advance width="872"/>
  <unicode hex="0044"/>
  <note>
D
</note>
  <anchor x="390" y="0" name="bottom"/>
  <anchor x="163" y="365" name="center"/>
  <anchor x="545" y="729" name="top"/>
  <outline>
    <contour>
      <point x="26" y="0" type="line"/>
      <point x="386" y="0" type="line" smooth="yes"/>
      <point x="629" y="0"/>
      <point x="793" y="105"/>
      <point x="834" y="320" type="curve" smooth="yes"/>
      <point x="838" y="341" type="line" smooth="yes"/>
      <point x="882" y="574"/>
      <point x="771" y="729"/>
      <point x="506" y="729" type="curve" smooth="yes"/>
      <point x="178" y="729" type="line"/>
    </contour>
    <contour>
      <point x="72" y="20" type="line"/>
      <point x="216" y="709" type="line"/>
      <point x="193" y="690" type="line"/>
      <point x="523" y="690" type="line" smooth="yes"/>
      <point x="726" y="690"/>
      <point x="837" y="577"/>
      <point x="797" y="367" type="curve" smooth="yes"/>
      <point x="786" y="309" type="line" smooth="yes"/>
      <point x="752" y="131"/>
      <point x="607" y="39"/>
      <point x="395" y="39" type="curve" smooth="yes"/>
      <point x="57" y="39" type="line"/>
    </contour>
  </outline>
</glyph>
<glyph name="E" format="2">
  <advance width="764"/>
  <unicode hex="0045"/>
  <note>
E
</note>
  <anchor x="25" y="0" name="#entry"/>
  <anchor x="337" y="0" name="bottom"/>
  <anchor x="669" y="0" name="ogonek"/>
  <anchor x="492" y="729" name="top"/>
  <anchor x="152" y="729" name="topleft"/>
  <outline>
    <contour>
      <point x="26" y="0" type="line"/>
      <point x="669" y="0" type="line"/>
      <point x="676" y="39" type="line"/>
      <point x="76" y="39" type="line"/>
      <point x="212" y="690" type="line"/>
      <point x="814" y="690" type="line"/>
      <point x="822" y="729" type="line"/>
      <point x="178" y="729" type="line"/>
    </contour>
    <contour>
      <point x="133" y="357" type="line"/>
      <point x="584" y="357" type="line"/>
      <point x="591" y="394" type="line"/>
      <point x="141" y="394" type="line"/>
    </contour>
  </outline>
</glyph>
<glyph name="F" format="2">
  <advance width="746"/>
  <unicode hex="0046"/>
  <note>
F
</note>
  <anchor x="314" y="0" name="bottom"/>
  <anchor x="469" y="729" name="top"/>
  <outline>
    <contour>
      <point x="25" y="0" type="line"/>
      <point x="67" y="0" type="line"/>
      <point x="212" y="690" type="line"/>
      <point x="801" y="690" type="line"/>
      <point x="809" y="729" type="line"/>
      <point x="178" y="729" type="line"/>
    </contour>
    <contour>
      <point x="128" y="339" type="line"/>
      <point x="673" y="339" type="line"/>
      <point x="681" y="377" type="line"/>
      <point x="135" y="377" type="line"/>
    </contour>
  </outline>
</glyph>
<glyph name="G" format="2">
  <advance width="894"/>
  <unicode hex="0047"/>
  <note>
G
</note>
  <anchor x="453" y="0" name="bottom"/>
  <anchor x="512" y="729" name="top"/>
  <outline>
    <contour>
      <point x="455" y="-10" type="curve" smooth="yes"/>
      <point x="584" y="-10"/>
      <point x="700" y="40"/>
      <point x="768" y="121" type="curve"/>
      <point x="770" y="121" type="line"/>
      <point x="749" y="0" type="line"/>
      <point x="780" y="0" type="line"/>
      <point x="856" y="360" type="line"/>
      <point x="470" y="360" type="line"/>
      <point x="462" y="322" type="line"/>
      <point x="807" y="322" type="line"/>
      <point x="779" y="186" type="line"/>
      <point x="726" y="92"/>
      <point x="605" y="27"/>
      <point x="459" y="27" type="curve" smooth="yes"/>
      <point x="224" y="27"/>
      <point x="80" y="176"/>
      <point x="125" y="399" type="curve" smooth="yes"/>
      <point x="136" y="453" type="line" smooth="yes"/>
      <point x="166" y="603"/>
      <point x="301" y="702"/>
      <point x="506" y="702" type="curve" smooth="yes"/>
      <point x="675" y="702"/>
      <point x="798" y="624"/>
      <point x="824" y="486" type="curve"/>
      <point x="865" y="486" type="line"/>
      <point x="836" y="639"/>
      <point x="701" y="739"/>
      <point x="507" y="739" type="curve" smooth="yes"/>
      <point x="290" y="739"/>
      <point x="133" y="632"/>
      <point x="90" y="446" type="curve" smooth="yes"/>
      <point x="87" y="433" type="line" smooth="yes"/>
      <point x="24" y="162"/>
      <point x="206" y="-10"/>
    </contour>
  </outline>
</glyph>
<glyph name="H" format="2">
  <advance width="906"/>
  <unicode hex="0048"/>
  <note>
H
</note>
  <anchor x="409" y="0" name="bottom"/>
  <anchor x="524" y="595" name="center"/>
  <anchor x="564" y="729" name="top"/>
  <anchor x="147" y="729" name="topleft"/>
  <outline>
    <contour>
      <point x="26" y="0" type="line"/>
      <point x="68" y="0" type="line"/>
      <point x="220" y="729" type="line"/>
      <point x="178" y="729" type="line"/>
    </contour>
    <contour>
      <point x="731" y="0" type="line"/>
      <point x="773" y="0" type="line"/>
      <point x="925" y="729" type="line"/>
      <point x="883" y="729" type="line"/>
    </contour>
    <contour>
      <point x="131" y="350" type="line"/>
      <point x="816" y="350" type="line"/>
      <point x="823" y="389" type="line"/>
      <point x="138" y="389" type="line"/>
    </contour>
  </outline>
</glyph>
<glyph name="I" format="2">
  <advance width="643"/>
  <unicode hex="0049"/>
  <note>
I
</note>
  <anchor x="267" y="0" name="bottom"/>
  <anchor x="547" y="0" name="ogonek"/>
  <anchor x="422" y="729" name="top"/>
  <anchor x="701" y="729" name="topleft"/>
  <outline>
    <contour>
      <point x="252" y="29" type="line"/>
      <point x="294" y="29" type="line"/>
      <point x="436" y="700" type="line"/>
      <point x="394" y="700" type="line"/>
    </contour>
    <contour>
      <point x="-13" y="0" type="line"/>
      <point x="547" y="0" type="line"/>
      <point x="555" y="39" type="line"/>
      <point x="-5" y="39" type="line"/>
    </contour>
    <contour>
      <point x="133" y="690" type="line"/>
      <point x="693" y="690" type="line"/>
      <point x="701" y="729" type="line"/>
      <point x="141" y="729" type="line"/>
    </contour>
  </outline>
</glyph>
<glyph name="J" format="2">
  <advance width="409"/>
  <unicode hex="004A"/>
  <note>
J
</note>
  <anchor x="159" y="0" name="bottom"/>
  <anchor x="409" y="729" name="top"/>
  <outline>
    <contour>
      <point x="-18" y="0" type="line"/>
      <point x="225" y="0" type="line" smooth="yes"/>
      <point x="252" y="0"/>
      <point x="280" y="15"/>
      <point x="286" y="46" type="curve" smooth="yes"/>
      <point x="430" y="729" type="line"/>
      <point x="388" y="729" type="line"/>
      <point x="242" y="39" type="line"/>
      <point x="-10" y="39" type="line"/>
    </contour>
  </outline>
</glyph>
<glyph name="K" format="2">
  <advance width="806"/>
  <unicode hex="004B"/>
  <note>
K
</note>
  <anchor x="341" y="0" name="bottom"/>
  <anchor x="496" y="729" name="top"/>
  <outline>
    <contour>
      <point x="25" y="0" type="line"/>
      <point x="67" y="0" type="line"/>
      <point x="125" y="277" type="line"/>
      <point x="316" y="396" type="line"/>
      <point x="660" y="0" type="line"/>
      <point x="715" y="0" type="line"/>
      <point x="351" y="418" type="line"/>
      <point x="853" y="729" type="line"/>
      <point x="781" y="729" type="line"/>
      <point x="134" y="327" type="line"/>
      <point x="220" y="729" type="line"/>
      <point x="178" y="729" type="line"/>
    </contour>
  </outline>
</glyph>
<glyph name="L" format="2">
  <advance width="710"/>
  <unicode hex="004C"/>
  <note>
L
</note>
  <anchor x="322" y="0" name="bottom"/>
  <anchor x="122" y="365" name="center"/>
  <anchor x="199" y="729" name="top"/>
  <anchor x="350" y="729" name="topright"/>
  <outline>
    <contour>
      <point x="26" y="0" type="line"/>
      <point x="618" y="0" type="line"/>
      <point x="625" y="39" type="line"/>
      <point x="76" y="39" type="line"/>
      <point x="220" y="729" type="line"/>
      <point x="178" y="729" type="line"/>
    </contour>
  </outline>
</glyph>
<glyph name="M" format="2">
  <advance width="1028"/>
  <unicode hex="004D"/>
  <note>
M
</note>
  <anchor x="458" y="0" name="bottom"/>
  <anchor x="613" y="729" name="top"/>
  <outline>
    <contour>
      <point x="25" y="0" type="line"/>
      <point x="67" y="0" type="line"/>
      <point x="194" y="607" type="line"/>
      <point x="209" y="676" type="line"/>
      <point x="217" y="676" type="line"/>
      <point x="234" y="619" type="line"/>
      <point x="437" y="0" type="line"/>
      <point x="482" y="0" type="line"/>
      <point x="943" y="615" type="line"/>
      <point x="988" y="676" type="line"/>
      <point x="995" y="676" type="line"/>
      <point x="980" y="606" type="line"/>
      <point x="853" y="0" type="line"/>
      <point x="895" y="0" type="line"/>
      <point x="1048" y="729" type="line"/>
      <point x="979" y="729" type="line"/>
      <point x="517" y="114" type="line"/>
      <point x="469" y="51" type="line"/>
      <point x="462" y="51" type="line"/>
      <point x="443" y="114" type="line"/>
      <point x="239" y="729" type="line"/>
      <point x="178" y="729" type="line"/>
    </contour>
  </outline>
</glyph>
<glyph name="N" format="2">
  <advance width="891"/>
  <unicode hex="004E"/>
  <note>
N
</note>
  <anchor x="401" y="0" name="bottom"/>
  <anchor x="556" y="729" name="top"/>
  <outline>
    <contour>
      <point x="25" y="0" type="line"/>
      <point x="67" y="0" type="line"/>
      <point x="209" y="680" type="line"/>
      <point x="216" y="680" type="line"/>
      <point x="227" y="663" type="line"/>
      <point x="706" y="0" type="line"/>
      <point x="758" y="0" type="line"/>
      <point x="911" y="729" type="line"/>
      <point x="869" y="729" type="line"/>
      <point x="727" y="49" type="line"/>
      <point x="720" y="49" type="line"/>
      <point x="705" y="71" type="line"/>
      <point x="231" y="729" type="line"/>
      <point x="178" y="729" type="line"/>
    </contour>
  </outline>
</glyph>
<glyph name="O" format="2">
  <advance width="904"/>
  <unicode hex="004F"/>
  <note>
O
</note>
  <anchor x="450" y="0" name="bottom"/>
  <anchor x="475" y="365" name="center"/>
  <anchor x="768" y="10" name="ogonek"/>
  <anchor x="499" y="729" name="top"/>
  <anchor x="137" y="729" name="topleft"/>
  <anchor x="656" y="709" name="topright"/>
  <outline>
    <contour>
      <point x="455" y="-10" type="curve" smooth="yes"/>
      <point x="659" y="-10"/>
      <point x="816" y="97"/>
      <point x="859" y="283" type="curve" smooth="yes"/>
      <point x="862" y="296" type="line" smooth="yes"/>
      <point x="925" y="568"/>
      <point x="743" y="739"/>
      <point x="494" y="739" type="curve" smooth="yes"/>
      <point x="290" y="739"/>
      <point x="133" y="632"/>
      <point x="90" y="446" type="curve" smooth="yes"/>
      <point x="87" y="433" type="line" smooth="yes"/>
      <point x="24" y="162"/>
      <point x="206" y="-10"/>
    </contour>
    <contour>
      <point x="456" y="27" type="curve" smooth="yes"/>
      <point x="224" y="27"/>
      <point x="80" y="176"/>
      <point x="125" y="399" type="curve" smooth="yes"/>
      <point x="136" y="453" type="line" smooth="yes"/>
      <point x="167" y="603"/>
      <point x="301" y="702"/>
      <point x="493" y="702" type="curve" smooth="yes"/>
      <point x="725" y="702"/>
      <point x="869" y="553"/>
      <point x="824" y="330" type="curve" smooth="yes"/>
      <point x="813" y="276" type="line" smooth="yes"/>
      <point x="782" y="126"/>
      <point x="648" y="27"/>
    </contour>
  </outline>
</glyph>
<glyph name="P" format="2">
  <advance width="729"/>
  <unicode hex="0050"/>
  <note>
P
</note>
  <anchor x="315" y="0" name="bottom"/>
  <anchor x="470" y="729" name="top"/>
  <outline>
    <contour>
      <point x="25" y="0" type="line"/>
      <point x="67" y="0" type="line"/>
      <point x="212" y="691" type="line"/>
      <point x="548" y="691" type="line" smooth="yes"/>
      <point x="662" y="691"/>
      <point x="717" y="622"/>
      <point x="695" y="518" type="curve" smooth="yes"/>
      <point x="689" y="489" type="line" smooth="yes"/>
      <point x="673" y="414"/>
      <point x="602" y="364"/>
      <point x="484" y="364" type="curve" smooth="yes"/>
      <point x="134" y="364" type="line"/>
      <point x="125" y="326" type="line"/>
      <point x="482" y="326" type="line" smooth="yes"/>
      <point x="621" y="326"/>
      <point x="719" y="393"/>
      <point x="738" y="513" type="curve" smooth="yes"/>
      <point x="759" y="646"/>
      <point x="679" y="729"/>
      <point x="547" y="729" type="curve" smooth="yes"/>
      <point x="178" y="729" type="line"/>
    </contour>
  </outline>
</glyph>
<glyph name="R" format="2">
  <advance width="803"/>
  <unicode hex="0052"/>
  <note>
R
</note>
  <anchor x="362" y="0" name="bottom"/>
  <anchor x="438" y="729" name="top"/>
  <outline>
    <contour>
      <point x="25" y="0" type="line"/>
      <point x="67" y="0" type="line"/>
      <point x="212" y="691" type="line"/>
      <point x="598" y="691" type="line" smooth="yes"/>
      <point x="712" y="691"/>
      <point x="767" y="622"/>
      <point x="745" y="518" type="curve" smooth="yes"/>
      <point x="739" y="489" type="line" smooth="yes"/>
      <point x="723" y="414"/>
      <point x="652" y="364"/>
      <point x="534" y="364" type="curve" smooth="yes"/>
      <point x="134" y="364" type="line"/>
      <point x="126" y="326" type="line"/>
      <point x="421" y="326" type="line"/>
      <point x="660" y="0" type="line"/>
      <point x="710" y="0" type="line"/>
      <point x="461" y="337" type="line"/>
      <point x="461" y="326" type="line"/>
      <point x="532" y="326" type="line" smooth="yes"/>
      <point x="671" y="326"/>
      <point x="769" y="393"/>
      <point x="788" y="513" type="curve" smooth="yes"/>
      <point x="809" y="646"/>
      <point x="729" y="729"/>
      <point x="597" y="729" type="curve" smooth="yes"/>
      <point x="178" y="729" type="line"/>
    </contour>
  </outline>
</glyph>
<glyph name="S" format="2">
  <advance width="777"/>
  <unicode hex="0053"/>
  <note>
S
</note>
  <anchor x="371" y="0" name="bottom"/>
  <anchor x="470" y="729" name="top"/>
  <outline>
    <contour>
      <point x="400" y="-7" type="curve" smooth="yes"/>
      <point x="578" y="-7"/>
      <point x="712" y="52"/>
      <point x="712" y="191" type="curve" smooth="yes"/>
      <point x="712" y="297"/>
      <point x="624" y="340"/>
      <point x="505" y="371" type="curve" smooth="yes"/>
      <point x="341" y="413" type="line" smooth="yes"/>
      <point x="240" y="439"/>
      <point x="175" y="473"/>
      <point x="175" y="548" type="curve" smooth="yes"/>
      <point x="175" y="643"/>
      <point x="267" y="701"/>
      <point x="428" y="701" type="curve" smooth="yes"/>
      <point x="593" y="701"/>
      <point x="713" y="641"/>
      <point x="732" y="516" type="curve"/>
      <point x="773" y="516" type="line"/>
      <point x="758" y="651"/>
      <point x="633" y="737"/>
      <point x="427" y="737" type="curve" smooth="yes"/>
      <point x="271" y="737"/>
      <point x="131" y="678"/>
      <point x="131" y="544" type="curve" smooth="yes"/>
      <point x="131" y="446"/>
      <point x="214" y="403"/>
      <point x="324" y="375" type="curve" smooth="yes"/>
      <point x="494" y="332" type="line" smooth="yes"/>
      <point x="607" y="303"/>
      <point x="669" y="268"/>
      <point x="669" y="187" type="curve" smooth="yes"/>
      <point x="669" y="66"/>
      <point x="549" y="29"/>
      <point x="407" y="29" type="curve" smooth="yes"/>
      <point x="220" y="29"/>
      <point x="80" y="94"/>
      <point x="73" y="214" type="curve"/>
      <point x="32" y="214" type="line"/>
      <point x="40" y="85"/>
      <point x="179" y="-7"/>
    </contour>
  </outline>
</glyph>
<glyph name="T" format="2">
  <advance width="795"/>
  <unicode hex="0054"/>
  <note>
T
</note>
  <anchor x="346" y="0" name="bottom"/>
  <anchor x="423" y="365" name="center"/>
  <anchor x="500" y="729" name="top"/>
  <outline>
    <contour>
      <point x="324" y="0" type="line"/>
      <point x="366" y="0" type="line"/>
      <point x="511" y="690" type="line"/>
      <point x="850" y="690" type="line"/>
      <point x="857" y="729" type="line"/>
      <point x="137" y="729" type="line"/>
      <point x="130" y="690" type="line"/>
      <point x="469" y="690" type="line"/>
    </contour>
  </outline>
</glyph>
<glyph name="U" format="2">
  <advance width="883"/>
  <unicode hex="0055"/>
  <note>
U
</note>
  <anchor x="394" y="0" name="bottom"/>
  <anchor x="474" y="0" name="ogonek"/>
  <anchor x="539" y="729" name="top"/>
  <anchor x="870" y="729" name="topright"/>
  <outline>
    <contour>
      <point x="420" y="-10" type="curve" smooth="yes"/>
      <point x="630" y="-10"/>
      <point x="770" y="64"/>
      <point x="809" y="247" type="curve" smooth="yes"/>
      <point x="912" y="729" type="line"/>
      <point x="870" y="729" type="line"/>
      <point x="768" y="253" type="line" smooth="yes"/>
      <point x="738" y="113"/>
      <point x="639" y="29"/>
      <point x="426" y="29" type="curve" smooth="yes"/>
      <point x="210" y="29"/>
      <point x="79" y="128"/>
      <point x="124" y="337" type="curve" smooth="yes"/>
      <point x="208" y="729" type="line"/>
      <point x="166" y="729" type="line"/>
      <point x="82" y="340" type="line" smooth="yes"/>
      <point x="35" y="120"/>
      <point x="181" y="-10"/>
    </contour>
  </outline>
</glyph>
<glyph name="V" format="2">
  <advance width="905"/>
  <unicode hex="0056"/>
  <note>
V
</note>
  <anchor x="410" y="0" name="bottom"/>
  <anchor x="565" y="729" name="top"/>
  <outline>
    <contour>
      <point x="374" y="0" type="line"/>
      <point x="425" y="0" type="line"/>
      <point x="969" y="729" type="line"/>
      <point x="922" y="729" type="line"/>
      <point x="445" y="91" type="line"/>
      <point x="407" y="42" type="line"/>
      <point x="399" y="42" type="line"/>
      <point x="383" y="91" type="line"/>
      <point x="176" y="729" type="line"/>
      <point x="136" y="729" type="line"/>
    </contour>
  </outline>
</glyph>
<glyph name="W" format="2">
  <advance width="1178"/>
  <unicode hex="0057"/>
  <note>
W
</note>
  <anchor x="548" y="0" name="bottom"/>
  <anchor x="703" y="729" name="top"/>
  <outline>
    <contour>
      <point x="238" y="0" type="line"/>
      <point x="293" y="0" type="line"/>
      <point x="650" y="634" type="line"/>
      <point x="677" y="687" type="line"/>
      <point x="684" y="687" type="line"/>
      <point x="690" y="634" type="line"/>
      <point x="779" y="0" type="line"/>
      <point x="833" y="0" type="line"/>
      <point x="1241" y="729" type="line"/>
      <point x="1198" y="729" type="line"/>
      <point x="845" y="95" type="line"/>
      <point x="821" y="49" type="line"/>
      <point x="813" y="49" type="line"/>
      <point x="808" y="95" type="line"/>
      <point x="717" y="729" type="line"/>
      <point x="661" y="729" type="line"/>
      <point x="304" y="95" type="line"/>
      <point x="279" y="49" type="line"/>
      <point x="271" y="49" type="line"/>
      <point x="266" y="95" type="line"/>
      <point x="179" y="729" type="line"/>
      <point x="137" y="729" type="line"/>
    </contour>
  </outline>
</glyph>
<glyph name="X" format="2">
  <advance width="859"/>
  <unicode hex="0058"/>
  <note>
X
</note>
  <anchor x="385" y="0" name="bottom"/>
  <anchor x="540" y="729" name="top"/>
  <outline>
    <contour>
      <point x="-20" y="0" type="line"/>
      <point x="39" y="0" type="line"/>
      <point x="447" y="353" type="line"/>
      <point x="456" y="353" type="line"/>
      <point x="718" y="0" type="line"/>
      <point x="769" y="0" type="line"/>
      <point x="486" y="379" type="line"/>
      <point x="890" y="729" type="line"/>
      <point x="832" y="729" type="line"/>
      <point x="461" y="407" type="line"/>
      <point x="451" y="407" type="line"/>
      <point x="215" y="729" type="line"/>
      <point x="167" y="729" type="line"/>
      <point x="422" y="381" type="line"/>
    </contour>
  </outline>
</glyph>
<glyph name="Y" format="2">
  <advance width="792"/>
  <unicode hex="0059"/>
  <note>
Y
</note>
  <anchor x="342" y="0" name="bottom"/>
  <anchor x="492" y="729" name="top"/>
  <anchor x="170" y="729" name="topleft"/>
  <outline>
    <contour>
      <point x="321" y="0" type="line"/>
      <point x="362" y="0" type="line"/>
      <point x="425" y="300" type="line"/>
      <point x="857" y="729" type="line"/>
      <point x="803" y="729" type="line"/>
      <point x="485" y="413" type="line"/>
      <point x="415" y="342" type="line"/>
      <point x="404" y="342" type="line"/>
      <point x="364" y="413" type="line"/>
      <point x="180" y="729" type="line"/>
      <point x="135" y="729" type="line"/>
      <point x="385" y="302" type="line"/>
    </contour>
  </outline>
</glyph>
<glyph name="Z" format="2">
  <advance width="790"/>
  <unicode hex="005A"/>
  <note>
Z
</note>
  <anchor x="339" y="0" name="bottom"/>
  <anchor x="417" y="365" name="center"/>
  <anchor x="494" y="729" name="top"/>
  <outline>
    <contour>
      <point x="-15" y="0" type="line"/>
      <point x="696" y="0" type="line"/>
      <point x="704" y="39" type="line"/>
      <point x="52" y="39" type="line"/>
      <point x="827" y="690" type="line"/>
      <point x="835" y="729" type="line"/>
      <point x="158" y="729" type="line"/>
      <point x="149" y="690" type="line"/>
      <point x="766" y="690" type="line"/>
      <point x="-8" y="39" type="line"/>
    </contour>
  </outline>
</glyph>
<glyph name="bracketleft" format="2">
  <advance width="353"/>
  <unicode hex="005B"/>
  <outline>
    <contour>
      <point x="-10" y="-167" type="line"/>
      <point x="224" y="-167" type="line"/>
      <point x="231" y="-133" type="line"/>
      <point x="33" y="-133" type="line"/>
      <point x="223" y="758" type="line"/>
      <point x="421" y="758" type="line"/>
      <point x="428" y="793" type="line"/>
      <point x="194" y="793" type="line"/>
    </contour>
  </outline>
</glyph>
<glyph name="backslash" format="2">
  <advance width="482"/>
  <unicode hex="005C"/>
  <outline>
    <contour>
      <point x="371" y="-81" type="line"/>
      <point x="407" y="-81" type="line"/>
      <point x="164" y="729" type="line"/>
      <point x="131" y="729" type="line"/>
    </contour>
  </outline>
</glyph>
<glyph name="underscore" format="2">
  <advance width="367"/>
  <unicode hex="005F"/>
  <outline>
    <contour>
      <point x="-60" y="-36" type="line"/>
      <point x="302" y="-36" type="line"/>
      <point x="310" y="0" type="line"/>
      <point x="-52" y="0" type="line"/>
    </contour>
  </outline>
</glyph>
<glyph name="a" format="2">
  <advance width="649"/>
  <unicode hex="0061"/>
  <note>
a
</note>
  <anchor x="283" y="0" name="bottom"/>
  <anchor x="529" y="0" name="ogonek"/>
  <anchor x="363" y="516" name="top"/>
  <outline>
    <contour>
      <point x="295" y="-10" type="curve" smooth="yes"/>
      <point x="373" y="-10"/>
      <point x="457" y="20"/>
      <point x="504" y="72" type="curve"/>
      <point x="510" y="72" type="line"/>
      <point x="501" y="0" type="line"/>
      <point x="529" y="0" type="line"/>
      <point x="637" y="516" type="line"/>
      <point x="605" y="516" type="line"/>
      <point x="571" y="381" type="line"/>
      <point x="568" y="381" type="line"/>
      <point x="537" y="470"/>
      <point x="447" y="525"/>
      <point x="329" y="525" type="curve" smooth="yes"/>
      <point x="185" y="525"/>
      <point x="75" y="444"/>
      <point x="49" y="302" type="curve" smooth="yes"/>
      <point x="47" y="291" type="line" smooth="yes"/>
      <point x="15" y="114"/>
      <point x="120" y="-10"/>
    </contour>
    <contour>
      <point x="299" y="25" type="curve" smooth="yes"/>
      <point x="149" y="25"/>
      <point x="52" y="128"/>
      <point x="86" y="282" type="curve" smooth="yes"/>
      <point x="95" y="323" type="line" smooth="yes"/>
      <point x="117" y="423"/>
      <point x="203" y="489"/>
      <point x="329" y="489" type="curve" smooth="yes"/>
      <point x="443" y="489"/>
      <point x="534" y="430"/>
      <point x="559" y="324" type="curve"/>
      <point x="519" y="130" type="line"/>
      <point x="475" y="65"/>
      <point x="396" y="25"/>
    </contour>
  </outline>
</glyph>
<glyph name="c" format="2">
  <advance width="632"/>
  <unicode hex="0063"/>
  <note>
c
</note>
  <anchor x="309" y="0" name="bottom"/>
  <anchor x="359" y="516" name="top"/>
  <outline>
    <contour>
      <point x="312" y="-10" type="curve" smooth="yes"/>
      <point x="421" y="-10"/>
      <point x="538" y="47"/>
      <point x="581" y="151" type="curve"/>
      <point x="540" y="151" type="line"/>
      <point x="504" y="71"/>
      <point x="409" y="25"/>
      <point x="314" y="25" type="curve" smooth="yes"/>
      <point x="155" y="25"/>
      <point x="55" y="126"/>
      <point x="86" y="280" type="curve" smooth="yes"/>
      <point x="94" y="320" type="line" smooth="yes"/>
      <point x="115" y="422"/>
      <point x="207" y="489"/>
      <point x="342" y="489" type="curve" smooth="yes"/>
      <point x="454" y="489"/>
      <point x="538" y="440"/>
      <point x="562" y="355" type="curve"/>
      <point x="601" y="355" type="line"/>
      <point x="576" y="456"/>
      <point x="480" y="525"/>
      <point x="344" y="525" type="curve" smooth="yes"/>
      <point x="197" y="525"/>
      <point x="82" y="448"/>
      <point x="52" y="314" type="curve" smooth="yes"/>
      <point x="50" y="305" type="line" smooth="yes"/>
      <point x="7" y="111"/>
      <point x="136" y="-10"/>
    </contour>
  </outline>
</glyph>
<glyph name="d" format="2">
  <advance width="649"/>
  <unicode hex="0064"/>
  <note>
d
</note>
  <anchor x="283" y="0" name="bottom"/>
  <anchor x="570" y="616" name="center"/>
  <anchor x="453" y="800" name="top"/>
  <anchor x="682" y="729" name="topright"/>
  <outline>
    <contour>
      <point x="295" y="-10" type="curve" smooth="yes"/>
      <point x="373" y="-10"/>
      <point x="457" y="20"/>
      <point x="504" y="72" type="curve"/>
      <point x="510" y="72" type="line"/>
      <point x="501" y="0" type="line"/>
      <point x="529" y="0" type="line"/>
      <point x="682" y="729" type="line"/>
      <point x="644" y="729" type="line"/>
      <point x="571" y="381" type="line"/>
      <point x="568" y="381" type="line"/>
      <point x="537" y="470"/>
      <point x="447" y="525"/>
      <point x="329" y="525" type="curve" smooth="yes"/>
      <point x="185" y="525"/>
      <point x="75" y="444"/>
      <point x="49" y="302" type="curve" smooth="yes"/>
      <point x="47" y="291" type="line" smooth="yes"/>
      <point x="15" y="114"/>
      <point x="120" y="-10"/>
    </contour>
    <contour>
      <point x="299" y="25" type="curve" smooth="yes"/>
      <point x="149" y="25"/>
      <point x="52" y="128"/>
      <point x="86" y="282" type="curve" smooth="yes"/>
      <point x="95" y="323" type="line" smooth="yes"/>
      <point x="117" y="423"/>
      <point x="203" y="489"/>
      <point x="329" y="489" type="curve" smooth="yes"/>
      <point x="443" y="489"/>
      <point x="534" y="430"/>
      <point x="559" y="324" type="curve"/>
      <point x="518" y="129" type="line"/>
      <point x="474" y="64"/>
      <point x="395" y="25"/>
    </contour>
  </outline>
</glyph>
<glyph name="e" format="2">
  <advance width="645"/>
  <unicode hex="0065"/>
  <note>
e
</note>
  <anchor x="-15" y="0" name="#entry"/>
  <anchor x="310" y="0" name="bottom"/>
  <anchor x="416" y="0" name="ogonek"/>
  <anchor x="345" y="516" name="top"/>
  <outline>
    <contour>
      <point x="312" y="-10" type="curve" smooth="yes"/>
      <point x="435" y="-10"/>
      <point x="541" y="41"/>
      <point x="584" y="129" type="curve"/>
      <point x="542" y="129" type="line"/>
      <point x="508" y="67"/>
      <point x="418" y="25"/>
      <point x="315" y="25" type="curve" smooth="yes"/>
      <point x="155" y="25"/>
      <point x="55" y="126"/>
      <point x="86" y="280" type="curve" smooth="yes"/>
      <point x="94" y="320" type="line" smooth="yes"/>
      <point x="114" y="421"/>
      <point x="214" y="489"/>
      <point x="343" y="489" type="curve" smooth="yes"/>
      <point x="487" y="489"/>
      <point x="574" y="407"/>
      <point x="565" y="277" type="curve" smooth="yes"/>
      <point x="564" y="263" type="line"/>
      <point x="576" y="284" type="line"/>
      <point x="80" y="284" type="line"/>
      <point x="75" y="251" type="line"/>
      <point x="605" y="251" type="line"/>
      <point x="606" y="265" type="line" smooth="yes"/>
      <point x="617" y="426"/>
      <point x="507" y="525"/>
      <point x="344" y="525" type="curve" smooth="yes"/>
      <point x="197" y="525"/>
      <point x="82" y="448"/>
      <point x="52" y="314" type="curve" smooth="yes"/>
      <point x="50" y="305" type="line" smooth="yes"/>
      <point x="7" y="111"/>
      <point x="136" y="-10"/>
    </contour>
  </outline>
</glyph>
<glyph name="f" format="2">
  <advance width="363"/>
  <unicode hex="0066"/>
  <note>
f
</note>
  <anchor x="136" y="0" name="bottom"/>
  <anchor x="306" y="800" name="top"/>
  <outline>
    <contour>
      <point x="89" y="0" type="line"/>
      <point x="127" y="0" type="line"/>
      <point x="227" y="479" type="line"/>
      <point x="385" y="479" type="line"/>
      <point x="393" y="516" type="line"/>
      <point x="235" y="516" type="line"/>
      <point x="272" y="692" type="line"/>
      <point x="441" y="692" type="line"/>
      <point x="449" y="729" type="line"/>
      <point x="288" y="729" type="line" smooth="yes"/>
      <point x="260" y="729"/>
      <point x="239" y="718"/>
      <point x="233" y="689" type="curve" smooth="yes"/>
      <point x="197" y="516" type="line"/>
      <point x="80" y="516" type="line"/>
      <point x="73" y="479" type="line"/>
      <point x="189" y="479" type="line"/>
    </contour>
  </outline>
</glyph>
<glyph name="g" format="2">
  <advance width="633"/>
  <unicode hex="0067"/>
  <note>
g
</note>
  <anchor x="229" y="-200" name="bottom"/>
  <anchor x="350" y="516" name="top"/>
  <outline>
    <contour>
      <point x="249" y="-177" type="curve" smooth="yes"/>
      <point x="388" y="-177"/>
      <point x="486" y="-123"/>
      <point x="515" y="14" type="curve" smooth="yes"/>
      <point x="621" y="516" type="line"/>
      <point x="588" y="516" type="line"/>
      <point x="557" y="389" type="line"/>
      <point x="551" y="389" type="line"/>
      <point x="516" y="472"/>
      <point x="428" y="525"/>
      <point x="323" y="525" type="curve" smooth="yes"/>
      <point x="189" y="525"/>
      <point x="81" y="456"/>
      <point x="52" y="318" type="curve" smooth="yes"/>
      <point x="52" y="315" type="line" smooth="yes"/>
      <point x="16" y="144"/>
      <point x="113" y="12"/>
      <point x="288" y="12" type="curve" smooth="yes"/>
      <point x="364" y="12"/>
      <point x="443" y="40"/>
      <point x="489" y="91" type="curve"/>
      <point x="494" y="91" type="line"/>
      <point x="479" y="16" type="line" smooth="yes"/>
      <point x="460" y="-80"/>
      <point x="400" y="-145"/>
      <point x="256" y="-145" type="curve" smooth="yes"/>
      <point x="149" y="-145"/>
      <point x="73" y="-107"/>
      <point x="62" y="-40" type="curve"/>
      <point x="23" y="-40" type="line"/>
      <point x="34" y="-123"/>
      <point x="125" y="-177"/>
    </contour>
    <contour>
      <point x="294" y="48" type="curve" smooth="yes"/>
      <point x="146" y="48"/>
      <point x="57" y="150"/>
      <point x="89" y="292" type="curve" smooth="yes"/>
      <point x="97" y="328" type="line" smooth="yes"/>
      <point x="119" y="425"/>
      <point x="194" y="489"/>
      <point x="322" y="489" type="curve" smooth="yes"/>
      <point x="432" y="489"/>
      <point x="520" y="430"/>
      <point x="543" y="325" type="curve"/>
      <point x="506" y="147" type="line"/>
      <point x="464" y="86"/>
      <point x="387" y="48"/>
    </contour>
  </outline>
</glyph>
<glyph name="h" format="2">
  <advance width="619"/>
  <unicode hex="0068"/>
  <note>
h
</note>
  <anchor x="269" y="0" name="bottom"/>
  <anchor x="229" y="616" name="center"/>
  <anchor x="184" y="729" name="top"/>
  <outline>
    <contour>
      <point x="12" y="0" type="line"/>
      <point x="50" y="0" type="line"/>
      <point x="125" y="356" type="line"/>
      <point x="184" y="437"/>
      <point x="280" y="490"/>
      <point x="384" y="490" type="curve" smooth="yes"/>
      <point x="508" y="490"/>
      <point x="557" y="406"/>
      <point x="531" y="283" type="curve" smooth="yes"/>
      <point x="471" y="0" type="line"/>
      <point x="509" y="0" type="line"/>
      <point x="570" y="289" type="line" smooth="yes"/>
      <point x="598" y="426"/>
      <point x="535" y="526"/>
      <point x="392" y="526" type="curve" smooth="yes"/>
      <point x="298" y="526"/>
      <point x="202" y="483"/>
      <point x="139" y="412" type="curve"/>
      <point x="136" y="412" type="line"/>
      <point x="203" y="729" type="line"/>
      <point x="165" y="729" type="line"/>
    </contour>
  </outline>
</glyph>
<glyph name="k" format="2">
  <advance width="603"/>
  <unicode hex="006B"/>
  <note>
k
</note>
  <anchor x="241" y="0" name="bottom"/>
  <anchor x="411" y="800" name="top"/>
  <outline>
    <contour>
      <point x="12" y="0" type="line"/>
      <point x="50" y="0" type="line"/>
      <point x="203" y="729" type="line"/>
      <point x="165" y="729" type="line"/>
    </contour>
    <contour>
      <point x="477" y="0" type="line"/>
      <point x="522" y="0" type="line"/>
      <point x="313" y="323" type="line"/>
      <point x="283" y="304" type="line"/>
    </contour>
    <contour>
      <point x="75" y="163" type="line"/>
      <point x="296" y="303" type="line"/>
      <point x="306" y="309" type="line"/>
      <point x="634" y="516" type="line"/>
      <point x="571" y="516" type="line"/>
      <point x="84" y="208" type="line"/>
    </contour>
  </outline>
</glyph>
<glyph name="l" format="2">
  <advance width="170"/>
  <unicode hex="006C"/>
  <note>
l
</note>
  <anchor x="31" y="0" name="bottom"/>
  <anchor x="109" y="365" name="center"/>
  <anchor x="184" y="729" name="top"/>
  <anchor x="203" y="729" name="topright"/>
  <outline>
    <contour>
      <point x="12" y="0" type="line"/>
      <point x="50" y="0" type="line"/>
      <point x="203" y="729" type="line"/>
      <point x="165" y="729" type="line"/>
    </contour>
  </outline>
</glyph>
<glyph name="m" format="2">
  <advance width="1059"/>
  <unicode hex="006D"/>
  <note>
m
</note>
  <anchor x="488" y="0" name="bottom"/>
  <anchor x="598" y="516" name="top"/>
  <outline>
    <contour>
      <point x="12" y="0" type="line"/>
      <point x="51" y="0" type="line"/>
      <point x="125" y="356" type="line"/>
      <point x="184" y="437"/>
      <point x="278" y="490"/>
      <point x="379" y="490" type="curve" smooth="yes"/>
      <point x="495" y="490"/>
      <point x="548" y="412"/>
      <point x="521" y="283" type="curve" smooth="yes"/>
      <point x="462" y="0" type="line"/>
      <point x="499" y="0" type="line"/>
      <point x="560" y="289" type="line" smooth="yes"/>
      <point x="564" y="308"/>
      <point x="566" y="327"/>
      <point x="567" y="345" type="curve"/>
      <point x="624" y="432"/>
      <point x="728" y="490"/>
      <point x="827" y="490" type="curve" smooth="yes"/>
      <point x="944" y="490"/>
      <point x="997" y="412"/>
      <point x="969" y="283" type="curve" smooth="yes"/>
      <point x="910" y="0" type="line"/>
      <point x="949" y="0" type="line"/>
      <point x="1009" y="289" type="line" smooth="yes"/>
      <point x="1038" y="426"/>
      <point x="977" y="526"/>
      <point x="836" y="526" type="curve" smooth="yes"/>
      <point x="747" y="526"/>
      <point x="650" y="489"/>
      <point x="568" y="394" type="curve"/>
      <point x="563" y="394" type="line"/>
      <point x="549" y="474"/>
      <point x="490" y="526"/>
      <point x="387" y="526" type="curve" smooth="yes"/>
      <point x="294" y="526"/>
      <point x="201" y="482"/>
      <point x="140" y="412" type="curve"/>
      <point x="136" y="412" type="line"/>
      <point x="157" y="516" type="line"/>
      <point x="120" y="516" type="line"/>
    </contour>
  </outline>
</glyph>
<glyph name="n" format="2">
  <advance width="619"/>
  <unicode hex="006E"/>
  <note>
n
</note>
  <anchor x="269" y="0" name="bottom"/>
  <anchor x="379" y="516" name="top"/>
  <outline>
    <contour>
      <point x="12" y="0" type="line"/>
      <point x="50" y="0" type="line"/>
      <point x="125" y="356" type="line"/>
      <point x="184" y="437"/>
      <point x="280" y="490"/>
      <point x="384" y="490" type="curve" smooth="yes"/>
      <point x="508" y="490"/>
      <point x="557" y="406"/>
      <point x="531" y="283" type="curve" smooth="yes"/>
      <point x="471" y="0" type="line"/>
      <point x="509" y="0" type="line"/>
      <point x="570" y="289" type="line" smooth="yes"/>
      <point x="598" y="426"/>
      <point x="535" y="526"/>
      <point x="392" y="526" type="curve" smooth="yes"/>
      <point x="298" y="526"/>
      <point x="202" y="483"/>
      <point x="139" y="412" type="curve"/>
      <point x="135" y="412" type="line"/>
      <point x="156" y="516" type="line"/>
      <point x="120" y="516" type="line"/>
    </contour>
  </outline>
</glyph>
<glyph name="o" format="2">
  <advance width="657"/>
  <unicode hex="006F"/>
  <note>
o
</note>
  <anchor x="521" y="0" name="#exit"/>
  <anchor x="310" y="0" name="bottom"/>
  <anchor x="340" y="258" name="center"/>
  <anchor x="542" y="10" name="ogonek"/>
  <anchor x="348" y="516" name="top"/>
  <anchor x="479" y="495" name="topright"/>
  <outline>
    <contour>
      <point x="314" y="-10" type="curve" smooth="yes"/>
      <point x="460" y="-10"/>
      <point x="575" y="66"/>
      <point x="605" y="201" type="curve" smooth="yes"/>
      <point x="607" y="210" type="line" smooth="yes"/>
      <point x="650" y="403"/>
      <point x="521" y="525"/>
      <point x="343" y="525" type="curve" smooth="yes"/>
      <point x="197" y="525"/>
      <point x="82" y="448"/>
      <point x="52" y="314" type="curve" smooth="yes"/>
      <point x="50" y="305" type="line" smooth="yes"/>
      <point x="7" y="111"/>
      <point x="136" y="-10"/>
    </contour>
    <contour>
      <point x="315" y="25" type="curve" smooth="yes"/>
      <point x="155" y="25"/>
      <point x="55" y="126"/>
      <point x="86" y="280" type="curve" smooth="yes"/>
      <point x="94" y="320" type="line" smooth="yes"/>
      <point x="114" y="422"/>
      <point x="207" y="490"/>
      <point x="342" y="490" type="curve" smooth="yes"/>
      <point x="502" y="490"/>
      <point x="602" y="388"/>
      <point x="571" y="235" type="curve" smooth="yes"/>
      <point x="563" y="195" type="line" smooth="yes"/>
      <point x="542" y="92"/>
      <point x="450" y="25"/>
    </contour>
  </outline>
</glyph>
<glyph name="p" format="2">
  <advance width="649"/>
  <unicode hex="0070"/>
  <note>
p
</note>
  <anchor x="277" y="0" name="bottom"/>
  <anchor x="387" y="516" name="top"/>
  <outline>
    <contour>
      <point x="-23" y="-167" type="line"/>
      <point x="15" y="-167" type="line"/>
      <point x="78" y="135" type="line"/>
      <point x="81" y="135" type="line"/>
      <point x="115" y="49"/>
      <point x="203" y="-9"/>
      <point x="320" y="-9" type="curve" smooth="yes"/>
      <point x="464" y="-9"/>
      <point x="574" y="72"/>
      <point x="600" y="214" type="curve" smooth="yes"/>
      <point x="602" y="225" type="line" smooth="yes"/>
      <point x="634" y="401"/>
      <point x="529" y="526"/>
      <point x="354" y="526" type="curve" smooth="yes"/>
      <point x="276" y="526"/>
      <point x="192" y="496"/>
      <point x="145" y="443" type="curve"/>
      <point x="139" y="443" type="line"/>
      <point x="148" y="516" type="line"/>
      <point x="120" y="516" type="line"/>
    </contour>
    <contour>
      <point x="320" y="26" type="curve" smooth="yes"/>
      <point x="206" y="26"/>
      <point x="115" y="86"/>
      <point x="90" y="192" type="curve"/>
      <point x="131" y="387" type="line"/>
      <point x="175" y="451"/>
      <point x="254" y="490"/>
      <point x="350" y="490" type="curve" smooth="yes"/>
      <point x="500" y="490"/>
      <point x="597" y="387"/>
      <point x="563" y="234" type="curve" smooth="yes"/>
      <point x="554" y="193" type="line" smooth="yes"/>
      <point x="532" y="93"/>
      <point x="446" y="26"/>
    </contour>
  </outline>
</glyph>
<glyph name="q" format="2">
  <advance width="649"/>
  <unicode hex="0071"/>
  <note>
q
</note>
  <anchor x="277" y="0" name="bottom"/>
  <anchor x="387" y="516" name="top"/>
  <outline>
    <contour>
      <point x="456" y="-167" type="line"/>
      <point x="494" y="-167" type="line"/>
      <point x="637" y="516" type="line"/>
      <point x="605" y="516" type="line"/>
      <point x="571" y="381" type="line"/>
      <point x="568" y="381" type="line"/>
      <point x="534" y="467"/>
      <point x="446" y="525"/>
      <point x="329" y="525" type="curve" smooth="yes"/>
      <point x="185" y="525"/>
      <point x="75" y="444"/>
      <point x="49" y="302" type="curve" smooth="yes"/>
      <point x="47" y="291" type="line" smooth="yes"/>
      <point x="15" y="114"/>
      <point x="120" y="-10"/>
      <point x="295" y="-10" type="curve" smooth="yes"/>
      <point x="373" y="-10"/>
      <point x="457" y="20"/>
      <point x="504" y="72" type="curve"/>
      <point x="506" y="72" type="line"/>
    </contour>
    <contour>
      <point x="299" y="25" type="curve" smooth="yes"/>
      <point x="149" y="25"/>
      <point x="52" y="128"/>
      <point x="86" y="282" type="curve" smooth="yes"/>
      <point x="95" y="323" type="line" smooth="yes"/>
      <point x="117" y="423"/>
      <point x="203" y="489"/>
      <point x="329" y="489" type="curve" smooth="yes"/>
      <point x="443" y="489"/>
      <point x="534" y="430"/>
      <point x="559" y="324" type="curve"/>
      <point x="518" y="128" type="line"/>
      <point x="474" y="64"/>
      <point x="395" y="25"/>
    </contour>
  </outline>
</glyph>
<glyph name="r" format="2">
  <advance width="332"/>
  <unicode hex="0072"/>
  <note>
r
</note>
  <anchor x="28" y="0" name="bottom"/>
  <anchor x="228" y="516" name="top"/>
  <outline>
    <contour>
      <point x="12" y="0" type="line"/>
      <point x="49" y="0" type="line"/>
      <point x="126" y="369" type="line"/>
      <point x="196" y="451"/>
      <point x="236" y="478"/>
      <point x="329" y="478" type="curve" smooth="yes"/>
      <point x="354" y="478" type="line"/>
      <point x="361" y="516" type="line"/>
      <point x="328" y="516" type="line" smooth="yes"/>
      <point x="242" y="516"/>
      <point x="193" y="481"/>
      <point x="141" y="417" type="curve"/>
      <point x="136" y="417" type="line"/>
      <point x="153" y="516" type="line"/>
      <point x="120" y="516" type="line"/>
    </contour>
  </outline>
</glyph>
<glyph name="s" format="2">
  <advance width="538"/>
  <unicode hex="0073"/>
  <note>
s
</note>
  <anchor x="226" y="0" name="bottom"/>
  <anchor x="336" y="516" name="top"/>
  <outline>
    <contour>
      <point x="260" y="-8" type="curve" smooth="yes"/>
      <point x="376" y="-8"/>
      <point x="475" y="36"/>
      <point x="475" y="142" type="curve" smooth="yes"/>
      <point x="475" y="210"/>
      <point x="429" y="246"/>
      <point x="328" y="271" type="curve" smooth="yes"/>
      <point x="228" y="294" type="line" smooth="yes"/>
      <point x="146" y="314"/>
      <point x="117" y="343"/>
      <point x="117" y="381" type="curve" smooth="yes"/>
      <point x="117" y="456"/>
      <point x="195" y="491"/>
      <point x="281" y="491" type="curve" smooth="yes"/>
      <point x="372" y="491"/>
      <point x="471" y="457"/>
      <point x="473" y="374" type="curve"/>
      <point x="514" y="374" type="line"/>
      <point x="512" y="453"/>
      <point x="436" y="524"/>
      <point x="283" y="524" type="curve" smooth="yes"/>
      <point x="176" y="524"/>
      <point x="78" y="477"/>
      <point x="78" y="377" type="curve" smooth="yes"/>
      <point x="78" y="320"/>
      <point x="117" y="285"/>
      <point x="214" y="261" type="curve" smooth="yes"/>
      <point x="329" y="232" type="line" smooth="yes"/>
      <point x="405" y="214"/>
      <point x="435" y="184"/>
      <point x="435" y="136" type="curve" smooth="yes"/>
      <point x="435" y="65"/>
      <point x="368" y="26"/>
      <point x="263" y="26" type="curve" smooth="yes"/>
      <point x="164" y="26"/>
      <point x="61" y="59"/>
      <point x="50" y="139" type="curve"/>
      <point x="7" y="139" type="line"/>
      <point x="16" y="56"/>
      <point x="104" y="-8"/>
    </contour>
  </outline>
</glyph>
<glyph name="t" format="2">
  <advance width="376"/>
  <unicode hex="0074"/>
  <note>
t
</note>
  <anchor x="198" y="0" name="bottom"/>
  <anchor x="181" y="269" name="center"/>
  <anchor x="260" y="516" name="top"/>
  <anchor x="287" y="729" name="topright"/>
  <outline>
    <contour>
      <point x="140" y="0" type="curve" smooth="yes"/>
      <point x="293" y="0" type="line"/>
      <point x="301" y="37" type="line"/>
      <point x="136" y="37" type="line"/>
      <point x="269" y="675" type="line"/>
      <point x="231" y="675" type="line"/>
      <point x="100" y="48" type="line" smooth="yes"/>
      <point x="94" y="19"/>
      <point x="106" y="0"/>
    </contour>
    <contour>
      <point x="73" y="479" type="line"/>
      <point x="378" y="479" type="line"/>
      <point x="385" y="516" type="line"/>
      <point x="80" y="516" type="line"/>
    </contour>
  </outline>
</glyph>
<glyph name="v" format="2">
  <advance width="675"/>
  <unicode hex="0076"/>
  <note>
v
</note>
  <anchor x="295" y="0" name="bottom"/>
  <anchor x="405" y="516" name="top"/>
  <outline>
    <contour>
      <point x="262" y="0" type="line"/>
      <point x="307" y="0" type="line"/>
      <point x="706" y="516" type="line"/>
      <point x="660" y="516" type="line"/>
      <point x="319" y="74" type="line"/>
      <point x="293" y="39" type="line"/>
      <point x="286" y="39" type="line"/>
      <point x="274" y="74" type="line"/>
      <point x="119" y="516" type="line"/>
      <point x="79" y="516" type="line"/>
    </contour>
  </outline>
</glyph>
<glyph name="w" format="2">
  <advance width="955"/>
  <unicode hex="0077"/>
  <note>
w
</note>
  <anchor x="435" y="0" name="bottom"/>
  <anchor x="531" y="516" name="top"/>
  <outline>
    <contour>
      <point x="190" y="0" type="line"/>
      <point x="246" y="0" type="line"/>
      <point x="503" y="437" type="line"/>
      <point x="521" y="470" type="line"/>
      <point x="527" y="470" type="line"/>
      <point x="531" y="437" type="line"/>
      <point x="602" y="0" type="line"/>
      <point x="659" y="0" type="line"/>
      <point x="985" y="516" type="line"/>
      <point x="941" y="516" type="line"/>
      <point x="668" y="83" type="line"/>
      <point x="640" y="37" type="line"/>
      <point x="634" y="37" type="line"/>
      <point x="628" y="83" type="line"/>
      <point x="556" y="516" type="line"/>
      <point x="506" y="516" type="line"/>
      <point x="252" y="83" type="line"/>
      <point x="226" y="37" type="line"/>
      <point x="220" y="37" type="line"/>
      <point x="211" y="83" type="line"/>
      <point x="121" y="516" type="line"/>
      <point x="80" y="516" type="line"/>
    </contour>
  </outline>
</glyph>
<glyph name="x" format="2">
  <advance width="620"/>
  <unicode hex="0078"/>
  <note>
x
</note>
  <anchor x="258" y="0" name="bottom"/>
  <anchor x="368" y="516" name="top"/>
  <outline>
    <contour>
      <point x="-32" y="0" type="line"/>
      <point x="20" y="0" type="line"/>
      <point x="306" y="238" type="line"/>
      <point x="315" y="238" type="line"/>
      <point x="493" y="0" type="line"/>
      <point x="541" y="0" type="line"/>
      <point x="342" y="262" type="line"/>
      <point x="643" y="516" type="line"/>
      <point x="590" y="516" type="line"/>
      <point x="324" y="290" type="line"/>
      <point x="315" y="290" type="line"/>
      <point x="145" y="516" type="line"/>
      <point x="99" y="516" type="line"/>
      <point x="290" y="267" type="line"/>
    </contour>
  </outline>
</glyph>
<glyph name="y" format="2">
  <advance width="628"/>
  <unicode hex="0079"/>
  <note>
y
</note>
  <anchor x="431" y="0" name="bottom"/>
  <anchor x="338" y="516" name="top"/>
  <outline>
    <contour>
      <point x="-33" y="-167" type="line"/>
      <point x="199" y="-167" type="line" smooth="yes"/>
      <point x="230" y="-167"/>
      <point x="246" y="-151"/>
      <point x="251" y="-128" type="curve" smooth="yes"/>
      <point x="292" y="63" type="line"/>
      <point x="659" y="516" type="line"/>
      <point x="611" y="516" type="line"/>
      <point x="346" y="185" type="line"/>
      <point x="281" y="103" type="line"/>
      <point x="275" y="103" type="line"/>
      <point x="244" y="185" type="line"/>
      <point x="120" y="516" type="line"/>
      <point x="79" y="516" type="line"/>
      <point x="254" y="62" type="line"/>
      <point x="212" y="-130" type="line"/>
      <point x="-26" y="-130" type="line"/>
    </contour>
  </outline>
</glyph>
<glyph name="z" format="2">
  <advance width="560"/>
  <unicode hex="007A"/>
  <note>
z
</note>
  <anchor x="235" y="0" name="bottom"/>
  <anchor x="290" y="258" name="center"/>
  <anchor x="345" y="516" name="top"/>
  <outline>
    <contour>
      <point x="-27" y="0" type="line"/>
      <point x="470" y="0" type="line"/>
      <point x="477" y="37" type="line"/>
      <point x="40" y="37" type="line"/>
      <point x="577" y="480" type="line"/>
      <point x="585" y="516" type="line"/>
      <point x="107" y="516" type="line"/>
      <point x="100" y="479" type="line"/>
      <point x="517" y="479" type="line"/>
      <point x="-21" y="33" type="line"/>
    </contour>
  </outline>
</glyph>
<glyph name="braceleft" format="2">
  <advance width="410"/>
  <unicode hex="007B"/>
  <outline>
    <contour>
      <point x="98" y="-167" type="curve" smooth="yes"/>
      <point x="281" y="-167" type="line"/>
      <point x="288" y="-133" type="line"/>
      <point x="100" y="-133" type="line"/>
      <point x="172" y="207" type="line" smooth="yes"/>
      <point x="185" y="263"/>
      <point x="166" y="297"/>
      <point x="125" y="310" type="curve"/>
      <point x="126" y="314" type="line"/>
      <point x="175" y="323"/>
      <point x="204" y="354"/>
      <point x="217" y="418" type="curve" smooth="yes"/>
      <point x="290" y="758" type="line"/>
      <point x="478" y="758" type="line"/>
      <point x="485" y="793" type="line"/>
      <point x="302" y="793" type="line" smooth="yes"/>
      <point x="274" y="793"/>
      <point x="257" y="774"/>
      <point x="251" y="748" type="curve" smooth="yes"/>
      <point x="181" y="418" type="line" smooth="yes"/>
      <point x="169" y="360"/>
      <point x="143" y="332"/>
      <point x="90" y="332" type="curve" smooth="yes"/>
      <point x="53" y="332" type="line"/>
      <point x="45" y="293" type="line"/>
      <point x="82" y="293" type="line" smooth="yes"/>
      <point x="134" y="293"/>
      <point x="148" y="266"/>
      <point x="137" y="208" type="curve" smooth="yes"/>
      <point x="67" y="-122" type="line" smooth="yes"/>
      <point x="61" y="-148"/>
      <point x="70" y="-167"/>
    </contour>
  </outline>
</glyph>
<glyph name="bar" format="2">
  <advance width="348"/>
  <unicode hex="007C"/>
  <outline>
    <contour>
      <point x="86" y="-67" type="line"/>
      <point x="123" y="-67" type="line"/>
      <point x="293" y="729" type="line"/>
      <point x="256" y="729" type="line"/>
    </contour>
  </outline>
</glyph>
<glyph name="asciitilde" format="2">
  <advance width="701"/>
  <unicode hex="007E"/>
  <outline>
    <contour>
      <point x="198" y="315" type="curve"/>
      <point x="219" y="315" type="line"/>
      <point x="224" y="355"/>
      <point x="236" y="380"/>
      <point x="279" y="380" type="curve" smooth="yes"/>
      <point x="325" y="380"/>
      <point x="403" y="317"/>
      <point x="461" y="317" type="curve" smooth="yes"/>
      <point x="516" y="317"/>
      <point x="546" y="351"/>
      <point x="548" y="415" type="curve"/>
      <point x="527" y="415" type="line"/>
      <point x="522" y="375"/>
      <point x="511" y="350"/>
      <point x="468" y="350" type="curve" smooth="yes"/>
      <point x="423" y="350"/>
      <point x="345" y="413"/>
      <point x="286" y="413" type="curve" smooth="yes"/>
      <point x="234" y="413"/>
      <point x="200" y="382"/>
    </contour>
  </outline>
</glyph>
<glyph name="cent" format="2">
  <advance width="664"/>
  <unicode hex="00A2"/>
  <anchor x="346" y="107" name="bottom"/>
  <anchor x="403" y="623" name="top"/>
  <outline>
    <contour>
      <point x="398" y="612" type="line"/>
      <point x="435" y="612" type="line"/>
      <point x="459" y="729" type="line"/>
      <point x="422" y="729" type="line"/>
    </contour>
    <contour>
      <point x="268" y="0" type="line"/>
      <point x="305" y="0" type="line"/>
      <point x="329" y="114" type="line"/>
      <point x="292" y="114" type="line"/>
    </contour>
    <contour>
      <point x="349" y="97" type="curve" smooth="yes"/>
      <point x="458" y="97"/>
      <point x="575" y="154"/>
      <point x="618" y="258" type="curve"/>
      <point x="577" y="258" type="line"/>
      <point x="541" y="178"/>
      <point x="446" y="132"/>
      <point x="351" y="132" type="curve" smooth="yes"/>
      <point x="192" y="132"/>
      <point x="92" y="233"/>
      <point x="123" y="387" type="curve" smooth="yes"/>
      <point x="131" y="427" type="line" smooth="yes"/>
      <point x="152" y="529"/>
      <point x="244" y="596"/>
      <point x="379" y="596" type="curve" smooth="yes"/>
      <point x="491" y="596"/>
      <point x="575" y="547"/>
      <point x="599" y="462" type="curve"/>
      <point x="638" y="462" type="line"/>
      <point x="613" y="563"/>
      <point x="517" y="632"/>
      <point x="381" y="632" type="curve" smooth="yes"/>
      <point x="234" y="632"/>
      <point x="119" y="555"/>
      <point x="89" y="421" type="curve" smooth="yes"/>
      <point x="87" y="412" type="line" smooth="yes"/>
      <point x="44" y="218"/>
      <point x="173" y="97"/>
    </contour>
  </outline>
</glyph>
<glyph name="sterling" format="2">
  <advance width="683"/>
  <unicode hex="00A3"/>
  <outline>
    <contour>
      <point x="-6" y="0" type="line"/>
      <point x="570" y="0" type="line"/>
      <point x="608" y="180" type="line"/>
      <point x="569" y="180" type="line"/>
      <point x="539" y="36" type="line"/>
      <point x="122" y="36" type="line"/>
      <point x="186" y="341" type="line"/>
      <point x="492" y="341" type="line"/>
      <point x="500" y="378" type="line"/>
      <point x="194" y="378" type="line"/>
      <point x="222" y="511" type="line" smooth="yes"/>
      <point x="247" y="632"/>
      <point x="305" y="701"/>
      <point x="451" y="700" type="curve" smooth="yes"/>
      <point x="571" y="699"/>
      <point x="644" y="634"/>
      <point x="633" y="520" type="curve" smooth="yes"/>
      <point x="631" y="500" type="line"/>
      <point x="670" y="500" type="line"/>
      <point x="672" y="521" type="line" smooth="yes"/>
      <point x="684" y="650"/>
      <point x="594" y="736"/>
      <point x="446" y="736" type="curve" smooth="yes"/>
      <point x="312" y="736"/>
      <point x="218" y="673"/>
      <point x="187" y="528" type="curve" smooth="yes"/>
      <point x="155" y="378" type="line"/>
      <point x="72" y="370" type="line"/>
      <point x="66" y="341" type="line"/>
      <point x="148" y="341" type="line"/>
      <point x="83" y="36" type="line"/>
      <point x="2" y="36" type="line"/>
    </contour>
  </outline>
</glyph>
<glyph name="currency" format="2">
  <advance width="730"/>
  <unicode hex="00A4"/>
  <outline>
    <contour>
      <point x="135" y="79" type="line"/>
      <point x="253" y="197" type="line"/>
      <point x="289" y="171"/>
      <point x="333" y="156"/>
      <point x="384" y="156" type="curve" smooth="yes"/>
      <point x="434" y="156"/>
      <point x="479" y="170"/>
      <point x="514" y="198" type="curve"/>
      <point x="634" y="79" type="line"/>
      <point x="657" y="101" type="line"/>
      <point x="537" y="222" type="line"/>
      <point x="567" y="254"/>
      <point x="584" y="301"/>
      <point x="584" y="350" type="curve" smooth="yes"/>
      <point x="584" y="401"/>
      <point x="565" y="445"/>
      <point x="538" y="479" type="curve"/>
      <point x="657" y="597" type="line"/>
      <point x="634" y="622" type="line"/>
      <point x="514" y="502" type="line"/>
      <point x="480" y="530"/>
      <point x="433" y="544"/>
      <point x="384" y="544" type="curve" smooth="yes"/>
      <point x="331" y="544"/>
      <point x="287" y="528"/>
      <point x="254" y="502" type="curve"/>
      <point x="135" y="622" type="line"/>
      <point x="112" y="597" type="line"/>
      <point x="231" y="479" type="line"/>
      <point x="202" y="446"/>
      <point x="181" y="398"/>
      <point x="181" y="350" type="curve" smooth="yes"/>
      <point x="181" y="298"/>
      <point x="202" y="253"/>
      <point x="230" y="222" type="curve"/>
      <point x="112" y="101" type="line"/>
    </contour>
    <contour>
      <point x="384" y="189" type="curve" smooth="yes"/>
      <point x="287" y="189"/>
      <point x="216" y="257"/>
      <point x="216" y="349" type="curve" smooth="yes"/>
      <point x="216" y="444"/>
      <point x="287" y="509"/>
      <point x="384" y="509" type="curve" smooth="yes"/>
      <point x="480" y="509"/>
      <point x="551" y="443"/>
      <point x="551" y="349" type="curve" smooth="yes"/>
      <point x="551" y="258"/>
      <point x="480" y="189"/>
    </contour>
  </outline>
</glyph>
<glyph name="brokenbar" format="2">
  <advance width="348"/>
  <unicode hex="00A6"/>
  <outline>
    <contour>
      <point x="189" y="416" type="line"/>
      <point x="226" y="416" type="line"/>
      <point x="293" y="729" type="line"/>
      <point x="256" y="729" type="line"/>
    </contour>
    <contour>
      <point x="86" y="-67" type="line"/>
      <point x="123" y="-67" type="line"/>
      <point x="190" y="246" type="line"/>
      <point x="153" y="246" type="line"/>
    </contour>
  </outline>
</glyph>
<glyph name="section" format="2">
  <advance width="515"/>
  <unicode hex="00A7"/>
  <outline>
    <contour>
      <point x="225" y="-10" type="curve" smooth="yes"/>
      <point x="343" y="-10"/>
      <point x="422" y="48"/>
      <point x="422" y="152" type="curve" smooth="yes"/>
      <point x="422" y="183"/>
      <point x="411" y="207"/>
      <point x="392" y="225" type="curve"/>
      <point x="444" y="253"/>
      <point x="473" y="297"/>
      <point x="473" y="353" type="curve" smooth="yes"/>
      <point x="473" y="437"/>
      <point x="410" y="469"/>
      <point x="323" y="490" type="curve" smooth="yes"/>
      <point x="235" y="511"/>
      <point x="188" y="535"/>
      <point x="188" y="589" type="curve" smooth="yes"/>
      <point x="188" y="658"/>
      <point x="242" y="704"/>
      <point x="332" y="704" type="curve" smooth="yes"/>
      <point x="426" y="704"/>
      <point x="485" y="658"/>
      <point x="480" y="583" type="curve"/>
      <point x="517" y="583" type="line"/>
      <point x="520" y="675"/>
      <point x="448" y="737"/>
      <point x="335" y="737" type="curve" smooth="yes"/>
      <point x="235" y="737"/>
      <point x="150" y="684"/>
      <point x="150" y="586" type="curve" smooth="yes"/>
      <point x="150" y="551"/>
      <point x="161" y="526"/>
      <point x="186" y="505" type="curve"/>
      <point x="134" y="479"/>
      <point x="99" y="429"/>
      <point x="99" y="377" type="curve" smooth="yes"/>
      <point x="99" y="303"/>
      <point x="152" y="270"/>
      <point x="251" y="246" type="curve" smooth="yes"/>
      <point x="341" y="224"/>
      <point x="383" y="201"/>
      <point x="383" y="147" type="curve" smooth="yes"/>
      <point x="383" y="67"/>
      <point x="327" y="23"/>
      <point x="227" y="23" type="curve" smooth="yes"/>
      <point x="123" y="23"/>
      <point x="59" y="74"/>
      <point x="65" y="161" type="curve"/>
      <point x="30" y="161" type="line"/>
      <point x="24" y="58"/>
      <point x="93" y="-10"/>
    </contour>
    <contour>
      <point x="368" y="243" type="curve"/>
      <point x="339" y="261"/>
      <point x="302" y="272"/>
      <point x="263" y="281" type="curve" smooth="yes"/>
      <point x="179" y="300"/>
      <point x="137" y="325"/>
      <point x="137" y="378" type="curve" smooth="yes"/>
      <point x="137" y="428"/>
      <point x="168" y="464"/>
      <point x="215" y="489" type="curve"/>
      <point x="238" y="475"/>
      <point x="269" y="466"/>
      <point x="311" y="456" type="curve" smooth="yes"/>
      <point x="396" y="435"/>
      <point x="434" y="408"/>
      <point x="434" y="348" type="curve" smooth="yes"/>
      <point x="434" y="301"/>
      <point x="410" y="268"/>
    </contour>
  </outline>
</glyph>
<glyph name="ordfeminine" format="2">
  <advance width="417"/>
  <unicode hex="00AA"/>
  <outline>
    <contour>
      <point x="223" y="386" type="curve" smooth="yes"/>
      <point x="289" y="386"/>
      <point x="348" y="414"/>
      <point x="367" y="455" type="curve"/>
      <point x="369" y="455" type="line"/>
      <point x="371" y="392" type="line"/>
      <point x="404" y="392" type="line"/>
      <point x="404" y="619" type="line" smooth="yes"/>
      <point x="404" y="688"/>
      <point x="357" y="735"/>
      <point x="258" y="735" type="curve" smooth="yes"/>
      <point x="172" y="735"/>
      <point x="109" y="696"/>
      <point x="107" y="635" type="curve"/>
      <point x="140" y="635" type="line"/>
      <point x="142" y="677"/>
      <point x="185" y="706"/>
      <point x="257" y="706" type="curve" smooth="yes"/>
      <point x="325" y="706"/>
      <point x="368" y="681"/>
      <point x="368" y="621" type="curve" smooth="yes"/>
      <point x="368" y="595" type="line"/>
      <point x="386" y="601" type="line"/>
      <point x="228" y="587" type="line" smooth="yes"/>
      <point x="151" y="579"/>
      <point x="96" y="556"/>
      <point x="96" y="482" type="curve" smooth="yes"/>
      <point x="96" y="480" type="line" smooth="yes"/>
      <point x="96" y="416"/>
      <point x="152" y="386"/>
    </contour>
    <contour>
      <point x="230" y="415" type="curve" smooth="yes"/>
      <point x="171" y="415"/>
      <point x="131" y="440"/>
      <point x="131" y="481" type="curve" smooth="yes"/>
      <point x="131" y="489" type="line" smooth="yes"/>
      <point x="131" y="538"/>
      <point x="171" y="559"/>
      <point x="231" y="563" type="curve" smooth="yes"/>
      <point x="368" y="574" type="line"/>
      <point x="368" y="506" type="line" smooth="yes"/>
      <point x="368" y="451"/>
      <point x="309" y="415"/>
    </contour>
  </outline>
</glyph>
<glyph name="logicalnot" format="2">
  <advance width="720"/>
  <unicode hex="00AC"/>
  <outline>
    <contour>
      <point x="520" y="123" type="line"/>
      <point x="552" y="123" type="line"/>
      <point x="608" y="384" type="line"/>
      <point x="110" y="384" type="line"/>
      <point x="102" y="349" type="line"/>
      <point x="568" y="349" type="line"/>
    </contour>
  </outline>
</glyph>
<glyph name="registered" format="2">
  <advance width="664"/>
  <unicode hex="00AE"/>
  <outline>
    <contour>
      <point x="369" y="232" type="curve"/>
      <point x="535" y="232"/>
      <point x="651" y="342"/>
      <point x="651" y="501" type="curve" smooth="yes"/>
      <point x="651" y="643"/>
      <point x="547" y="739"/>
      <point x="392" y="739" type="curve" smooth="yes"/>
      <point x="226" y="739"/>
      <point x="110" y="629"/>
      <point x="110" y="470" type="curve" smooth="yes"/>
      <point x="110" y="328"/>
      <point x="214" y="232"/>
    </contour>
    <contour>
      <point x="369" y="261" type="curve" smooth="yes"/>
      <point x="230" y="261"/>
      <point x="138" y="343"/>
      <point x="138" y="470" type="curve" smooth="yes"/>
      <point x="138" y="613"/>
      <point x="241" y="710"/>
      <point x="392" y="710" type="curve" smooth="yes"/>
      <point x="531" y="710"/>
      <point x="623" y="628"/>
      <point x="623" y="501" type="curve" smooth="yes"/>
      <point x="623" y="358"/>
      <point x="520" y="261"/>
    </contour>
    <contour>
      <point x="243" y="356" type="line"/>
      <point x="273" y="356" type="line"/>
      <point x="322" y="587" type="line"/>
      <point x="451" y="587" type="line" smooth="yes"/>
      <point x="483" y="587"/>
      <point x="500" y="569"/>
      <point x="494" y="538" type="curve" smooth="yes"/>
      <point x="492" y="527" type="line" smooth="yes"/>
      <point x="487" y="502"/>
      <point x="469" y="490"/>
      <point x="435" y="490" type="curve" smooth="yes"/>
      <point x="293" y="490" type="line"/>
      <point x="288" y="464" type="line"/>
      <point x="381" y="464" type="line"/>
      <point x="461" y="356" type="line"/>
      <point x="497" y="356" type="line"/>
      <point x="414" y="467" type="line"/>
      <point x="414" y="464" type="line"/>
      <point x="434" y="464" type="line" smooth="yes"/>
      <point x="487" y="464"/>
      <point x="525" y="491"/>
      <point x="525" y="547" type="curve" smooth="yes"/>
      <point x="525" y="587"/>
      <point x="499" y="613"/>
      <point x="449" y="613" type="curve" smooth="yes"/>
      <point x="297" y="613" type="line"/>
    </contour>
  </outline>
</glyph>
<glyph name="degree" format="2">
  <advance width="398"/>
  <unicode hex="00B0"/>
  <outline>
    <contour>
      <point x="261" y="443" type="curve" smooth="yes"/>
      <point x="346" y="443"/>
      <point x="415" y="503"/>
      <point x="418" y="590" type="curve" smooth="yes"/>
      <point x="421" y="678"/>
      <point x="356" y="737"/>
      <point x="271" y="737" type="curve" smooth="yes"/>
      <point x="187" y="737"/>
      <point x="119" y="678"/>
      <point x="116" y="590" type="curve" smooth="yes"/>
      <point x="113" y="503"/>
      <point x="177" y="443"/>
    </contour>
    <contour>
      <point x="262" y="478" type="curve" smooth="yes"/>
      <point x="198" y="478"/>
      <point x="150" y="524"/>
      <point x="152" y="590" type="curve" smooth="yes"/>
      <point x="155" y="656"/>
      <point x="206" y="702"/>
      <point x="270" y="702" type="curve" smooth="yes"/>
      <point x="335" y="702"/>
      <point x="383" y="656"/>
      <point x="381" y="590" type="curve" smooth="yes"/>
      <point x="379" y="524"/>
      <point x="328" y="478"/>
    </contour>
  </outline>
</glyph>
<glyph name="plusminus" format="2">
  <advance width="720"/>
  <unicode hex="00B1"/>
  <outline>
    <contour>
      <point x="314" y="171" type="line"/>
      <point x="349" y="171" type="line"/>
      <point x="390" y="366" type="line"/>
      <point x="625" y="366" type="line"/>
      <point x="633" y="403" type="line"/>
      <point x="398" y="403" type="line"/>
      <point x="438" y="591" type="line"/>
      <point x="403" y="591" type="line"/>
      <point x="363" y="403" type="line"/>
      <point x="129" y="403" type="line"/>
      <point x="121" y="366" type="line"/>
      <point x="355" y="366" type="line"/>
    </contour>
    <contour>
      <point x="43" y="0" type="line"/>
      <point x="547" y="0" type="line"/>
      <point x="555" y="37" type="line"/>
      <point x="51" y="37" type="line"/>
    </contour>
  </outline>
</glyph>
<glyph name="paragraph" format="2">
  <advance width="717"/>
  <unicode hex="00B6"/>
  <outline>
    <contour>
      <point x="283" y="-151" type="line"/>
      <point x="315" y="-151" type="line"/>
      <point x="315" y="695" type="line"/>
      <point x="533" y="695" type="line"/>
      <point x="533" y="-151" type="line"/>
      <point x="564" y="-151" type="line"/>
      <point x="564" y="695" type="line"/>
      <point x="652" y="695" type="line"/>
      <point x="652" y="729" type="line"/>
      <point x="283" y="729" type="line" smooth="yes"/>
      <point x="171" y="729"/>
      <point x="96" y="677"/>
      <point x="96" y="570" type="curve" smooth="yes"/>
      <point x="96" y="470"/>
      <point x="157" y="404"/>
      <point x="283" y="405" type="curve"/>
    </contour>
  </outline>
</glyph>
<glyph name="ordmasculine" format="2">
  <advance width="402"/>
  <unicode hex="00BA"/>
  <outline>
    <contour>
      <point x="264" y="385" type="curve" smooth="yes"/>
      <point x="365" y="385"/>
      <point x="436" y="448"/>
      <point x="436" y="554" type="curve" smooth="yes"/>
      <point x="436" y="566" type="line" smooth="yes"/>
      <point x="436" y="671"/>
      <point x="369" y="735"/>
      <point x="264" y="735" type="curve" smooth="yes"/>
      <point x="161" y="735"/>
      <point x="94" y="671"/>
      <point x="94" y="566" type="curve" smooth="yes"/>
      <point x="94" y="554" type="line" smooth="yes"/>
      <point x="94" y="448"/>
      <point x="161" y="385"/>
    </contour>
    <contour>
      <point x="264" y="418" type="curve" smooth="yes"/>
      <point x="185" y="418"/>
      <point x="130" y="461"/>
      <point x="130" y="530" type="curve" smooth="yes"/>
      <point x="130" y="590" type="line" smooth="yes"/>
      <point x="130" y="658"/>
      <point x="184" y="704"/>
      <point x="264" y="704" type="curve" smooth="yes"/>
      <point x="345" y="704"/>
      <point x="398" y="660"/>
      <point x="398" y="590" type="curve" smooth="yes"/>
      <point x="398" y="530" type="line" smooth="yes"/>
      <point x="398" y="460"/>
      <point x="345" y="418"/>
    </contour>
  </outline>
</glyph>
<glyph name="multiply" format="2">
  <advance width="720"/>
  <unicode hex="00D7"/>
  <outline>
    <contour>
      <point x="99" y="114" type="line"/>
      <point x="667" y="582" type="line"/>
      <point x="646" y="608" type="line"/>
      <point x="78" y="140" type="line"/>
    </contour>
    <contour>
      <point x="544" y="116" type="line"/>
      <point x="571" y="138" type="line"/>
      <point x="201" y="606" type="line"/>
      <point x="174" y="584" type="line"/>
    </contour>
  </outline>
</glyph>
<glyph name="Thorn" format="2">
  <advance width="685"/>
  <unicode hex="00DE"/>
  <outline>
    <contour>
      <point x="25" y="0" type="line"/>
      <point x="67" y="0" type="line"/>
      <point x="219" y="729" type="line"/>
      <point x="178" y="729" type="line"/>
    </contour>
    <contour>
      <point x="91" y="163" type="line"/>
      <point x="398" y="163" type="line" smooth="yes"/>
      <point x="564" y="163"/>
      <point x="658" y="253"/>
      <point x="663" y="389" type="curve" smooth="yes"/>
      <point x="667" y="502"/>
      <point x="595" y="567"/>
      <point x="462" y="567" type="curve" smooth="yes"/>
      <point x="176" y="567" type="line"/>
      <point x="167" y="529" type="line"/>
      <point x="456" y="529" type="line" smooth="yes"/>
      <point x="580" y="529"/>
      <point x="637" y="464"/>
      <point x="614" y="365" type="curve" smooth="yes"/>
      <point x="608" y="339" type="line" smooth="yes"/>
      <point x="589" y="257"/>
      <point x="524" y="201"/>
      <point x="407" y="201" type="curve" smooth="yes"/>
      <point x="99" y="201" type="line"/>
    </contour>
  </outline>
</glyph>
<glyph name="germandbls" format="2">
  <advance width="694"/>
  <unicode hex="00DF"/>
  <outline>
    <contour>
      <point x="90" y="0" type="line"/>
      <point x="128" y="0" type="line"/>
      <point x="237" y="519" type="line" smooth="yes"/>
      <point x="260" y="629"/>
      <point x="334" y="704"/>
      <point x="457" y="704" type="curve" smooth="yes"/>
      <point x="574" y="704"/>
      <point x="637" y="635"/>
      <point x="619" y="532" type="curve" smooth="yes"/>
      <point x="606" y="459"/>
      <point x="543" y="411"/>
      <point x="438" y="411" type="curve" smooth="yes"/>
      <point x="368" y="411" type="line"/>
      <point x="361" y="376" type="line"/>
      <point x="456" y="376" type="line" smooth="yes"/>
      <point x="567" y="376"/>
      <point x="624" y="303"/>
      <point x="601" y="194" type="curve" smooth="yes"/>
      <point x="595" y="166" type="line" smooth="yes"/>
      <point x="579" y="89"/>
      <point x="517" y="37"/>
      <point x="387" y="37" type="curve" smooth="yes"/>
      <point x="232" y="37" type="line"/>
      <point x="225" y="0" type="line"/>
      <point x="382" y="0" type="line" smooth="yes"/>
      <point x="526" y="0"/>
      <point x="612" y="58"/>
      <point x="638" y="168" type="curve" smooth="yes"/>
      <point x="664" y="278"/>
      <point x="614" y="374"/>
      <point x="524" y="393" type="curve"/>
      <point x="525" y="397" type="line"/>
      <point x="594" y="414"/>
      <point x="646" y="463"/>
      <point x="657" y="533" type="curve" smooth="yes"/>
      <point x="677" y="659"/>
      <point x="589" y="739"/>
      <point x="458" y="739" type="curve" smooth="yes"/>
      <point x="331" y="739"/>
      <point x="230" y="664"/>
      <point x="202" y="530" type="curve" smooth="yes"/>
    </contour>
    <contour>
      <point x="72" y="478" type="line"/>
      <point x="201" y="478" type="line"/>
      <point x="209" y="516" type="line"/>
      <point x="80" y="516" type="line"/>
    </contour>
  </outline>
</glyph>
<glyph name="ae" format="2">
  <advance width="1028"/>
  <unicode hex="00E6"/>
  <outline>
    <contour>
      <point x="198" y="-10" type="curve" smooth="yes"/>
      <point x="299" y="-10"/>
      <point x="397" y="34"/>
      <point x="455" y="105" type="curve"/>
      <point x="459" y="105" type="line"/>
      <point x="500" y="30"/>
      <point x="591" y="-10"/>
      <point x="695" y="-10" type="curve" smooth="yes"/>
      <point x="818" y="-10"/>
      <point x="924" y="41"/>
      <point x="967" y="129" type="curve"/>
      <point x="925" y="129" type="line"/>
      <point x="891" y="67"/>
      <point x="801" y="25"/>
      <point x="698" y="25" type="curve" smooth="yes"/>
      <point x="538" y="25"/>
      <point x="439" y="126"/>
      <point x="469" y="279" type="curve" smooth="yes"/>
      <point x="477" y="320" type="line" smooth="yes"/>
      <point x="497" y="422"/>
      <point x="590" y="489"/>
      <point x="726" y="489" type="curve" smooth="yes"/>
      <point x="863" y="489"/>
      <point x="959" y="407"/>
      <point x="948" y="276" type="curve" smooth="yes"/>
      <point x="947" y="264" type="line"/>
      <point x="964" y="295" type="line"/>
      <point x="463" y="295" type="line"/>
      <point x="455" y="261" type="line"/>
      <point x="989" y="261" type="line"/>
      <point x="990" y="274" type="line" smooth="yes"/>
      <point x="1001" y="423"/>
      <point x="893" y="525"/>
      <point x="727" y="525" type="curve" smooth="yes"/>
      <point x="622" y="525"/>
      <point x="533" y="485"/>
      <point x="480" y="414" type="curve"/>
      <point x="459" y="481"/>
      <point x="390" y="526"/>
      <point x="294" y="526" type="curve" smooth="yes"/>
      <point x="185" y="526"/>
      <point x="87" y="478"/>
      <point x="55" y="374" type="curve"/>
      <point x="95" y="374" type="line"/>
      <point x="120" y="445"/>
      <point x="185" y="491"/>
      <point x="288" y="491" type="curve" smooth="yes"/>
      <point x="404" y="491"/>
      <point x="460" y="427"/>
      <point x="435" y="314" type="curve" smooth="yes"/>
      <point x="433" y="305" type="line" smooth="yes"/>
      <point x="421" y="251"/>
      <point x="425" y="186"/>
      <point x="441" y="137" type="curve"/>
      <point x="394" y="68"/>
      <point x="302" y="26"/>
      <point x="208" y="26" type="curve" smooth="yes"/>
      <point x="127" y="26"/>
      <point x="80" y="62"/>
      <point x="80" y="123" type="curve" smooth="yes"/>
      <point x="80" y="212"/>
      <point x="149" y="261"/>
      <point x="283" y="261" type="curve" smooth="yes"/>
      <point x="436" y="261" type="line"/>
      <point x="443" y="295" type="line"/>
      <point x="283" y="295" type="line" smooth="yes"/>
      <point x="135" y="295"/>
      <point x="39" y="233"/>
      <point x="39" y="123" type="curve" smooth="yes"/>
      <point x="39" y="42"/>
      <point x="103" y="-10"/>
    </contour>
  </outline>
</glyph>
<glyph name="eth" format="2">
  <advance width="620"/>
  <unicode hex="00F0"/>
  <outline>
    <contour>
      <point x="295" y="-10" type="curve" smooth="yes"/>
      <point x="445" y="-10"/>
      <point x="548" y="72"/>
      <point x="567" y="196" type="curve" smooth="yes"/>
      <point x="569" y="209" type="line" smooth="yes"/>
      <point x="594" y="372"/>
      <point x="484" y="587"/>
      <point x="366" y="729" type="curve"/>
      <point x="327" y="729" type="line"/>
      <point x="402" y="634"/>
      <point x="476" y="505"/>
      <point x="510" y="402" type="curve"/>
      <point x="503" y="402" type="line"/>
      <point x="458" y="458"/>
      <point x="380" y="485"/>
      <point x="299" y="485" type="curve" smooth="yes"/>
      <point x="167" y="485"/>
      <point x="64" y="408"/>
      <point x="44" y="279" type="curve" smooth="yes"/>
      <point x="41" y="260" type="line" smooth="yes"/>
      <point x="16" y="102"/>
      <point x="124" y="-10"/>
    </contour>
    <contour>
      <point x="297" y="25" type="curve" smooth="yes"/>
      <point x="149" y="25"/>
      <point x="60" y="114"/>
      <point x="80" y="253" type="curve" smooth="yes"/>
      <point x="84" y="281" type="line" smooth="yes"/>
      <point x="99" y="386"/>
      <point x="182" y="451"/>
      <point x="302" y="451" type="curve" smooth="yes"/>
      <point x="394" y="451"/>
      <point x="484" y="413"/>
      <point x="528" y="334" type="curve"/>
      <point x="533" y="306"/>
      <point x="536" y="257"/>
      <point x="531" y="225" type="curve" smooth="yes"/>
      <point x="527" y="197" type="line" smooth="yes"/>
      <point x="512" y="90"/>
      <point x="422" y="25"/>
    </contour>
    <contour>
      <point x="252" y="551" type="line"/>
      <point x="589" y="606" type="line"/>
      <point x="596" y="638" type="line"/>
      <point x="259" y="582" type="line"/>
    </contour>
  </outline>
</glyph>
<glyph name="divide" format="2">
  <advance width="720"/>
  <unicode hex="00F7"/>
  <outline>
    <contour>
      <point x="118" y="348" type="line"/>
      <point x="620" y="348" type="line"/>
      <point x="628" y="382" type="line"/>
      <point x="126" y="382" type="line"/>
    </contour>
    <contour>
      <point x="373" y="483" type="line"/>
      <point x="423" y="483" type="line"/>
      <point x="437" y="547" type="line"/>
      <point x="387" y="547" type="line"/>
    </contour>
    <contour>
      <point x="309" y="183" type="line"/>
      <point x="359" y="183" type="line"/>
      <point x="373" y="247" type="line"/>
      <point x="323" y="247" type="line"/>
    </contour>
  </outline>
</glyph>
<glyph name="thorn" format="2">
  <advance width="649"/>
  <unicode hex="00FE"/>
  <outline>
    <contour>
      <point x="-23" y="-167" type="line"/>
      <point x="15" y="-167" type="line"/>
      <point x="78" y="135" type="line"/>
      <point x="81" y="135" type="line"/>
      <point x="115" y="49"/>
      <point x="203" y="-9"/>
      <point x="320" y="-9" type="curve" smooth="yes"/>
      <point x="464" y="-9"/>
      <point x="574" y="72"/>
      <point x="600" y="214" type="curve" smooth="yes"/>
      <point x="602" y="225" type="line" smooth="yes"/>
      <point x="634" y="401"/>
      <point x="529" y="526"/>
      <point x="354" y="526" type="curve" smooth="yes"/>
      <point x="276" y="526"/>
      <point x="192" y="496"/>
      <point x="145" y="443" type="curve"/>
      <point x="143" y="443" type="line"/>
      <point x="203" y="729" type="line"/>
      <point x="165" y="729" type="line"/>
    </contour>
    <contour>
      <point x="320" y="26" type="curve" smooth="yes"/>
      <point x="206" y="26"/>
      <point x="115" y="86"/>
      <point x="90" y="192" type="curve"/>
      <point x="131" y="387" type="line"/>
      <point x="175" y="451"/>
      <point x="254" y="490"/>
      <point x="350" y="490" type="curve" smooth="yes"/>
      <point x="500" y="490"/>
      <point x="597" y="387"/>
      <point x="563" y="234" type="curve" smooth="yes"/>
      <point x="554" y="193" type="line" smooth="yes"/>
      <point x="532" y="93"/>
      <point x="446" y="26"/>
    </contour>
  </outline>
</glyph>
<glyph name="idotless" format="2">
  <advance width="171"/>
  <unicode hex="0131"/>
  <anchor x="31" y="0" name="bottom"/>
  <anchor x="51" y="0" name="ogonek"/>
  <anchor x="140" y="516" name="top"/>
  <outline>
    <contour>
      <point x="13" y="0" type="line"/>
      <point x="51" y="0" type="line"/>
      <point x="158" y="516" type="line"/>
      <point x="120" y="516" type="line"/>
    </contour>
  </outline>
</glyph>
<glyph name="Eng" format="2">
  <advance width="892"/>
  <unicode hex="014A"/>
  <outline>
    <contour>
      <point x="500" y="-167" type="line"/>
      <point x="678" y="-167" type="line" smooth="yes"/>
      <point x="705" y="-167"/>
      <point x="726" y="-155"/>
      <point x="733" y="-123" type="curve" smooth="yes"/>
      <point x="912" y="729" type="line"/>
      <point x="869" y="729" type="line"/>
      <point x="727" y="49" type="line"/>
      <point x="720" y="49" type="line"/>
      <point x="705" y="71" type="line"/>
      <point x="231" y="729" type="line"/>
      <point x="178" y="729" type="line"/>
      <point x="25" y="0" type="line"/>
      <point x="67" y="0" type="line"/>
      <point x="209" y="680" type="line"/>
      <point x="216" y="680" type="line"/>
      <point x="227" y="663" type="line"/>
      <point x="706" y="0" type="line"/>
      <point x="718" y="0" type="line"/>
      <point x="691" y="-127" type="line"/>
      <point x="508" y="-127" type="line"/>
    </contour>
  </outline>
</glyph>
<glyph name="eng" format="2">
  <advance width="619"/>
  <unicode hex="014B"/>
  <outline>
    <contour>
      <point x="282" y="-167" type="line"/>
      <point x="425" y="-167" type="line" smooth="yes"/>
      <point x="453" y="-167"/>
      <point x="476" y="-153"/>
      <point x="484" y="-117" type="curve" smooth="yes"/>
      <point x="570" y="289" type="line" smooth="yes"/>
      <point x="599" y="426"/>
      <point x="535" y="526"/>
      <point x="392" y="526" type="curve" smooth="yes"/>
      <point x="298" y="526"/>
      <point x="202" y="483"/>
      <point x="139" y="412" type="curve"/>
      <point x="135" y="412" type="line"/>
      <point x="156" y="516" type="line"/>
      <point x="120" y="516" type="line"/>
      <point x="12" y="0" type="line"/>
      <point x="50" y="0" type="line"/>
      <point x="125" y="356" type="line"/>
      <point x="184" y="437"/>
      <point x="280" y="490"/>
      <point x="384" y="490" type="curve" smooth="yes"/>
      <point x="508" y="490"/>
      <point x="557" y="406"/>
      <point x="531" y="283" type="curve" smooth="yes"/>
      <point x="443" y="-132" type="line"/>
      <point x="289" y="-132" type="line"/>
    </contour>
  </outline>
</glyph>
<glyph name="florin" format="2">
  <advance width="562"/>
  <unicode hex="0192"/>
  <outline>
    <contour>
      <point x="186" y="-31" type="curve"/>
      <point x="441" y="691" type="line"/>
      <point x="628" y="691" type="line"/>
      <point x="637" y="729" type="line"/>
      <point x="467" y="729" type="line" smooth="yes"/>
      <point x="431" y="729"/>
      <point x="409" y="711"/>
      <point x="396" y="674" type="curve" smooth="yes"/>
      <point x="142" y="-47" type="line"/>
      <point x="-39" y="-47" type="line"/>
      <point x="-48" y="-85" type="line"/>
      <point x="114" y="-85" type="line" smooth="yes"/>
      <point x="152" y="-85"/>
      <point x="174" y="-65"/>
    </contour>
    <contour>
      <point x="129" y="402" type="line"/>
      <point x="543" y="402" type="line"/>
      <point x="551" y="438" type="line"/>
      <point x="137" y="438" type="line"/>
    </contour>
  </outline>
</glyph>
<glyph name="jdotless" format="2">
  <advance width="169"/>
  <unicode hex="0237"/>
  <anchor x="139" y="516" name="top"/>
  <outline>
    <contour>
      <point x="-121" y="-167" type="line"/>
      <point x="-32" y="-167" type="line" smooth="yes"/>
      <point x="-5" y="-167"/>
      <point x="17" y="-155"/>
      <point x="23" y="-123" type="curve" smooth="yes"/>
      <point x="158" y="516" type="line"/>
      <point x="120" y="516" type="line"/>
      <point x="-15" y="-132" type="line"/>
      <point x="-113" y="-132" type="line"/>
    </contour>
  </outline>
</glyph>
<glyph name="gravecomb" format="2">
  <unicode hex="0300"/>
  <anchor x="187" y="516" name="_top"/>
  <outline>
    <contour>
      <point x="186" y="594" type="line"/>
      <point x="222" y="594" type="line"/>
      <point x="177" y="730" type="line"/>
      <point x="140" y="730" type="line"/>
    </contour>
  </outline>
</glyph>
<glyph name="acutecomb" format="2">
  <unicode hex="0301"/>
  <anchor x="115" y="516" name="_top"/>
  <outline>
    <contour>
      <point x="111" y="594" type="line"/>
      <point x="153" y="594" type="line"/>
      <point x="255" y="730" type="line"/>
      <point x="212" y="730" type="line"/>
    </contour>
  </outline>
</glyph>
<glyph name="circumflexcomb" format="2">
  <unicode hex="0302"/>
  <anchor x="240" y="516" name="_top"/>
  <outline>
    <contour>
      <point x="111" y="594" type="line"/>
      <point x="163" y="594" type="line"/>
      <point x="279" y="697" type="line"/>
      <point x="358" y="594" type="line"/>
      <point x="403" y="594" type="line"/>
      <point x="299" y="729" type="line"/>
      <point x="266" y="729" type="line"/>
    </contour>
  </outline>
</glyph>
<glyph name="tildecomb" format="2">
  <unicode hex="0303"/>
  <anchor x="233" y="516" name="_top"/>
  <outline>
    <contour>
      <point x="327" y="610" type="curve" smooth="yes"/>
      <point x="366" y="610"/>
      <point x="395" y="632"/>
      <point x="410" y="690" type="curve"/>
      <point x="386" y="690" type="line"/>
      <point x="378" y="662"/>
      <point x="364" y="644"/>
      <point x="336" y="644" type="curve" smooth="yes"/>
      <point x="291" y="644"/>
      <point x="249" y="689"/>
      <point x="196" y="689" type="curve" smooth="yes"/>
      <point x="158" y="689"/>
      <point x="127" y="662"/>
      <point x="115" y="609" type="curve"/>
      <point x="139" y="609" type="line"/>
      <point x="146" y="636"/>
      <point x="160" y="654"/>
      <point x="188" y="654" type="curve" smooth="yes"/>
      <point x="232" y="654"/>
      <point x="272" y="610"/>
    </contour>
  </outline>
</glyph>
<glyph name="macroncomb" format="2">
  <unicode hex="0304"/>
  <anchor x="291" y="516" name="_top"/>
  <outline>
    <contour>
      <point x="124" y="646" type="line"/>
      <point x="504" y="646" type="line"/>
      <point x="510" y="681" type="line"/>
      <point x="130" y="681" type="line"/>
    </contour>
  </outline>
</glyph>
<glyph name="brevecomb" format="2">
  <unicode hex="0306"/>
  <anchor x="237" y="516" name="_top"/>
  <outline>
    <contour>
      <point x="255" y="589" type="curve" smooth="yes"/>
      <point x="345" y="589"/>
      <point x="401" y="639"/>
      <point x="416" y="730" type="curve"/>
      <point x="378" y="730" type="line"/>
      <point x="367" y="660"/>
      <point x="323" y="621"/>
      <point x="260" y="621" type="curve" smooth="yes"/>
      <point x="194" y="621"/>
      <point x="167" y="659"/>
      <point x="179" y="730" type="curve"/>
      <point x="140" y="730" type="line"/>
      <point x="127" y="645"/>
      <point x="173" y="589"/>
    </contour>
  </outline>
</glyph>
<glyph name="dotaccentcomb" format="2">
  <unicode hex="0307"/>
  <anchor x="113" y="516" name="_top"/>
  <outline>
    <contour>
      <point x="116" y="617" type="line"/>
      <point x="153" y="617" type="line"/>
      <point x="177" y="730" type="line"/>
      <point x="140" y="730" type="line"/>
    </contour>
  </outline>
</glyph>
<glyph name="dieresiscomb" format="2">
  <unicode hex="0308"/>
  <anchor x="179" y="516" name="_top"/>
  <outline>
    <contour>
      <point x="116" y="617" type="line"/>
      <point x="153" y="617" type="line"/>
      <point x="177" y="730" type="line"/>
      <point x="140" y="730" type="line"/>
    </contour>
    <contour>
      <point x="249" y="617" type="line"/>
      <point x="286" y="617" type="line"/>
      <point x="310" y="730" type="line"/>
      <point x="273" y="730" type="line"/>
    </contour>
  </outline>
</glyph>
<glyph name="hookabovecomb" format="2">
  <unicode hex="0309"/>
  <anchor x="158" y="516" name="_top"/>
  <outline>
    <contour>
      <point x="155" y="574" type="line"/>
      <point x="227" y="603"/>
      <point x="269" y="638"/>
      <point x="269" y="689" type="curve" smooth="yes"/>
      <point x="269" y="730"/>
      <point x="239" y="757"/>
      <point x="186" y="757" type="curve" smooth="yes"/>
      <point x="172" y="757"/>
      <point x="156" y="755"/>
      <point x="145" y="752" type="curve"/>
      <point x="140" y="724" type="line"/>
      <point x="149" y="726"/>
      <point x="164" y="728"/>
      <point x="180" y="728" type="curve" smooth="yes"/>
      <point x="213" y="728"/>
      <point x="234" y="715"/>
      <point x="234" y="687" type="curve" smooth="yes"/>
      <point x="234" y="654"/>
      <point x="212" y="630"/>
      <point x="141" y="601" type="curve"/>
    </contour>
  </outline>
</glyph>
<glyph name="ringcomb" format="2">
  <unicode hex="030A"/>
  <anchor x="242" y="516" name="_top"/>
  <outline>
    <contour>
      <point x="223" y="587" type="curve" smooth="yes"/>
      <point x="289" y="587"/>
      <point x="340" y="628"/>
      <point x="350" y="687" type="curve" smooth="yes"/>
      <point x="361" y="747"/>
      <point x="323" y="785"/>
      <point x="257" y="785" type="curve" smooth="yes"/>
      <point x="194" y="785"/>
      <point x="141" y="745"/>
      <point x="131" y="685" type="curve" smooth="yes"/>
      <point x="121" y="627"/>
      <point x="160" y="587"/>
    </contour>
    <contour>
      <point x="228" y="617" type="curve" smooth="yes"/>
      <point x="186" y="617"/>
      <point x="159" y="645"/>
      <point x="166" y="686" type="curve" smooth="yes"/>
      <point x="173" y="726"/>
      <point x="210" y="755"/>
      <point x="252" y="755" type="curve" smooth="yes"/>
      <point x="298" y="755"/>
      <point x="324" y="727"/>
      <point x="317" y="687" type="curve" smooth="yes"/>
      <point x="310" y="647"/>
      <point x="273" y="617"/>
    </contour>
  </outline>
</glyph>
<glyph name="hungarumlautcomb" format="2">
  <unicode hex="030B"/>
  <anchor x="180" y="516" name="_top"/>
  <outline>
    <contour>
      <point x="111" y="594" type="line"/>
      <point x="153" y="594" type="line"/>
      <point x="254" y="730" type="line"/>
      <point x="212" y="730" type="line"/>
    </contour>
    <contour>
      <point x="241" y="594" type="line"/>
      <point x="283" y="594" type="line"/>
      <point x="384" y="730" type="line"/>
      <point x="342" y="730" type="line"/>
    </contour>
  </outline>
</glyph>
<glyph name="caroncomb" format="2">
  <unicode hex="030C"/>
  <anchor x="241" y="516" name="_top"/>
  <outline>
    <contour>
      <point x="245" y="594" type="line"/>
      <point x="277" y="594" type="line"/>
      <point x="432" y="729" type="line"/>
      <point x="380" y="729" type="line"/>
      <point x="264" y="626" type="line"/>
      <point x="185" y="729" type="line"/>
      <point x="140" y="729" type="line"/>
    </contour>
  </outline>
</glyph>
<glyph name="commaturnedabovecomb" format="2">
  <unicode hex="0312"/>
  <anchor x="120" y="516" name="_top"/>
  <outline>
    <contour>
      <point x="115" y="607" type="line"/>
      <point x="165" y="607" type="line"/>
      <point x="178" y="671" type="line"/>
      <point x="151" y="671" type="line"/>
      <point x="213" y="789" type="line"/>
      <point x="187" y="789" type="line"/>
      <point x="128" y="671" type="line"/>
    </contour>
  </outline>
</glyph>
<glyph name="horncomb" format="2">
  <unicode hex="031B"/>
  <anchor x="99" y="535" name="_topright"/>
  <outline>
    <contour>
      <point x="93" y="507" type="line"/>
      <point x="186" y="507"/>
      <point x="233" y="542"/>
      <point x="251" y="624" type="curve" smooth="yes"/>
      <point x="256" y="648" type="line"/>
      <point x="221" y="648" type="line"/>
      <point x="216" y="625" type="line" smooth="yes"/>
      <point x="202" y="560"/>
      <point x="169" y="535"/>
      <point x="99" y="535" type="curve"/>
    </contour>
  </outline>
</glyph>
<glyph name="dotbelowcomb" format="2">
  <unicode hex="0323"/>
  <anchor x="10" y="0" name="_bottom"/>
  <outline>
    <contour>
      <point x="-46" y="-146" type="line"/>
      <point x="4" y="-146" type="line"/>
      <point x="18" y="-82" type="line"/>
      <point x="-32" y="-82" type="line"/>
    </contour>
  </outline>
</glyph>
<glyph name="commaaccentcomb" format="2">
  <unicode hex="0326"/>
  <anchor x="21" y="0" name="_bottom"/>
  <outline>
    <contour>
      <point x="-63" y="-225" type="line"/>
      <point x="-38" y="-225" type="line"/>
      <point x="17" y="-127" type="line"/>
      <point x="30" y="-67" type="line"/>
      <point x="-17" y="-67" type="line"/>
      <point x="-30" y="-128" type="line"/>
      <point x="-5" y="-128" type="line"/>
    </contour>
  </outline>
</glyph>
<glyph name="cedillacomb" format="2">
  <unicode hex="0327"/>
  <anchor x="73" y="0" name="_bottom"/>
  <outline>
    <contour>
      <point x="55" y="-206" type="curve" smooth="yes"/>
      <point x="118" y="-206"/>
      <point x="160" y="-173"/>
      <point x="160" y="-124" type="curve" smooth="yes"/>
      <point x="160" y="-67"/>
      <point x="102" y="-41"/>
      <point x="52" y="-51" type="curve"/>
      <point x="65" y="-57" type="line"/>
      <point x="93" y="6" type="line"/>
      <point x="58" y="6" type="line"/>
      <point x="32" y="-56" type="line"/>
      <point x="42" y="-76" type="line"/>
      <point x="72" y="-69"/>
      <point x="125" y="-75"/>
      <point x="125" y="-122" type="curve" smooth="yes"/>
      <point x="125" y="-154"/>
      <point x="100" y="-175"/>
      <point x="56" y="-175" type="curve" smooth="yes"/>
      <point x="23" y="-175"/>
      <point x="-3" y="-161"/>
      <point x="-9" y="-137" type="curve"/>
      <point x="-44" y="-137" type="line"/>
      <point x="-39" y="-178"/>
      <point x="1" y="-206"/>
    </contour>
  </outline>
</glyph>
<glyph name="ogonekcomb" format="2">
  <unicode hex="0328"/>
  <anchor x="103" y="0" name="_ogonek"/>
  <outline>
    <contour>
      <point x="31" y="-177" type="curve" smooth="yes"/>
      <point x="51" y="-177"/>
      <point x="73" y="-173"/>
      <point x="87" y="-165" type="curve"/>
      <point x="93" y="-137" type="line"/>
      <point x="78" y="-145"/>
      <point x="55" y="-149"/>
      <point x="39" y="-149" type="curve" smooth="yes"/>
      <point x="11" y="-149"/>
      <point x="-5" y="-137"/>
      <point x="-5" y="-114" type="curve" smooth="yes"/>
      <point x="-5" y="-78"/>
      <point x="37" y="-40"/>
      <point x="104" y="0" type="curve"/>
      <point x="97" y="19" type="line"/>
      <point x="93" y="23" type="line"/>
      <point x="10" y="-24"/>
      <point x="-38" y="-71"/>
      <point x="-38" y="-119" type="curve" smooth="yes"/>
      <point x="-38" y="-155"/>
      <point x="-11" y="-177"/>
    </contour>
  </outline>
</glyph>
<glyph name="slashshortcomb" format="2">
  <unicode hex="0337"/>
  <anchor x="163" y="365" name="_center"/>
  <outline>
    <contour>
      <point x="47" y="290" type="line"/>
      <point x="270" y="402" type="line"/>
      <point x="278" y="439" type="line"/>
      <point x="55" y="327" type="line"/>
    </contour>
  </outline>
</glyph>
<glyph name="slashlongcomb" format="2">
  <unicode hex="0338"/>
  <anchor x="313" y="259" name="_center"/>
  <outline>
    <contour>
      <point x="-19" y="-20" type="line"/>
      <point x="27" y="-20" type="line"/>
      <point x="645" y="536" type="line"/>
      <point x="599" y="536" type="line"/>
    </contour>
  </outline>
</glyph>
<glyph name="mu" format="2">
  <advance width="619"/>
  <unicode hex="03BC"/>
  <outline>
    <contour>
      <point x="-26" y="-132" type="line"/>
      <point x="12" y="-132" type="line"/>
      <point x="60" y="96" type="line"/>
      <point x="54" y="96" type="line"/>
      <point x="77" y="32"/>
      <point x="135" y="-10"/>
      <point x="227" y="-10" type="curve" smooth="yes"/>
      <point x="321" y="-10"/>
      <point x="417" y="33"/>
      <point x="480" y="104" type="curve"/>
      <point x="484" y="104" type="line"/>
      <point x="463" y="0" type="line"/>
      <point x="499" y="0" type="line"/>
      <point x="607" y="516" type="line"/>
      <point x="569" y="516" type="line"/>
      <point x="494" y="160" type="line"/>
      <point x="435" y="79"/>
      <point x="339" y="26"/>
      <point x="235" y="26" type="curve" smooth="yes"/>
      <point x="118" y="26"/>
      <point x="62" y="102"/>
      <point x="85" y="213" type="curve" smooth="yes"/>
      <point x="148" y="516" type="line"/>
      <point x="110" y="516" type="line"/>
    </contour>
  </outline>
</glyph>
<glyph name="pi" format="2">
  <advance width="642"/>
  <unicode hex="03C0"/>
  <outline>
    <contour>
      <point x="83" y="0" type="line"/>
      <point x="121" y="0" type="line"/>
      <point x="223" y="481" type="line"/>
      <point x="511" y="481" type="line"/>
      <point x="421" y="58" type="line" smooth="yes"/>
      <point x="414" y="24"/>
      <point x="420" y="0"/>
      <point x="465" y="0" type="curve"/>
      <point x="558" y="0" type="line"/>
      <point x="566" y="36" type="line"/>
      <point x="455" y="36" type="line"/>
      <point x="549" y="481" type="line"/>
      <point x="661" y="481" type="line"/>
      <point x="669" y="516" type="line"/>
      <point x="80" y="516" type="line"/>
      <point x="72" y="481" type="line"/>
      <point x="185" y="481" type="line"/>
    </contour>
  </outline>
</glyph>
<glyph name="Germandbls" format="2">
  <advance width="749"/>
  <unicode hex="1E9E"/>
  <outline>
    <contour>
      <point x="24" y="0" type="line"/>
      <point x="64" y="0" type="line"/>
      <point x="210" y="689" type="line"/>
      <point x="681" y="689" type="line"/>
      <point x="381" y="414" type="line"/>
      <point x="373" y="378" type="line"/>
      <point x="494" y="378" type="line" smooth="yes"/>
      <point x="611" y="378"/>
      <point x="667" y="306"/>
      <point x="645" y="198" type="curve" smooth="yes"/>
      <point x="639" y="168" type="line" smooth="yes"/>
      <point x="624" y="91"/>
      <point x="549" y="39"/>
      <point x="428" y="39" type="curve" smooth="yes"/>
      <point x="158" y="39" type="line"/>
      <point x="150" y="0" type="line"/>
      <point x="425" y="0" type="line" smooth="yes"/>
      <point x="569" y="0"/>
      <point x="670" y="69"/>
      <point x="690" y="193" type="curve" smooth="yes"/>
      <point x="711" y="330"/>
      <point x="629" y="416"/>
      <point x="493" y="416" type="curve" smooth="yes"/>
      <point x="426" y="416" type="line"/>
      <point x="440" y="398" type="line"/>
      <point x="447" y="424" type="line"/>
      <point x="721" y="675" type="line"/>
      <point x="732" y="729" type="line"/>
      <point x="178" y="729" type="line"/>
    </contour>
  </outline>
</glyph>
<glyph name="endash" format="2">
  <advance width="514"/>
  <unicode hex="2013"/>
  <outline>
    <contour>
      <point x="55" y="301" type="line"/>
      <point x="477" y="301" type="line"/>
      <point x="485" y="337" type="line"/>
      <point x="63" y="337" type="line"/>
    </contour>
  </outline>
</glyph>
<glyph name="emdash" format="2">
  <advance width="698"/>
  <unicode hex="2014"/>
  <outline>
    <contour>
      <point x="55" y="301" type="line"/>
      <point x="661" y="301" type="line"/>
      <point x="669" y="337" type="line"/>
      <point x="63" y="337" type="line"/>
    </contour>
  </outline>
</glyph>
<glyph name="bullet" format="2">
  <advance width="285"/>
  <unicode hex="2022"/>
  <outline>
    <contour>
      <point x="33" y="277" type="curve" smooth="yes"/>
      <point x="33" y="214"/>
      <point x="82" y="167"/>
      <point x="146" y="167" type="curve" smooth="yes"/>
      <point x="214" y="167"/>
      <point x="259" y="214"/>
      <point x="259" y="277" type="curve" smooth="yes"/>
      <point x="259" y="341"/>
      <point x="214" y="388"/>
      <point x="146" y="388" type="curve" smooth="yes"/>
      <point x="82" y="388"/>
      <point x="33" y="341"/>
    </contour>
  </outline>
</glyph>
<glyph name="perthousand" format="2">
  <advance width="1373"/>
  <unicode hex="2030"/>
  <outline>
    <contour>
      <point x="270" y="339" type="curve" smooth="yes"/>
      <point x="357" y="339"/>
      <point x="426" y="391"/>
      <point x="450" y="503" type="curve" smooth="yes"/>
      <point x="454" y="522" type="line" smooth="yes"/>
      <point x="481" y="652"/>
      <point x="428" y="739"/>
      <point x="293" y="739" type="curve" smooth="yes"/>
      <point x="206" y="739"/>
      <point x="137" y="687"/>
      <point x="113" y="575" type="curve" smooth="yes"/>
      <point x="109" y="556" type="line" smooth="yes"/>
      <point x="82" y="426"/>
      <point x="135" y="339"/>
    </contour>
    <contour>
      <point x="270" y="369" type="curve" smooth="yes"/>
      <point x="173" y="369"/>
      <point x="118" y="425"/>
      <point x="139" y="525" type="curve" smooth="yes"/>
      <point x="154" y="597" type="line" smooth="yes"/>
      <point x="168" y="664"/>
      <point x="219" y="709"/>
      <point x="293" y="709" type="curve" smooth="yes"/>
      <point x="390" y="709"/>
      <point x="445" y="653"/>
      <point x="424" y="553" type="curve" smooth="yes"/>
      <point x="409" y="481" type="line" smooth="yes"/>
      <point x="395" y="414"/>
      <point x="344" y="369"/>
    </contour>
    <contour>
      <point x="143" y="0" type="line"/>
      <point x="186" y="0" type="line"/>
      <point x="867" y="729" type="line"/>
      <point x="823" y="729" type="line"/>
    </contour>
    <contour>
      <point x="718" y="-9" type="curve" smooth="yes"/>
      <point x="805" y="-9"/>
      <point x="874" y="43"/>
      <point x="898" y="155" type="curve" smooth="yes"/>
      <point x="902" y="174" type="line" smooth="yes"/>
      <point x="929" y="304"/>
      <point x="876" y="391"/>
      <point x="741" y="391" type="curve" smooth="yes"/>
      <point x="654" y="391"/>
      <point x="585" y="339"/>
      <point x="561" y="227" type="curve" smooth="yes"/>
      <point x="557" y="208" type="line" smooth="yes"/>
      <point x="530" y="78"/>
      <point x="583" y="-9"/>
    </contour>
    <contour>
      <point x="718" y="21" type="curve" smooth="yes"/>
      <point x="621" y="21"/>
      <point x="566" y="77"/>
      <point x="587" y="177" type="curve" smooth="yes"/>
      <point x="602" y="249" type="line" smooth="yes"/>
      <point x="616" y="316"/>
      <point x="667" y="361"/>
      <point x="741" y="361" type="curve" smooth="yes"/>
      <point x="838" y="361"/>
      <point x="893" y="305"/>
      <point x="872" y="205" type="curve" smooth="yes"/>
      <point x="857" y="133" type="line" smooth="yes"/>
      <point x="843" y="66"/>
      <point x="792" y="21"/>
    </contour>
    <contour>
      <point x="1125" y="-9" type="curve" smooth="yes"/>
      <point x="1212" y="-9"/>
      <point x="1281" y="43"/>
      <point x="1305" y="155" type="curve" smooth="yes"/>
      <point x="1309" y="174" type="line" smooth="yes"/>
      <point x="1336" y="304"/>
      <point x="1283" y="391"/>
      <point x="1148" y="391" type="curve" smooth="yes"/>
      <point x="1061" y="391"/>
      <point x="992" y="339"/>
      <point x="968" y="227" type="curve" smooth="yes"/>
      <point x="964" y="208" type="line" smooth="yes"/>
      <point x="937" y="78"/>
      <point x="990" y="-9"/>
    </contour>
    <contour>
      <point x="1125" y="21" type="curve" smooth="yes"/>
      <point x="1028" y="21"/>
      <point x="974" y="77"/>
      <point x="994" y="177" type="curve" smooth="yes"/>
      <point x="1009" y="249" type="line" smooth="yes"/>
      <point x="1023" y="316"/>
      <point x="1074" y="361"/>
      <point x="1148" y="361" type="curve" smooth="yes"/>
      <point x="1245" y="361"/>
      <point x="1299" y="305"/>
      <point x="1279" y="205" type="curve" smooth="yes"/>
      <point x="1264" y="133" type="line" smooth="yes"/>
      <point x="1250" y="66"/>
      <point x="1199" y="21"/>
    </contour>
  </outline>
</glyph>
<glyph name="guilsinglleft" format="2">
  <advance width="274"/>
  <unicode hex="2039"/>
  <anchor x="2" y="0" name="#entry"/>
  <anchor x="181" y="0" name="#exit"/>
  <outline>
    <contour>
      <point x="152" y="60" type="line"/>
      <point x="183" y="60" type="line"/>
      <point x="92" y="285" type="line"/>
      <point x="285" y="516" type="line"/>
      <point x="248" y="516" type="line"/>
      <point x="48" y="288" type="line"/>
    </contour>
  </outline>
</glyph>
<glyph name="fraction" format="2">
  <advance width="134"/>
  <unicode hex="2044"/>
  <outline>
    <contour>
      <point x="-291" y="-46" type="line"/>
      <point x="-247" y="-46" type="line"/>
      <point x="468" y="768" type="line"/>
      <point x="423" y="768" type="line"/>
    </contour>
  </outline>
</glyph>
<glyph name="zeroinferior" format="2">
  <advance width="503"/>
  <unicode hex="2080"/>
  <outline>
    <contour>
      <point x="206" y="-66" type="curve" smooth="yes"/>
      <point x="318" y="-66"/>
      <point x="405" y="-10"/>
      <point x="431" y="136" type="curve" smooth="yes"/>
      <point x="433" y="146" type="line" smooth="yes"/>
      <point x="460" y="281"/>
      <point x="397" y="383"/>
      <point x="256" y="383" type="curve" smooth="yes"/>
      <point x="143" y="383"/>
      <point x="56" y="327"/>
      <point x="30" y="182" type="curve" smooth="yes"/>
      <point x="28" y="171" type="line" smooth="yes"/>
      <point x="4" y="39"/>
      <point x="63" y="-66"/>
    </contour>
    <contour>
      <point x="208" y="-33" type="curve" smooth="yes"/>
      <point x="107" y="-33"/>
      <point x="45" y="30"/>
      <point x="67" y="148" type="curve" smooth="yes"/>
      <point x="77" y="202" type="line" smooth="yes"/>
      <point x="94" y="293"/>
      <point x="151" y="350"/>
      <point x="253" y="350" type="curve" smooth="yes"/>
      <point x="362" y="350"/>
      <point x="413" y="280"/>
      <point x="394" y="169" type="curve" smooth="yes"/>
      <point x="385" y="116" type="line" smooth="yes"/>
      <point x="369" y="23"/>
      <point x="310" y="-33"/>
    </contour>
  </outline>
</glyph>
<glyph name="oneinferior" format="2">
  <advance width="260"/>
  <unicode hex="2081"/>
  <outline>
    <contour>
      <point x="127" y="-60" type="line"/>
      <point x="218" y="377" type="line"/>
      <point x="186" y="377" type="line"/>
      <point x="165" y="305" type="line"/>
      <point x="38" y="305" type="line"/>
      <point x="31" y="271" type="line"/>
      <point x="158" y="271" type="line"/>
      <point x="88" y="-60" type="line"/>
    </contour>
  </outline>
</glyph>
<glyph name="twoinferior" format="2">
  <advance width="434"/>
  <unicode hex="2082"/>
  <outline>
    <contour>
      <point x="-28" y="-60" type="line"/>
      <point x="327" y="-60" type="line"/>
      <point x="334" y="-23" type="line"/>
      <point x="64" y="-23" type="line"/>
      <point x="50" y="-24" type="line"/>
      <point x="50" y="-21" type="line"/>
      <point x="59" y="-16" type="line"/>
      <point x="256" y="92" type="line" smooth="yes"/>
      <point x="334" y="136"/>
      <point x="386" y="182"/>
      <point x="386" y="261" type="curve" smooth="yes"/>
      <point x="386" y="329"/>
      <point x="335" y="383"/>
      <point x="233" y="383" type="curve" smooth="yes"/>
      <point x="134" y="383"/>
      <point x="56" y="335"/>
      <point x="33" y="254" type="curve"/>
      <point x="72" y="253" type="line"/>
      <point x="90" y="310"/>
      <point x="148" y="347"/>
      <point x="230" y="347" type="curve" smooth="yes"/>
      <point x="307" y="347"/>
      <point x="354" y="310"/>
      <point x="345" y="248" type="curve" smooth="yes"/>
      <point x="344" y="241" type="line" smooth="yes"/>
      <point x="336" y="186"/>
      <point x="299" y="155"/>
      <point x="232" y="117" type="curve" smooth="yes"/>
      <point x="-23" y="-27" type="line"/>
    </contour>
  </outline>
</glyph>
<glyph name="threeinferior" format="2">
  <advance width="447"/>
  <unicode hex="2083"/>
  <outline>
    <contour>
      <point x="162" y="-66" type="curve" smooth="yes"/>
      <point x="272" y="-66"/>
      <point x="357" y="-23"/>
      <point x="363" y="61" type="curve" smooth="yes"/>
      <point x="367" y="117"/>
      <point x="333" y="155"/>
      <point x="278" y="166" type="curve"/>
      <point x="278" y="170" type="line"/>
      <point x="336" y="179"/>
      <point x="383" y="205"/>
      <point x="393" y="256" type="curve" smooth="yes"/>
      <point x="409" y="337"/>
      <point x="343" y="383"/>
      <point x="243" y="383" type="curve" smooth="yes"/>
      <point x="141" y="383"/>
      <point x="60" y="336"/>
      <point x="42" y="263" type="curve"/>
      <point x="80" y="263" type="line"/>
      <point x="96" y="317"/>
      <point x="160" y="349"/>
      <point x="240" y="349" type="curve" smooth="yes"/>
      <point x="316" y="349"/>
      <point x="370" y="319"/>
      <point x="356" y="263" type="curve" smooth="yes"/>
      <point x="354" y="256" type="line" smooth="yes"/>
      <point x="344" y="216"/>
      <point x="297" y="186"/>
      <point x="224" y="186" type="curve" smooth="yes"/>
      <point x="180" y="186" type="line"/>
      <point x="173" y="153" type="line"/>
      <point x="219" y="153" type="line" smooth="yes"/>
      <point x="286" y="153"/>
      <point x="334" y="122"/>
      <point x="323" y="62" type="curve" smooth="yes"/>
      <point x="321" y="52" type="line" smooth="yes"/>
      <point x="311" y="-3"/>
      <point x="248" y="-32"/>
      <point x="162" y="-32" type="curve" smooth="yes"/>
      <point x="85" y="-32"/>
      <point x="33" y="2"/>
      <point x="33" y="63" type="curve"/>
      <point x="-6" y="63" type="line"/>
      <point x="-7" y="-15"/>
      <point x="63" y="-66"/>
    </contour>
  </outline>
</glyph>
<glyph name="fourinferior" format="2">
  <advance width="479"/>
  <unicode hex="2084"/>
  <outline>
    <contour>
      <point x="242" y="-60" type="line"/>
      <point x="280" y="-60" type="line"/>
      <point x="304" y="50" type="line"/>
      <point x="407" y="50" type="line"/>
      <point x="413" y="85" type="line"/>
      <point x="310" y="85" type="line"/>
      <point x="332" y="186" type="line"/>
      <point x="299" y="186" type="line"/>
      <point x="271" y="85" type="line"/>
      <point x="39" y="85" type="line"/>
      <point x="40" y="89" type="line"/>
      <point x="321" y="377" type="line"/>
      <point x="275" y="377" type="line"/>
      <point x="-7" y="87" type="line"/>
      <point x="-15" y="50" type="line"/>
      <point x="264" y="50" type="line"/>
    </contour>
  </outline>
</glyph>
<glyph name="fiveinferior" format="2">
  <advance width="464"/>
  <unicode hex="2085"/>
  <outline>
    <contour>
      <point x="175" y="-66" type="curve" smooth="yes"/>
      <point x="296" y="-66"/>
      <point x="381" y="-12"/>
      <point x="387" y="85" type="curve" smooth="yes"/>
      <point x="393" y="181"/>
      <point x="318" y="222"/>
      <point x="236" y="222" type="curve" smooth="yes"/>
      <point x="170" y="222"/>
      <point x="112" y="202"/>
      <point x="76" y="172" type="curve"/>
      <point x="70" y="172" type="line"/>
      <point x="118" y="342" type="line"/>
      <point x="426" y="342" type="line"/>
      <point x="432" y="377" type="line"/>
      <point x="89" y="377" type="line"/>
      <point x="28" y="140" type="line"/>
      <point x="70" y="135" type="line"/>
      <point x="104" y="169"/>
      <point x="160" y="190"/>
      <point x="227" y="190" type="curve" smooth="yes"/>
      <point x="303" y="190"/>
      <point x="353" y="154"/>
      <point x="345" y="75" type="curve" smooth="yes"/>
      <point x="344" y="65" type="line" smooth="yes"/>
      <point x="338" y="6"/>
      <point x="277" y="-32"/>
      <point x="176" y="-32" type="curve" smooth="yes"/>
      <point x="105" y="-32"/>
      <point x="48" y="-2"/>
      <point x="48" y="62" type="curve"/>
      <point x="8" y="62" type="line"/>
      <point x="7" y="-14"/>
      <point x="76" y="-66"/>
    </contour>
  </outline>
</glyph>
<glyph name="sixinferior" format="2">
  <advance width="476"/>
  <unicode hex="2086"/>
  <outline>
    <contour>
      <point x="204" y="-66" type="curve" smooth="yes"/>
      <point x="316" y="-66"/>
      <point x="384" y="-10"/>
      <point x="397" y="65" type="curve" smooth="yes"/>
      <point x="417" y="154"/>
      <point x="349" y="224"/>
      <point x="246" y="224" type="curve" smooth="yes"/>
      <point x="173" y="224"/>
      <point x="114" y="203"/>
      <point x="67" y="167" type="curve"/>
      <point x="63" y="167" type="line"/>
      <point x="68" y="185"/>
      <point x="70" y="193"/>
      <point x="75" y="213" type="curve" smooth="yes"/>
      <point x="95" y="300"/>
      <point x="151" y="350"/>
      <point x="251" y="350" type="curve" smooth="yes"/>
      <point x="320" y="350"/>
      <point x="371" y="321"/>
      <point x="381" y="274" type="curve"/>
      <point x="422" y="274" type="line"/>
      <point x="408" y="339"/>
      <point x="345" y="384"/>
      <point x="250" y="384" type="curve" smooth="yes"/>
      <point x="148" y="384"/>
      <point x="61" y="333"/>
      <point x="35" y="205" type="curve" smooth="yes"/>
      <point x="24" y="151" type="line" smooth="yes"/>
      <point x="-2" y="23"/>
      <point x="66" y="-66"/>
    </contour>
    <contour>
      <point x="206" y="-32" type="curve" smooth="yes"/>
      <point x="100" y="-32"/>
      <point x="38" y="30"/>
      <point x="57" y="123" type="curve" smooth="yes"/>
      <point x="58" y="128" type="line"/>
      <point x="101" y="169"/>
      <point x="165" y="194"/>
      <point x="238" y="194" type="curve" smooth="yes"/>
      <point x="319" y="194"/>
      <point x="370" y="152"/>
      <point x="358" y="75" type="curve" smooth="yes"/>
      <point x="356" y="63" type="line" smooth="yes"/>
      <point x="347" y="5"/>
      <point x="286" y="-32"/>
    </contour>
  </outline>
</glyph>
<glyph name="seveninferior" format="2">
  <advance width="429"/>
  <unicode hex="2087"/>
  <outline>
    <contour>
      <point x="93" y="-60" type="line"/>
      <point x="418" y="340" type="line"/>
      <point x="425" y="377" type="line"/>
      <point x="59" y="377" type="line"/>
      <point x="36" y="263" type="line"/>
      <point x="68" y="263" type="line"/>
      <point x="85" y="341" type="line"/>
      <point x="369" y="341" type="line"/>
      <point x="367" y="334" type="line"/>
      <point x="44" y="-60" type="line"/>
    </contour>
  </outline>
</glyph>
<glyph name="eightinferior" format="2">
  <advance width="469"/>
  <unicode hex="2088"/>
  <outline>
    <contour>
      <point x="189" y="-65" type="curve" smooth="yes"/>
      <point x="292" y="-65"/>
      <point x="388" y="-29"/>
      <point x="388" y="65" type="curve" smooth="yes"/>
      <point x="388" y="121"/>
      <point x="345" y="152"/>
      <point x="287" y="163" type="curve"/>
      <point x="288" y="166" type="line"/>
      <point x="365" y="177"/>
      <point x="410" y="221"/>
      <point x="410" y="278" type="curve" smooth="yes"/>
      <point x="410" y="342"/>
      <point x="344" y="383"/>
      <point x="236" y="383" type="curve" smooth="yes"/>
      <point x="129" y="383"/>
      <point x="50" y="344"/>
      <point x="50" y="264" type="curve" smooth="yes"/>
      <point x="50" y="225"/>
      <point x="74" y="188"/>
      <point x="138" y="173" type="curve"/>
      <point x="138" y="169" type="line"/>
      <point x="66" y="161"/>
      <point x="2" y="123"/>
      <point x="2" y="47" type="curve" smooth="yes"/>
      <point x="2" y="-27"/>
      <point x="79" y="-65"/>
    </contour>
    <contour>
      <point x="192" y="-31" type="curve" smooth="yes"/>
      <point x="110" y="-31"/>
      <point x="34" y="-6"/>
      <point x="44" y="56" type="curve" smooth="yes"/>
      <point x="47" y="74" type="line" smooth="yes"/>
      <point x="57" y="136"/>
      <point x="128" y="152"/>
      <point x="200" y="152" type="curve" smooth="yes"/>
      <point x="270" y="152"/>
      <point x="356" y="132"/>
      <point x="345" y="63" type="curve" smooth="yes"/>
      <point x="342" y="45" type="line" smooth="yes"/>
      <point x="333" y="-11"/>
      <point x="268" y="-31"/>
    </contour>
    <contour>
      <point x="225" y="181" type="curve" smooth="yes"/>
      <point x="121" y="181"/>
      <point x="84" y="223"/>
      <point x="90" y="261" type="curve" smooth="yes"/>
      <point x="93" y="279" type="line" smooth="yes"/>
      <point x="101" y="329"/>
      <point x="160" y="350"/>
      <point x="234" y="350" type="curve" smooth="yes"/>
      <point x="332" y="350"/>
      <point x="376" y="313"/>
      <point x="369" y="269" type="curve" smooth="yes"/>
      <point x="366" y="251" type="line" smooth="yes"/>
      <point x="358" y="200"/>
      <point x="293" y="181"/>
    </contour>
  </outline>
</glyph>
<glyph name="sheqel" format="2">
  <advance width="769"/>
  <unicode hex="20AA"/>
  <outline>
    <contour>
      <point x="219" y="0" type="line"/>
      <point x="562" y="0" type="line" smooth="yes"/>
      <point x="606" y="0"/>
      <point x="633" y="18"/>
      <point x="644" y="70" type="curve" smooth="yes"/>
      <point x="784" y="729" type="line"/>
      <point x="746" y="729" type="line"/>
      <point x="600" y="40" type="line"/>
      <point x="265" y="40" type="line"/>
      <point x="378" y="570" type="line"/>
      <point x="340" y="570" type="line"/>
    </contour>
    <contour>
      <point x="32" y="0" type="line"/>
      <point x="72" y="0" type="line"/>
      <point x="218" y="689" type="line"/>
      <point x="553" y="689" type="line"/>
      <point x="441" y="160" type="line"/>
      <point x="479" y="160" type="line"/>
      <point x="585" y="661" type="line" smooth="yes"/>
      <point x="596" y="712"/>
      <point x="578" y="729"/>
      <point x="533" y="729" type="curve" smooth="yes"/>
      <point x="186" y="729" type="line"/>
    </contour>
  </outline>
</glyph>
<glyph name="rupeeIndian" format="2">
  <advance width="691"/>
  <unicode hex="20B9"/>
  <outline>
    <contour>
      <point x="463" y="0" type="line"/>
      <point x="522" y="0" type="line"/>
      <point x="131" y="338" type="line"/>
      <point x="126" y="326" type="line"/>
      <point x="326" y="326" type="line" smooth="yes"/>
      <point x="483" y="326"/>
      <point x="588" y="388"/>
      <point x="606" y="520" type="curve" smooth="yes"/>
      <point x="618" y="606"/>
      <point x="573" y="678"/>
      <point x="520" y="698" type="curve"/>
      <point x="512" y="692" type="line"/>
      <point x="735" y="692" type="line"/>
      <point x="742" y="729" type="line"/>
      <point x="153" y="729" type="line"/>
      <point x="145" y="691" type="line"/>
      <point x="412" y="691" type="line" smooth="yes"/>
      <point x="521" y="691"/>
      <point x="579" y="626"/>
      <point x="559" y="528" type="curve" smooth="yes"/>
      <point x="553" y="499" type="line" smooth="yes"/>
      <point x="536" y="418"/>
      <point x="469" y="364"/>
      <point x="327" y="364" type="curve" smooth="yes"/>
      <point x="77" y="364" type="line"/>
      <point x="71" y="337" type="line"/>
    </contour>
    <contour>
      <point x="107" y="509" type="line"/>
      <point x="582" y="509" type="line"/>
      <point x="589" y="546" type="line"/>
      <point x="114" y="546" type="line"/>
    </contour>
    <contour>
      <point x="582" y="509" type="line"/>
      <point x="696" y="509" type="line"/>
      <point x="703" y="546" type="line"/>
      <point x="589" y="546" type="line"/>
    </contour>
  </outline>
</glyph>
<glyph name="liraTurkish" format="2">
  <advance width="675"/>
  <unicode hex="20BA"/>
  <outline>
    <contour>
      <point x="107" y="0" type="line"/>
      <point x="148" y="0" type="line" smooth="yes"/>
      <point x="402" y="0"/>
      <point x="572" y="89"/>
      <point x="640" y="318" type="curve"/>
      <point x="600" y="318" type="line"/>
      <point x="550" y="148"/>
      <point x="416" y="36"/>
      <point x="153" y="39" type="curve"/>
      <point x="299" y="729" type="line"/>
      <point x="261" y="729" type="line"/>
    </contour>
    <contour>
      <point x="56" y="284" type="line"/>
      <point x="504" y="437" type="line"/>
      <point x="512" y="473" type="line"/>
      <point x="64" y="322" type="line"/>
    </contour>
    <contour>
      <point x="90" y="444" type="line"/>
      <point x="538" y="596" type="line"/>
      <point x="546" y="635" type="line"/>
      <point x="98" y="481" type="line"/>
    </contour>
  </outline>
</glyph>
<glyph name="literSign" format="2">
  <advance width="634"/>
  <unicode hex="2113"/>
  <outline>
    <contour>
      <point x="296" y="-10" type="curve" smooth="yes"/>
      <point x="367" y="-10"/>
      <point x="432" y="31"/>
      <point x="482" y="114" type="curve"/>
      <point x="452" y="127" type="line"/>
      <point x="409" y="57"/>
      <point x="358" y="22"/>
      <point x="297" y="22" type="curve" smooth="yes"/>
      <point x="157" y="22"/>
      <point x="180" y="237"/>
      <point x="211" y="400" type="curve" smooth="yes"/>
      <point x="248" y="590"/>
      <point x="324" y="705"/>
      <point x="412" y="705" type="curve" smooth="yes"/>
      <point x="475" y="705"/>
      <point x="507" y="634"/>
      <point x="481" y="508" type="curve" smooth="yes"/>
      <point x="445" y="332"/>
      <point x="287" y="185"/>
      <point x="46" y="157" type="curve"/>
      <point x="44" y="126" type="line"/>
      <point x="286" y="154"/>
      <point x="473" y="301"/>
      <point x="515" y="508" type="curve" smooth="yes"/>
      <point x="543" y="645"/>
      <point x="502" y="737"/>
      <point x="413" y="737" type="curve" smooth="yes"/>
      <point x="307" y="737"/>
      <point x="218" y="612"/>
      <point x="178" y="403" type="curve" smooth="yes"/>
      <point x="138" y="192"/>
      <point x="138" y="-10"/>
    </contour>
  </outline>
</glyph>
<glyph name="numero" format="2">
  <advance width="1320"/>
  <unicode hex="2116"/>
  <outline>
    <contour>
      <point x="25" y="0" type="line"/>
      <point x="67" y="0" type="line"/>
      <point x="209" y="680" type="line"/>
      <point x="216" y="680" type="line"/>
      <point x="227" y="663" type="line"/>
      <point x="706" y="0" type="line"/>
      <point x="759" y="0" type="line"/>
      <point x="912" y="729" type="line"/>
      <point x="869" y="729" type="line"/>
      <point x="727" y="49" type="line"/>
      <point x="720" y="49" type="line"/>
      <point x="705" y="71" type="line"/>
      <point x="231" y="729" type="line"/>
      <point x="178" y="729" type="line"/>
    </contour>
    <contour>
      <point x="955" y="231" type="line"/>
      <point x="1237" y="231" type="line"/>
      <point x="1243" y="263" type="line"/>
      <point x="961" y="263" type="line"/>
    </contour>
    <contour>
      <point x="1125" y="333" type="curve" smooth="yes"/>
      <point x="1242" y="333"/>
      <point x="1324" y="428"/>
      <point x="1324" y="567" type="curve" smooth="yes"/>
      <point x="1324" y="674"/>
      <point x="1265" y="739"/>
      <point x="1159" y="739" type="curve" smooth="yes"/>
      <point x="1042" y="739"/>
      <point x="960" y="644"/>
      <point x="960" y="504" type="curve" smooth="yes"/>
      <point x="960" y="398"/>
      <point x="1019" y="333"/>
    </contour>
    <contour>
      <point x="1122" y="364" type="curve" smooth="yes"/>
      <point x="1040" y="364"/>
      <point x="996" y="418"/>
      <point x="997" y="507" type="curve" smooth="yes"/>
      <point x="1000" y="628"/>
      <point x="1065" y="707"/>
      <point x="1162" y="707" type="curve" smooth="yes"/>
      <point x="1243" y="707"/>
      <point x="1288" y="654"/>
      <point x="1287" y="565" type="curve" smooth="yes"/>
      <point x="1284" y="444"/>
      <point x="1219" y="364"/>
    </contour>
  </outline>
</glyph>
<glyph name="trademark" format="2">
  <advance width="849"/>
  <unicode hex="2122"/>
  <outline>
    <contour>
      <point x="388" y="419" type="line"/>
      <point x="421" y="419" type="line"/>
      <point x="453" y="567" type="line"/>
      <point x="476" y="683" type="line"/>
      <point x="478" y="683" type="line"/>
      <point x="561" y="419" type="line"/>
      <point x="587" y="419" type="line"/>
      <point x="782" y="683" type="line"/>
      <point x="786" y="683" type="line"/>
      <point x="758" y="567" type="line"/>
      <point x="726" y="419" type="line"/>
      <point x="763" y="419" type="line"/>
      <point x="829" y="729" type="line"/>
      <point x="777" y="729" type="line"/>
      <point x="582" y="462" type="line"/>
      <point x="579" y="462" type="line"/>
      <point x="495" y="729" type="line"/>
      <point x="454" y="729" type="line"/>
    </contour>
    <contour>
      <point x="174" y="419" type="line"/>
      <point x="208" y="419" type="line"/>
      <point x="267" y="697" type="line"/>
      <point x="393" y="697" type="line"/>
      <point x="400" y="729" type="line"/>
      <point x="121" y="729" type="line"/>
      <point x="114" y="697" type="line"/>
      <point x="233" y="697" type="line"/>
    </contour>
  </outline>
</glyph>
<glyph name="arrowup" format="2">
  <advance width="568"/>
  <unicode hex="2191"/>
  <outline>
    <contour>
      <point x="311" y="95" type="line"/>
      <point x="346" y="95" type="line"/>
      <point x="346" y="574" type="line"/>
      <point x="527" y="441" type="line"/>
      <point x="527" y="487" type="line"/>
      <point x="329" y="635" type="line"/>
      <point x="129" y="487" type="line"/>
      <point x="129" y="441" type="line"/>
      <point x="311" y="574" type="line"/>
    </contour>
  </outline>
</glyph>
<glyph name="leftRightArrow" format="2">
  <advance width="770"/>
  <unicode hex="2194"/>
  <outline>
    <contour>
      <point x="247" y="148" type="line"/>
      <point x="293" y="148" type="line"/>
      <point x="160" y="329" type="line"/>
      <point x="648" y="329" type="line"/>
      <point x="515" y="148" type="line"/>
      <point x="561" y="148" type="line"/>
      <point x="709" y="346" type="line"/>
      <point x="561" y="546" type="line"/>
      <point x="515" y="546" type="line"/>
      <point x="648" y="364" type="line"/>
      <point x="160" y="364" type="line"/>
      <point x="293" y="546" type="line"/>
      <point x="247" y="546" type="line"/>
      <point x="99" y="346" type="line"/>
    </contour>
  </outline>
</glyph>
<glyph name="emptyset" format="2">
  <advance width="809"/>
  <unicode hex="2205"/>
  <outline>
    <contour>
      <point x="713" y="558" type="line"/>
      <point x="128" y="202" type="line"/>
      <point x="138" y="172" type="line"/>
      <point x="727" y="529" type="line"/>
    </contour>
    <contour>
      <point x="428" y="-1" type="curve" smooth="yes"/>
      <point x="624" y="-1"/>
      <point x="788" y="150"/>
      <point x="788" y="366" type="curve" smooth="yes"/>
      <point x="788" y="579"/>
      <point x="624" y="730"/>
      <point x="428" y="730" type="curve" smooth="yes"/>
      <point x="229" y="730"/>
      <point x="67" y="579"/>
      <point x="67" y="366" type="curve" smooth="yes"/>
      <point x="67" y="150"/>
      <point x="229" y="-1"/>
    </contour>
    <contour>
      <point x="428" y="28" type="curve" smooth="yes"/>
      <point x="250" y="28"/>
      <point x="100" y="171"/>
      <point x="100" y="366" type="curve" smooth="yes"/>
      <point x="100" y="560"/>
      <point x="250" y="701"/>
      <point x="428" y="701" type="curve" smooth="yes"/>
      <point x="604" y="701"/>
      <point x="755" y="560"/>
      <point x="755" y="366" type="curve" smooth="yes"/>
      <point x="755" y="171"/>
      <point x="604" y="28"/>
    </contour>
  </outline>
</glyph>
<glyph name="product" format="2">
  <advance width="691"/>
  <unicode hex="220F"/>
  <outline>
    <contour>
      <point x="-8" y="-92" type="line"/>
      <point x="31" y="-92" type="line"/>
      <point x="197" y="689" type="line"/>
      <point x="679" y="689" type="line"/>
      <point x="513" y="-92" type="line"/>
      <point x="551" y="-92" type="line"/>
      <point x="725" y="729" type="line"/>
      <point x="166" y="729" type="line"/>
    </contour>
  </outline>
</glyph>
<glyph name="summation" format="2">
  <advance width="631"/>
  <unicode hex="2211"/>
  <outline>
    <contour>
      <point x="-47" y="-92" type="line"/>
      <point x="531" y="-92" type="line"/>
      <point x="539" y="-54" type="line"/>
      <point x="6" y="-54" type="line"/>
      <point x="6" y="-51" type="line"/>
      <point x="438" y="318" type="line"/>
      <point x="164" y="689" type="line"/>
      <point x="164" y="692" type="line"/>
      <point x="697" y="692" type="line"/>
      <point x="705" y="729" type="line"/>
      <point x="127" y="729" type="line"/>
      <point x="118" y="686" type="line"/>
      <point x="389" y="320" type="line"/>
      <point x="389" y="318" type="line"/>
      <point x="-38" y="-50" type="line"/>
    </contour>
  </outline>
</glyph>
<glyph name="minus" format="2">
  <advance width="720"/>
  <unicode hex="2212"/>
  <outline>
    <contour>
      <point x="121" y="344" type="line"/>
      <point x="615" y="344" type="line"/>
      <point x="623" y="378" type="line"/>
      <point x="129" y="378" type="line"/>
    </contour>
  </outline>
</glyph>
<glyph name="radical" format="2">
  <advance width="666"/>
  <unicode hex="221A"/>
  <outline>
    <contour>
      <point x="173" y="-92" type="line"/>
      <point x="208" y="-92" type="line"/>
      <point x="743" y="729" type="line"/>
      <point x="702" y="729" type="line"/>
      <point x="207" y="-30" type="line"/>
      <point x="204" y="-30" type="line"/>
      <point x="166" y="367" type="line"/>
      <point x="47" y="367" type="line"/>
      <point x="40" y="333" type="line"/>
      <point x="132" y="333" type="line"/>
    </contour>
  </outline>
</glyph>
<glyph name="infinity" format="2">
  <advance width="914"/>
  <unicode hex="221E"/>
  <outline>
    <contour>
      <point x="257" y="153" type="curve" smooth="yes"/>
      <point x="363" y="153"/>
      <point x="427" y="240"/>
      <point x="481" y="337" type="curve"/>
      <point x="539" y="232"/>
      <point x="602" y="153"/>
      <point x="707" y="153" type="curve" smooth="yes"/>
      <point x="825" y="153"/>
      <point x="890" y="255"/>
      <point x="890" y="364" type="curve" smooth="yes"/>
      <point x="890" y="477"/>
      <point x="825" y="577"/>
      <point x="707" y="577" type="curve" smooth="yes"/>
      <point x="596" y="577"/>
      <point x="536" y="489"/>
      <point x="481" y="394" type="curve"/>
      <point x="427" y="489"/>
      <point x="366" y="577"/>
      <point x="256" y="577" type="curve" smooth="yes"/>
      <point x="139" y="577"/>
      <point x="70" y="479"/>
      <point x="70" y="364" type="curve" smooth="yes"/>
      <point x="70" y="244"/>
      <point x="140" y="153"/>
    </contour>
    <contour>
      <point x="255" y="188" type="curve" smooth="yes"/>
      <point x="166" y="188"/>
      <point x="103" y="258"/>
      <point x="103" y="364" type="curve" smooth="yes"/>
      <point x="103" y="466"/>
      <point x="164" y="541"/>
      <point x="254" y="541" type="curve" smooth="yes"/>
      <point x="336" y="541"/>
      <point x="388" y="483"/>
      <point x="461" y="365" type="curve"/>
      <point x="388" y="243"/>
      <point x="333" y="188"/>
    </contour>
    <contour>
      <point x="707" y="188" type="curve" smooth="yes"/>
      <point x="622" y="188"/>
      <point x="575" y="247"/>
      <point x="501" y="365" type="curve"/>
      <point x="574" y="481"/>
      <point x="623" y="541"/>
      <point x="707" y="541" type="curve" smooth="yes"/>
      <point x="797" y="541"/>
      <point x="858" y="465"/>
      <point x="858" y="364" type="curve" smooth="yes"/>
      <point x="858" y="266"/>
      <point x="797" y="188"/>
    </contour>
  </outline>
</glyph>
<glyph name="integral" format="2">
  <advance width="447"/>
  <unicode hex="222B"/>
  <outline>
    <contour>
      <point x="-51" y="-92" type="line"/>
      <point x="120" y="-92" type="line" smooth="yes"/>
      <point x="160" y="-92"/>
      <point x="173" y="-66"/>
      <point x="179" y="-39" type="curve" smooth="yes"/>
      <point x="334" y="692" type="line"/>
      <point x="516" y="692" type="line"/>
      <point x="524" y="729" type="line"/>
      <point x="352" y="729" type="line" smooth="yes"/>
      <point x="322" y="729"/>
      <point x="301" y="707"/>
      <point x="293" y="673" type="curve" smooth="yes"/>
      <point x="138" y="-56" type="line"/>
      <point x="-44" y="-56" type="line"/>
    </contour>
  </outline>
</glyph>
<glyph name="approxequal" format="2">
  <advance width="720"/>
  <unicode hex="2248"/>
  <outline>
    <contour>
      <point x="214" y="389" type="curve"/>
      <point x="235" y="389" type="line"/>
      <point x="240" y="430"/>
      <point x="253" y="453"/>
      <point x="295" y="453" type="curve" smooth="yes"/>
      <point x="341" y="453"/>
      <point x="418" y="390"/>
      <point x="476" y="390" type="curve" smooth="yes"/>
      <point x="528" y="390"/>
      <point x="562" y="421"/>
      <point x="563" y="489" type="curve"/>
      <point x="542" y="489" type="line"/>
      <point x="537" y="447"/>
      <point x="526" y="424"/>
      <point x="484" y="424" type="curve" smooth="yes"/>
      <point x="439" y="424"/>
      <point x="361" y="487"/>
      <point x="302" y="487" type="curve" smooth="yes"/>
      <point x="251" y="487"/>
      <point x="216" y="457"/>
    </contour>
    <contour>
      <point x="183" y="241" type="curve"/>
      <point x="204" y="241" type="line"/>
      <point x="208" y="281"/>
      <point x="220" y="306"/>
      <point x="263" y="306" type="curve" smooth="yes"/>
      <point x="309" y="306"/>
      <point x="387" y="243"/>
      <point x="445" y="243" type="curve" smooth="yes"/>
      <point x="500" y="243"/>
      <point x="530" y="277"/>
      <point x="532" y="341" type="curve"/>
      <point x="511" y="341" type="line"/>
      <point x="506" y="301"/>
      <point x="495" y="276"/>
      <point x="452" y="276" type="curve" smooth="yes"/>
      <point x="407" y="276"/>
      <point x="329" y="339"/>
      <point x="270" y="339" type="curve" smooth="yes"/>
      <point x="218" y="339"/>
      <point x="184" y="308"/>
    </contour>
  </outline>
</glyph>
<glyph name="notequal" format="2">
  <advance width="720"/>
  <unicode hex="2260"/>
  <outline>
    <contour>
      <point x="163" y="110" type="line"/>
      <point x="202" y="110" type="line"/>
      <point x="588" y="611" type="line"/>
      <point x="548" y="611" type="line"/>
    </contour>
    <contour>
      <point x="105" y="238" type="line"/>
      <point x="607" y="238" type="line"/>
      <point x="614" y="272" type="line"/>
      <point x="112" y="272" type="line"/>
    </contour>
    <contour>
      <point x="152" y="458" type="line"/>
      <point x="654" y="458" type="line"/>
      <point x="661" y="492" type="line"/>
      <point x="159" y="492" type="line"/>
    </contour>
  </outline>
</glyph>
<glyph name="lessequal" format="2">
  <advance width="720"/>
  <unicode hex="2264"/>
  <outline>
    <contour>
      <point x="586" y="119" type="line"/>
      <point x="594" y="158" type="line"/>
      <point x="144" y="359" type="line"/>
      <point x="144" y="363" type="line"/>
      <point x="679" y="563" type="line"/>
      <point x="688" y="607" type="line"/>
      <point x="108" y="386" type="line"/>
      <point x="98" y="341" type="line"/>
    </contour>
    <contour>
      <point x="27" y="0" type="line"/>
      <point x="561" y="0" type="line"/>
      <point x="569" y="37" type="line"/>
      <point x="35" y="37" type="line"/>
    </contour>
  </outline>
</glyph>
<glyph name="greaterequal" format="2">
  <advance width="720"/>
  <unicode hex="2265"/>
  <outline>
    <contour>
      <point x="6" y="119" type="line"/>
      <point x="586" y="340" type="line"/>
      <point x="595" y="385" type="line"/>
      <point x="108" y="607" type="line"/>
      <point x="100" y="568" type="line"/>
      <point x="550" y="367" type="line"/>
      <point x="550" y="363" type="line"/>
      <point x="15" y="163" type="line"/>
    </contour>
    <contour>
      <point x="-19" y="0" type="line"/>
      <point x="515" y="0" type="line"/>
      <point x="523" y="37" type="line"/>
      <point x="-11" y="37" type="line"/>
    </contour>
  </outline>
</glyph>
<glyph name="whiteCircle" format="2">
  <advance width="968"/>
  <unicode hex="25CB"/>
  <anchor x="507" y="365" name="center"/>
  <outline>
    <contour>
      <point x="488" y="-29" type="curve" smooth="yes"/>
      <point x="688" y="-29"/>
      <point x="862" y="78"/>
      <point x="914" y="258" type="curve" smooth="yes"/>
      <point x="923" y="289"/>
      <point x="927" y="319"/>
      <point x="930" y="366" type="curve" smooth="yes"/>
      <point x="943" y="600"/>
      <point x="774" y="759"/>
      <point x="525" y="759" type="curve" smooth="yes"/>
      <point x="325" y="759"/>
      <point x="151" y="652"/>
      <point x="99" y="472" type="curve" smooth="yes"/>
      <point x="90" y="441"/>
      <point x="86" y="411"/>
      <point x="83" y="364" type="curve" smooth="yes"/>
      <point x="70" y="130"/>
      <point x="239" y="-29"/>
    </contour>
    <contour>
      <point x="488" y="8" type="curve" smooth="yes"/>
      <point x="264" y="8"/>
      <point x="120" y="138"/>
      <point x="120" y="340" type="curve" smooth="yes"/>
      <point x="120" y="368"/>
      <point x="122" y="394"/>
      <point x="127" y="420" type="curve" smooth="yes"/>
      <point x="161" y="603"/>
      <point x="314" y="722"/>
      <point x="525" y="722" type="curve" smooth="yes"/>
      <point x="749" y="722"/>
      <point x="893" y="592"/>
      <point x="893" y="390" type="curve" smooth="yes"/>
      <point x="893" y="362"/>
      <point x="891" y="336"/>
      <point x="886" y="310" type="curve" smooth="yes"/>
      <point x="852" y="127"/>
      <point x="699" y="8"/>
    </contour>
  </outline>
</glyph>
<glyph name="blackCircle" format="2">
  <advance width="968"/>
  <unicode hex="25CF"/>
  <anchor x="507" y="365" name="center"/>
  <outline>
    <contour>
      <point x="488" y="-29" type="curve" smooth="yes"/>
      <point x="239" y="-29"/>
      <point x="70" y="130"/>
      <point x="83" y="364" type="curve" smooth="yes"/>
      <point x="86" y="411"/>
      <point x="90" y="441"/>
      <point x="99" y="472" type="curve" smooth="yes"/>
      <point x="151" y="652"/>
      <point x="325" y="759"/>
      <point x="525" y="759" type="curve" smooth="yes"/>
      <point x="774" y="759"/>
      <point x="943" y="600"/>
      <point x="930" y="366" type="curve" smooth="yes"/>
      <point x="927" y="319"/>
      <point x="923" y="289"/>
      <point x="914" y="258" type="curve" smooth="yes"/>
      <point x="862" y="78"/>
      <point x="688" y="-29"/>
    </contour>
  </outline>
</glyph>
<glyph name="whiteFrowningFace" format="2">
  <advance width="885"/>
  <unicode hex="2639"/>
  <outline>
    <contour>
      <point x="466" y="-10" type="curve" smooth="yes"/>
      <point x="683" y="-10"/>
      <point x="840" y="140"/>
      <point x="840" y="366" type="curve" smooth="yes"/>
      <point x="840" y="590"/>
      <point x="683" y="739"/>
      <point x="466" y="739" type="curve" smooth="yes"/>
      <point x="249" y="739"/>
      <point x="91" y="590"/>
      <point x="91" y="366" type="curve" smooth="yes"/>
      <point x="91" y="140"/>
      <point x="249" y="-10"/>
    </contour>
    <contour>
      <point x="269" y="177" type="line"/>
      <point x="305" y="244"/>
      <point x="379" y="285"/>
      <point x="466" y="285" type="curve" smooth="yes"/>
      <point x="553" y="285"/>
      <point x="627" y="244"/>
      <point x="663" y="177" type="curve"/>
      <point x="691" y="189" type="line"/>
      <point x="652" y="268"/>
      <point x="571" y="316"/>
      <point x="466" y="316" type="curve" smooth="yes"/>
      <point x="361" y="316"/>
      <point x="280" y="268"/>
      <point x="241" y="189" type="curve"/>
    </contour>
    <contour>
      <point x="466" y="19" type="curve" smooth="yes"/>
      <point x="268" y="19"/>
      <point x="124" y="158"/>
      <point x="124" y="366" type="curve" smooth="yes"/>
      <point x="124" y="572"/>
      <point x="268" y="710"/>
      <point x="466" y="710" type="curve" smooth="yes"/>
      <point x="663" y="710"/>
      <point x="807" y="572"/>
      <point x="807" y="366" type="curve" smooth="yes"/>
      <point x="807" y="158"/>
      <point x="663" y="19"/>
    </contour>
    <contour>
      <point x="378" y="392" type="curve" smooth="yes"/>
      <point x="396" y="392"/>
      <point x="405" y="405"/>
      <point x="405" y="426" type="curve" smooth="yes"/>
      <point x="405" y="491" type="line" smooth="yes"/>
      <point x="405" y="512"/>
      <point x="396" y="525"/>
      <point x="378" y="525" type="curve" smooth="yes"/>
      <point x="360" y="525"/>
      <point x="351" y="512"/>
      <point x="351" y="491" type="curve" smooth="yes"/>
      <point x="351" y="426" type="line" smooth="yes"/>
      <point x="351" y="405"/>
      <point x="360" y="392"/>
    </contour>
    <contour>
      <point x="554" y="392" type="curve" smooth="yes"/>
      <point x="572" y="392"/>
      <point x="581" y="405"/>
      <point x="581" y="426" type="curve" smooth="yes"/>
      <point x="581" y="491" type="line" smooth="yes"/>
      <point x="581" y="512"/>
      <point x="572" y="525"/>
      <point x="554" y="525" type="curve" smooth="yes"/>
      <point x="536" y="525"/>
      <point x="527" y="512"/>
      <point x="527" y="491" type="curve" smooth="yes"/>
      <point x="527" y="426" type="line" smooth="yes"/>
      <point x="527" y="405"/>
      <point x="536" y="392"/>
    </contour>
  </outline>
</glyph>
<glyph name="whiteSmilingFace" format="2">
  <advance width="885"/>
  <unicode hex="263A"/>
  <outline>
    <contour>
      <point x="466" y="-10" type="curve" smooth="yes"/>
      <point x="683" y="-10"/>
      <point x="840" y="140"/>
      <point x="840" y="366" type="curve" smooth="yes"/>
      <point x="840" y="590"/>
      <point x="683" y="739"/>
      <point x="466" y="739" type="curve" smooth="yes"/>
      <point x="249" y="739"/>
      <point x="91" y="590"/>
      <point x="91" y="366" type="curve" smooth="yes"/>
      <point x="91" y="140"/>
      <point x="249" y="-10"/>
    </contour>
    <contour>
      <point x="464" y="105" type="curve" smooth="yes"/>
      <point x="603" y="105"/>
      <point x="698" y="187"/>
      <point x="716" y="311" type="curve"/>
      <point x="752" y="311" type="line"/>
      <point x="752" y="326" type="line"/>
      <point x="643" y="326" type="line"/>
      <point x="643" y="311" type="line"/>
      <point x="682" y="311" type="line"/>
      <point x="670" y="206"/>
      <point x="581" y="136"/>
      <point x="464" y="136" type="curve" smooth="yes"/>
      <point x="350" y="136"/>
      <point x="260" y="206"/>
      <point x="247" y="311" type="curve"/>
      <point x="288" y="311" type="line"/>
      <point x="288" y="326" type="line"/>
      <point x="179" y="326" type="line"/>
      <point x="179" y="311" type="line"/>
      <point x="214" y="311" type="line"/>
      <point x="231" y="187"/>
      <point x="327" y="105"/>
    </contour>
    <contour>
      <point x="466" y="19" type="curve" smooth="yes"/>
      <point x="268" y="19"/>
      <point x="124" y="158"/>
      <point x="124" y="366" type="curve" smooth="yes"/>
      <point x="124" y="572"/>
      <point x="268" y="710"/>
      <point x="466" y="710" type="curve" smooth="yes"/>
      <point x="663" y="710"/>
      <point x="807" y="572"/>
      <point x="807" y="366" type="curve" smooth="yes"/>
      <point x="807" y="158"/>
      <point x="663" y="19"/>
    </contour>
    <contour>
      <point x="378" y="392" type="curve" smooth="yes"/>
      <point x="396" y="392"/>
      <point x="405" y="405"/>
      <point x="405" y="426" type="curve" smooth="yes"/>
      <point x="405" y="491" type="line" smooth="yes"/>
      <point x="405" y="512"/>
      <point x="396" y="525"/>
      <point x="378" y="525" type="curve" smooth="yes"/>
      <point x="360" y="525"/>
      <point x="351" y="512"/>
      <point x="351" y="491" type="curve" smooth="yes"/>
      <point x="351" y="426" type="line" smooth="yes"/>
      <point x="351" y="405"/>
      <point x="360" y="392"/>
    </contour>
    <contour>
      <point x="554" y="392" type="curve" smooth="yes"/>
      <point x="572" y="392"/>
      <point x="581" y="405"/>
      <point x="581" y="426" type="curve" smooth="yes"/>
      <point x="581" y="491" type="line" smooth="yes"/>
      <point x="581" y="512"/>
      <point x="572" y="525"/>
      <point x="554" y="525" type="curve" smooth="yes"/>
      <point x="536" y="525"/>
      <point x="527" y="512"/>
      <point x="527" y="491" type="curve" smooth="yes"/>
      <point x="527" y="426" type="line" smooth="yes"/>
      <point x="527" y="405"/>
      <point x="536" y="392"/>
    </contour>
  </outline>
</glyph>
<glyph name="checkmark" format="2">
  <advance width="762"/>
  <unicode hex="2713"/>
  <outline>
    <contour>
      <point x="267" y="136" type="line"/>
      <point x="773" y="559" type="line"/>
      <point x="750" y="588" type="line"/>
      <point x="271" y="189" type="line"/>
      <point x="107" y="413" type="line"/>
      <point x="81" y="388" type="line"/>
    </contour>
  </outline>
</glyph>
<glyph name="fi" format="2">
  <advance width="522"/>
  <unicode hex="FB01"/>
  <anchor x="261" y="0" name="caret_1"/>
  <outline>
    <contour>
      <point x="89" y="0" type="line"/>
      <point x="127" y="0" type="line"/>
      <point x="227" y="479" type="line"/>
      <point x="463" y="479" type="line"/>
      <point x="364" y="0" type="line"/>
      <point x="402" y="0" type="line"/>
      <point x="509" y="516" type="line"/>
      <point x="235" y="516" type="line"/>
      <point x="272" y="692" type="line"/>
      <point x="547" y="692" type="line"/>
      <point x="555" y="729" type="line"/>
      <point x="288" y="729" type="line" smooth="yes"/>
      <point x="260" y="729"/>
      <point x="239" y="718"/>
      <point x="233" y="689" type="curve" smooth="yes"/>
      <point x="197" y="516" type="line"/>
      <point x="80" y="516" type="line"/>
      <point x="73" y="479" type="line"/>
      <point x="189" y="479" type="line"/>
    </contour>
  </outline>
</glyph>
<glyph name="fl" format="2">
  <advance width="521"/>
  <unicode hex="FB02"/>
  <anchor x="260.5" y="0" name="caret_1"/>
  <outline>
    <contour>
      <point x="89" y="0" type="line"/>
      <point x="127" y="0" type="line"/>
      <point x="227" y="479" type="line"/>
      <point x="385" y="479" type="line"/>
      <point x="393" y="516" type="line"/>
      <point x="235" y="516" type="line"/>
      <point x="272" y="692" type="line"/>
      <point x="509" y="692" type="line"/>
      <point x="363" y="0" type="line"/>
      <point x="401" y="0" type="line"/>
      <point x="554" y="729" type="line"/>
      <point x="288" y="729" type="line" smooth="yes"/>
      <point x="260" y="729"/>
      <point x="239" y="718"/>
      <point x="233" y="689" type="curve" smooth="yes"/>
      <point x="197" y="516" type="line"/>
      <point x="80" y="516" type="line"/>
      <point x="73" y="479" type="line"/>
      <point x="189" y="479" type="line"/>
    </contour>
  </outline>
</glyph>
<glyph name="I.ss04" format="2">
  <advance width="200"/>
  <note>
I
</note>
  <anchor x="43" y="0" name="bottom"/>
  <anchor x="67" y="0" name="ogonek"/>
  <anchor x="198" y="729" name="top"/>
  <anchor x="88" y="729" name="topleft"/>
  <outline>
    <contour>
      <point x="25" y="0" type="line"/>
      <point x="67" y="0" type="line"/>
      <point x="219" y="729" type="line"/>
      <point x="178" y="729" type="line"/>
    </contour>
  </outline>
</glyph>
<glyph name="_AE.E" format="2">
  <advance width="804"/>
  <anchor x="349" y="0" name="#entry"/>
  <outline>
    <contour>
      <point x="140" y="690" type="line"/>
      <point x="854" y="690" type="line"/>
      <point x="862" y="729" type="line"/>
      <point x="140" y="729" type="line"/>
    </contour>
    <contour>
      <point x="349" y="0" type="line"/>
      <point x="709" y="0" type="line"/>
      <point x="716" y="39" type="line"/>
      <point x="366" y="39" type="line"/>
    </contour>
    <contour>
      <point x="254" y="357" type="line"/>
      <point x="624" y="357" type="line"/>
      <point x="631" y="394" type="line"/>
      <point x="254" y="394" type="line"/>
    </contour>
  </outline>
</glyph>
<glyph name="_Euro.bars" format="2">
  <advance width="579"/>
  <anchor x="537" y="0" name="_bottom"/>
  <outline>
    <contour>
      <point x="538" y="257" type="line"/>
      <point x="545" y="289" type="line"/>
      <point x="184" y="289" type="line"/>
      <point x="177" y="257" type="line"/>
    </contour>
    <contour>
      <point x="40" y="257" type="line"/>
      <point x="177" y="257" type="line"/>
      <point x="184" y="289" type="line"/>
      <point x="47" y="289" type="line"/>
    </contour>
    <contour>
      <point x="79" y="440" type="line"/>
      <point x="196" y="440" type="line"/>
      <point x="203" y="472" type="line"/>
      <point x="86" y="472" type="line"/>
    </contour>
    <contour>
      <point x="577" y="440" type="line"/>
      <point x="584" y="472" type="line"/>
      <point x="203" y="472" type="line"/>
      <point x="196" y="440" type="line"/>
    </contour>
  </outline>
</glyph>
<glyph name="_OE.O" format="2">
  <advance width="754"/>
  <anchor x="578" y="0" name="#exit"/>
  <outline>
    <contour>
      <point x="411" y="0" type="curve" smooth="yes"/>
      <point x="606" y="0" type="line"/>
      <point x="606" y="39" type="line"/>
      <point x="394" y="39" type="line" smooth="yes"/>
      <point x="191" y="39"/>
      <point x="80" y="152"/>
      <point x="120" y="362" type="curve" smooth="yes"/>
      <point x="131" y="420" type="line" smooth="yes"/>
      <point x="165" y="598"/>
      <point x="311" y="690"/>
      <point x="522" y="690" type="curve" smooth="yes"/>
      <point x="806" y="690" type="line"/>
      <point x="806" y="729" type="line"/>
      <point x="531" y="729" type="line" smooth="yes"/>
      <point x="288" y="729"/>
      <point x="124" y="624"/>
      <point x="83" y="409" type="curve" smooth="yes"/>
      <point x="79" y="388" type="line" smooth="yes"/>
      <point x="35" y="155"/>
      <point x="146" y="0"/>
    </contour>
  </outline>
</glyph>
<glyph name="_Stem.Uppercase" format="2">
  <advance width="289"/>
  <outline>
    <contour>
      <point x="95" y="0" type="line"/>
      <point x="137" y="0" type="line"/>
      <point x="265" y="729" type="line"/>
      <point x="223" y="729" type="line"/>
    </contour>
  </outline>
</glyph>
<glyph name="_bitcoin.bars" format="2">
  <advance width="268"/>
  <anchor x="124" y="0" name="_bottom"/>
  <outline>
    <contour>
      <point x="287" y="713" type="line"/>
      <point x="324" y="713" type="line"/>
      <point x="353" y="850" type="line"/>
      <point x="316" y="850" type="line"/>
    </contour>
    <contour>
      <point x="-40" y="-121" type="line"/>
      <point x="-3" y="-121" type="line"/>
      <point x="25" y="12" type="line"/>
      <point x="-12" y="12" type="line"/>
    </contour>
    <contour>
      <point x="110" y="-121" type="line"/>
      <point x="147" y="-121" type="line"/>
      <point x="175" y="12" type="line"/>
      <point x="138" y="12" type="line"/>
    </contour>
    <contour>
      <point x="137" y="713" type="line"/>
      <point x="174" y="713" type="line"/>
      <point x="203" y="850" type="line"/>
      <point x="166" y="850" type="line"/>
    </contour>
  </outline>
</glyph>
<glyph name="_copyright.C" format="2">
  <advance width="580"/>
  <anchor x="315" y="365" name="_center"/>
  <outline>
    <contour>
      <point x="311" y="126" type="curve" smooth="yes"/>
      <point x="419" y="126"/>
      <point x="511" y="180"/>
      <point x="540" y="257" type="curve"/>
      <point x="502" y="257" type="line"/>
      <point x="475" y="200"/>
      <point x="402" y="159"/>
      <point x="311" y="159" type="curve" smooth="yes"/>
      <point x="173" y="159"/>
      <point x="81" y="239"/>
      <point x="109" y="383" type="curve" smooth="yes"/>
      <point x="116" y="419" type="line" smooth="yes"/>
      <point x="134" y="512"/>
      <point x="216" y="571"/>
      <point x="332" y="571" type="curve" smooth="yes"/>
      <point x="441" y="571"/>
      <point x="520" y="516"/>
      <point x="529" y="430" type="curve"/>
      <point x="566" y="430" type="line"/>
      <point x="551" y="536"/>
      <point x="461" y="604"/>
      <point x="332" y="604" type="curve" smooth="yes"/>
      <point x="196" y="604"/>
      <point x="96" y="529"/>
      <point x="72" y="408" type="curve" smooth="yes"/>
      <point x="72" y="408" type="line" smooth="yes"/>
      <point x="37" y="229"/>
      <point x="139" y="126"/>
    </contour>
  </outline>
</glyph>
<glyph name="_dollar.bar" format="2">
  <advance width="120"/>
  <anchor x="10" y="0" name="_bottom"/>
  <outline>
    <contour>
      <point x="-40" y="-121" type="line"/>
      <point x="-1" y="-121" type="line"/>
      <point x="26" y="6" type="line"/>
      <point x="-13" y="6" type="line"/>
    </contour>
    <contour>
      <point x="139" y="723" type="line"/>
      <point x="178" y="723" type="line"/>
      <point x="205" y="850" type="line"/>
      <point x="166" y="850" type="line"/>
    </contour>
  </outline>
</glyph>
<glyph name=".notdef" format="2">
  <advance width="882"/>
  <outline>
    <contour>
      <point x="461" y="738" type="curve" smooth="yes"/>
      <point x="249" y="738"/>
      <point x="79" y="567"/>
      <point x="79" y="356" type="curve" smooth="yes"/>
      <point x="79" y="186"/>
      <point x="187" y="41"/>
      <point x="341" y="-8" type="curve"/>
      <point x="355" y="-12"/>
      <point x="366" y="-5"/>
      <point x="366" y="10" type="curve" smooth="yes"/>
      <point x="366" y="19"/>
      <point x="366" y="48"/>
      <point x="366" y="80" type="curve"/>
      <point x="260" y="58"/>
      <point x="236" y="126"/>
      <point x="236" y="126" type="curve"/>
      <point x="220" y="171"/>
      <point x="196" y="182"/>
      <point x="196" y="182" type="curve"/>
      <point x="161" y="206"/>
      <point x="197" y="206"/>
      <point x="197" y="206" type="curve"/>
      <point x="235" y="203"/>
      <point x="257" y="165"/>
      <point x="257" y="165" type="curve"/>
      <point x="289" y="107"/>
      <point x="345" y="125"/>
      <point x="366" y="134" type="curve"/>
      <point x="370" y="158"/>
      <point x="381" y="176"/>
      <point x="392" y="186" type="curve"/>
      <point x="306" y="196"/>
      <point x="217" y="228"/>
      <point x="217" y="376" type="curve" smooth="yes"/>
      <point x="217" y="416"/>
      <point x="232" y="451"/>
      <point x="257" y="477" type="curve"/>
      <point x="253" y="487"/>
      <point x="239" y="526"/>
      <point x="261" y="579" type="curve"/>
      <point x="261" y="579"/>
      <point x="292" y="590"/>
      <point x="365" y="539" type="curve"/>
      <point x="397" y="549"/>
      <point x="429" y="553"/>
      <point x="461" y="553" type="curve" smooth="yes"/>
      <point x="494" y="553"/>
      <point x="526" y="549"/>
      <point x="558" y="539" type="curve"/>
      <point x="631" y="590"/>
      <point x="662" y="579"/>
      <point x="662" y="579" type="curve"/>
      <point x="684" y="526"/>
      <point x="670" y="487"/>
      <point x="666" y="477" type="curve"/>
      <point x="691" y="451"/>
      <point x="706" y="416"/>
      <point x="706" y="376" type="curve" smooth="yes"/>
      <point x="706" y="226"/>
      <point x="617" y="196"/>
      <point x="531" y="186" type="curve"/>
      <point x="544" y="175"/>
      <point x="557" y="150"/>
      <point x="557" y="115" type="curve" smooth="yes"/>
      <point x="557" y="65"/>
      <point x="557" y="21"/>
      <point x="557" y="10" type="curve" smooth="yes"/>
      <point x="557" y="-5"/>
      <point x="568" y="-12"/>
      <point x="584" y="-8" type="curve"/>
      <point x="736" y="41"/>
      <point x="844" y="186"/>
      <point x="844" y="356" type="curve" smooth="yes"/>
      <point x="844" y="567"/>
      <point x="674" y="738"/>
    </contour>
    <contour>
      <point x="225" y="189" type="line"/>
      <point x="224" y="186"/>
      <point x="220" y="186"/>
      <point x="217" y="187" type="curve"/>
      <point x="214" y="189"/>
      <point x="213" y="190"/>
      <point x="214" y="192" type="curve"/>
      <point x="214" y="194"/>
      <point x="217" y="196"/>
      <point x="220" y="192" type="curve"/>
      <point x="224" y="192"/>
      <point x="225" y="190"/>
      <point x="225" y="189" type="curve"/>
    </contour>
    <contour>
      <point x="238" y="171" type="line"/>
      <point x="236" y="168"/>
      <point x="234" y="171"/>
      <point x="231" y="172" type="curve"/>
      <point x="228" y="175"/>
      <point x="228" y="179"/>
      <point x="229" y="180" type="curve"/>
      <point x="232" y="182"/>
      <point x="235" y="182"/>
      <point x="238" y="179" type="curve"/>
      <point x="239" y="176"/>
      <point x="240" y="172"/>
      <point x="238" y="171" type="curve"/>
    </contour>
    <contour>
      <point x="256" y="148" type="line"/>
      <point x="253" y="146"/>
      <point x="247" y="148"/>
      <point x="245" y="151" type="curve"/>
      <point x="243" y="154"/>
      <point x="243" y="160"/>
      <point x="245" y="161" type="curve"/>
      <point x="247" y="162"/>
      <point x="253" y="161"/>
      <point x="256" y="158" type="curve"/>
      <point x="257" y="154"/>
      <point x="257" y="150"/>
      <point x="256" y="148" type="curve"/>
    </contour>
    <contour>
      <point x="275" y="127" type="line"/>
      <point x="273" y="125"/>
      <point x="268" y="126"/>
      <point x="266" y="129" type="curve"/>
      <point x="263" y="132"/>
      <point x="261" y="136"/>
      <point x="263" y="139" type="curve"/>
      <point x="266" y="141"/>
      <point x="270" y="140"/>
      <point x="273" y="137" type="curve"/>
      <point x="275" y="134"/>
      <point x="277" y="129"/>
      <point x="275" y="127" type="curve"/>
    </contour>
    <contour>
      <point x="303" y="115" type="line"/>
      <point x="302" y="112"/>
      <point x="298" y="111"/>
      <point x="293" y="112" type="curve"/>
      <point x="289" y="114"/>
      <point x="288" y="116"/>
      <point x="288" y="120" type="curve"/>
      <point x="289" y="123"/>
      <point x="292" y="125"/>
      <point x="298" y="123" type="curve"/>
      <point x="300" y="122"/>
      <point x="303" y="118"/>
      <point x="303" y="115" type="curve"/>
    </contour>
    <contour>
      <point x="334" y="114" type="line"/>
      <point x="334" y="111"/>
      <point x="331" y="107"/>
      <point x="327" y="105" type="curve"/>
      <point x="323" y="105"/>
      <point x="320" y="111"/>
      <point x="320" y="114" type="curve"/>
      <point x="320" y="116"/>
      <point x="323" y="118"/>
      <point x="327" y="118" type="curve"/>
      <point x="331" y="118"/>
      <point x="334" y="116"/>
      <point x="334" y="114" type="curve"/>
    </contour>
    <contour>
      <point x="363" y="118" type="line"/>
      <point x="365" y="115"/>
      <point x="360" y="112"/>
      <point x="356" y="111" type="curve"/>
      <point x="352" y="111"/>
      <point x="348" y="112"/>
      <point x="348" y="115" type="curve"/>
      <point x="346" y="118"/>
      <point x="349" y="122"/>
      <point x="355" y="122" type="curve"/>
      <point x="359" y="123"/>
      <point x="363" y="120"/>
      <point x="363" y="118" type="curve"/>
    </contour>
  </outline>
</glyph>
<glyph name="_published.P" format="2">
  <advance width="482"/>
  <anchor x="239" y="365" name="_center"/>
  <outline>
    <contour>
      <point x="19" y="157" type="line"/>
      <point x="56" y="157" type="line"/>
      <point x="137" y="539" type="line"/>
      <point x="343" y="539" type="line" smooth="yes"/>
      <point x="405" y="539"/>
      <point x="444" y="516"/>
      <point x="444" y="454" type="curve" smooth="yes"/>
      <point x="444" y="385"/>
      <point x="394" y="339"/>
      <point x="309" y="339" type="curve" smooth="yes"/>
      <point x="91" y="339" type="line"/>
      <point x="84" y="307" type="line"/>
      <point x="306" y="307" type="line" smooth="yes"/>
      <point x="412" y="307"/>
      <point x="480" y="366"/>
      <point x="480" y="455" type="curve" smooth="yes"/>
      <point x="480" y="524"/>
      <point x="433" y="571"/>
      <point x="351" y="571" type="curve" smooth="yes"/>
      <point x="107" y="571" type="line"/>
    </contour>
  </outline>
</glyph>
<glyph name="_tail.Q" format="2">
  <advance width="393"/>
  <anchor x="3" y="0" name="_bottom"/>
  <outline>
    <contour>
      <point x="2" y="-167" type="curve" smooth="yes"/>
      <point x="263" y="-167" type="line"/>
      <point x="271" y="-130" type="line"/>
      <point x="-5" y="-130" type="line"/>
      <point x="23" y="5" type="line"/>
      <point x="-14" y="5" type="line"/>
      <point x="-40" y="-120" type="line" smooth="yes"/>
      <point x="-46" y="-151"/>
      <point x="-32" y="-167"/>
    </contour>
  </outline>
</glyph>
<glyph name="_tail.Q.ss01" format="2">
  <advance width="475"/>
  <anchor x="-81" y="1" name="_bottom"/>
  <outline>
    <contour>
      <point x="375" y="-24" type="line"/>
      <point x="384" y="18" type="line"/>
      <point x="51" y="309" type="line"/>
      <point x="42" y="267" type="line"/>
    </contour>
  </outline>
</glyph>
<glyph name="_yen.bars" format="2">
  <advance width="539"/>
  <anchor x="202" y="0" name="_bottom"/>
  <outline>
    <contour>
      <point x="50" y="301" type="line"/>
      <point x="508" y="301" type="line"/>
      <point x="515" y="338" type="line"/>
      <point x="57" y="338" type="line"/>
    </contour>
    <contour>
      <point x="19" y="155" type="line"/>
      <point x="477" y="155" type="line"/>
      <point x="484" y="190" type="line"/>
      <point x="26" y="190" type="line"/>
    </contour>
  </outline>
</glyph>
